<?xml version="1.0" encoding="UTF-8" standalone="no"?>
<svg
   xmlns:dc="http://purl.org/dc/elements/1.1/"
   xmlns:cc="http://creativecommons.org/ns#"
   xmlns:rdf="http://www.w3.org/1999/02/22-rdf-syntax-ns#"
   xmlns:svg="http://www.w3.org/2000/svg"
   xmlns="http://www.w3.org/2000/svg"
   viewBox="0 0 454.88 454.88"
   height="454.88"
   width="454.88"
   xml:space="preserve"
   id="svg2"
   version="1.1"><metadata
     id="metadata8"><rdf:RDF><cc:Work
         rdf:about=""><dc:format>image/svg+xml</dc:format><dc:type
           rdf:resource="http://purl.org/dc/dcmitype/StillImage" /></cc:Work></rdf:RDF></metadata><defs
     id="defs6" /><g
     transform="matrix(1.3333333,0,0,-1.3333333,0,454.88)"
     id="g10"><g
       transform="scale(0.1)"
       id="g12"><path
         id="path14"
         style="fill:#155196;fill-opacity:1;fill-rule:nonzero;stroke:none"
         d="M 5,5 H 3406.57 V 3406.58 H 5 V 5" /><path
         id="path16"
         style="fill:none;stroke:#155196;stroke-width:10;stroke-linecap:butt;stroke-linejoin:miter;stroke-miterlimit:4;stroke-dasharray:none;stroke-opacity:1"
         d="M 5,5 H 3406.57 V 3406.58 H 5 Z" /><path
         id="path18"
         style="fill:#ffffff;fill-opacity:1;fill-rule:nonzero;stroke:none"
         d="M 231.77,5 H 3179.8 c 60.14,0 117.83,23.8984 160.36,66.418 42.52,42.535 66.41,100.215 66.41,160.352 V 3179.8 c 0,125.25 -101.53,226.78 -226.77,226.78 H 231.77 c -60.145,0 -117.825,-23.89 -160.3559,-66.42 C 28.8867,3297.63 5,3239.95 5,3179.8 V 231.77 C 5,106.531 106.527,5 231.77,5" /><path
         id="path20"
         style="fill:#155196;fill-opacity:1;fill-rule:nonzero;stroke:none"
         d="M 231.77,118.391 H 3179.8 c 62.62,0 113.38,50.761 113.38,113.379 V 3179.8 c 0,62.63 -50.76,113.4 -113.38,113.4 H 231.77 c -30.071,0 -58.915,-11.95 -80.176,-33.22 -21.262,-21.27 -33.211,-50.1 -33.211,-80.18 V 231.77 c 0,-30.059 11.949,-58.907 33.211,-80.176 21.261,-21.262 50.105,-33.203 80.176,-33.203" /><path
         id="path22"
         style="fill:#ffffff;fill-opacity:1;fill-rule:nonzero;stroke:none"
         d="M 1912.48,401.691 V 1451.52 l 171.21,97.47 V 401.691 h -171.21" /><path
         id="path24"
         style="fill:#ffffff;fill-opacity:1;fill-rule:nonzero;stroke:none"
         d="M 631.266,1105.83 967.98,1424.95 836.863,1655.23 390.582,1528.55 631.266,1105.83" /><path
         id="path26"
         style="fill:#ffffff;fill-opacity:1;fill-rule:nonzero;stroke:none"
         d="m 2958.65,2317.01 c 34.34,-60.31 13.28,-137.03 -47.03,-171.37 L 1316.03,1237.18 c -60.31,-34.34 -137.04,-13.28 -171.37,47.03 L 806.008,1879 c -16.492,28.96 -20.801,63.29 -11.985,95.43 8.825,32.13 30.047,59.45 59.008,75.94 l 1595.599,908.46 c 60.3,34.34 137.03,13.28 171.37,-47.02 l 338.65,-594.8" /></g></g></svg>