<?xml version="1.0" encoding="UTF-8" standalone="no"?>
<svg
   xmlns:dc="http://purl.org/dc/elements/1.1/"
   xmlns:cc="http://creativecommons.org/ns#"
   xmlns:rdf="http://www.w3.org/1999/02/22-rdf-syntax-ns#"
   xmlns:svg="http://www.w3.org/2000/svg"
   xmlns="http://www.w3.org/2000/svg"
   viewBox="0 0 606.05334 606.05334"
   height="606.05334"
   width="606.05334"
   xml:space="preserve"
   id="svg2"
   version="1.1"><metadata
     id="metadata8"><rdf:RDF><cc:Work
         rdf:about=""><dc:format>image/svg+xml</dc:format><dc:type
           rdf:resource="http://purl.org/dc/dcmitype/StillImage" /></cc:Work></rdf:RDF></metadata><defs
     id="defs6" /><g
     transform="matrix(1.3333333,0,0,-1.3333333,0,606.05333)"
     id="g10"><g
       transform="scale(0.1)"
       id="g12"><path
         id="path14"
         style="fill:#155196;fill-opacity:1;fill-rule:nonzero;stroke:none"
         d="M 5,4540.43 H 4540.43 V 5 H 5 v 4535.43" /><path
         id="path16"
         style="fill:none;stroke:#155196;stroke-width:10;stroke-linecap:butt;stroke-linejoin:miter;stroke-miterlimit:4;stroke-dasharray:none;stroke-opacity:1"
         d="M 5,4540.43 H 4540.43 V 5 H 5 Z" /><path
         id="path18"
         style="fill:#ffffff;fill-opacity:1;fill-rule:nonzero;stroke:none"
         d="M 288.469,4540.43 H 4256.97 c 156.56,0 283.46,-126.91 283.46,-283.46 V 288.469 c 0,-75.188 -29.86,-147.285 -83.02,-200.4417 C 4404.25,34.8633 4332.15,5 4256.97,5 H 288.469 C 131.914,5 5,131.914 5,288.469 V 4256.97 c 0,156.55 126.914,283.46 283.469,283.46" /><path
         id="path20"
         style="fill:#155196;fill-opacity:1;fill-rule:nonzero;stroke:none"
         d="M 288.469,4398.7 H 4256.97 c 78.28,0 141.73,-63.46 141.73,-141.73 V 288.469 c 0,-78.281 -63.45,-141.739 -141.73,-141.739 H 288.469 c -37.594,0 -73.645,14.93 -100.219,41.512 -26.582,26.582 -41.516,62.629 -41.516,100.227 V 4256.97 c 0,78.27 63.457,141.73 141.735,141.73" /><path
         id="path22"
         style="fill:#ffffff;fill-opacity:1;fill-rule:nonzero;stroke:none"
         d="M 855.395,855.391 V 3690.04 H 3690.04 V 855.391 H 855.395" /><path
         id="path24"
         style="fill:#231f20;fill-opacity:1;fill-rule:nonzero;stroke:none"
         d="M 1308.94,1601.85 H 1030.2 v 207.88 h 803.14 v -207.88 h -255.11 v -283.46 h 874.02 v 703.93 H 1748.3 l 420.48,420.47 h -184.25 l 425.2,425.2 H 2230.2 l 347.24,601.44 347.25,-601.44 h -188.98 l 425.2,-425.2 h -184.26 l 420.48,-420.47 h -708.66 v -703.93 h 694.49 V 1101.07 H 1030.2 v 217.32 h 4.72 179.53 94.49 v 283.46" /></g></g></svg>