<?xml version="1.0" encoding="UTF-8" standalone="no"?>
<svg
   xmlns:dc="http://purl.org/dc/elements/1.1/"
   xmlns:cc="http://creativecommons.org/ns#"
   xmlns:rdf="http://www.w3.org/1999/02/22-rdf-syntax-ns#"
   xmlns:svg="http://www.w3.org/2000/svg"
   xmlns="http://www.w3.org/2000/svg"
   viewBox="0 0 453.54666 453.54666"
   height="453.54666"
   width="453.54666"
   xml:space="preserve"
   id="svg3732"
   version="1.1"><metadata
     id="metadata3738"><rdf:RDF><cc:Work
         rdf:about=""><dc:format>image/svg+xml</dc:format><dc:type
           rdf:resource="http://purl.org/dc/dcmitype/StillImage" /><dc:title></dc:title></cc:Work></rdf:RDF></metadata><defs
     id="defs3736" /><g
     transform="matrix(1.3333333,0,0,-1.3333333,0,453.54667)"
     id="g3740"><g
       transform="scale(0.1)"
       id="g3742"><path
         id="path3744"
         style="fill:#ee293d;fill-opacity:1;fill-rule:nonzero;stroke:none"
         d="m 3401.57,1700.78 c 0,939.32 -761.46,1700.79 -1700.78,1700.79 C 761.469,3401.57 0,2640.1 0,1700.78 0,761.461 761.469,0 1700.79,0 2640.11,0 3401.57,761.461 3401.57,1700.78" /><path
         id="path3746"
         style="fill:#fcd006;fill-opacity:1;fill-rule:nonzero;stroke:none"
         d="m 3004.73,1700.78 c 0,720.15 -583.8,1303.94 -1303.94,1303.94 -720.145,0 -1303.938,-583.79 -1303.938,-1303.94 0,-720.139 583.793,-1303.936 1303.938,-1303.936 720.14,0 1303.94,583.797 1303.94,1303.936" /><path
         id="path3748"
         style="fill:#231f20;fill-opacity:1;fill-rule:nonzero;stroke:none"
         d="m 1106.89,2861.62 593.9,-593.91 593.91,593.91 c -372.95,190.8 -814.86,190.8 -1187.81,0" /><path
         id="path3750"
         style="fill:#231f20;fill-opacity:1;fill-rule:nonzero;stroke:none"
         d="m 1106.89,539.953 593.9,593.897 593.91,-593.897 c -372.95,-190.812 -814.86,-190.812 -1187.81,0" /></g></g></svg>