<?xml version="1.0" encoding="UTF-8" standalone="no"?>
<svg
   xmlns:dc="http://purl.org/dc/elements/1.1/"
   xmlns:cc="http://creativecommons.org/ns#"
   xmlns:rdf="http://www.w3.org/1999/02/22-rdf-syntax-ns#"
   xmlns:svg="http://www.w3.org/2000/svg"
   xmlns="http://www.w3.org/2000/svg"
   viewBox="0 0 453.54666 453.54666"
   height="453.54666"
   width="453.54666"
   xml:space="preserve"
   id="svg29"
   version="1.1"><metadata
     id="metadata35"><rdf:RDF><cc:Work
         rdf:about=""><dc:format>image/svg+xml</dc:format><dc:type
           rdf:resource="http://purl.org/dc/dcmitype/StillImage" /><dc:title></dc:title></cc:Work></rdf:RDF></metadata><defs
     id="defs33" /><g
     transform="matrix(1.3333333,0,0,-1.3333333,0,453.54667)"
     id="g37"><g
       transform="scale(0.1)"
       id="g39"><path
         id="path41"
         style="fill:#ee293d;fill-opacity:1;fill-rule:nonzero;stroke:none"
         d="m 3401.57,1700.8 c 0,939.31 -761.46,1700.78 -1700.78,1700.78 C 761.473,3401.58 0,2640.11 0,1700.8 0,761.484 761.473,0 1700.79,0 2640.11,0 3401.57,761.484 3401.57,1700.8" /><path
         id="path43"
         style="fill:#fcd006;fill-opacity:1;fill-rule:nonzero;stroke:none"
         d="m 3004.73,1700.8 c 0,720.14 -583.8,1303.93 -1303.94,1303.93 -720.145,0 -1303.938,-583.79 -1303.938,-1303.93 0,-720.155 583.793,-1303.945 1303.938,-1303.945 720.14,0 1303.94,583.79 1303.94,1303.945" /></g></g></svg>