<?xml version="1.0" encoding="UTF-8" standalone="no"?>
<!-- Created with Inkscape (http://www.inkscape.org/) -->

<svg
   version="1.1"
   id="svg2"
   width="608.37335"
   height="540.03998"
   viewBox="0 0 608.37335 540.03998"
   sodipodi:docname="a2-1.eps"
   xmlns:inkscape="http://www.inkscape.org/namespaces/inkscape"
   xmlns:sodipodi="http://sodipodi.sourceforge.net/DTD/sodipodi-0.dtd"
   xmlns="http://www.w3.org/2000/svg"
   xmlns:svg="http://www.w3.org/2000/svg">
  <defs
     id="defs6" />
  <sodipodi:namedview
     id="namedview4"
     pagecolor="#ffffff"
     bordercolor="#000000"
     borderopacity="0.25"
     inkscape:showpageshadow="2"
     inkscape:pageopacity="0.0"
     inkscape:pagecheckerboard="0"
     inkscape:deskcolor="#d1d1d1"
     showgrid="false" />
  <g
     id="g10"
     inkscape:groupmode="layer"
     inkscape:label="Page 1"
     transform="matrix(1.3333333,0,0,-1.3333333,0,540.04)">
    <g
       id="g12"
       transform="scale(0.1)">
      <path
         d="m 4194.33,0 c 131.66,0 253.3,70.2344 319.14,184.25 65.82,114.012 65.82,254.492 0,368.504 L 2600.55,3866.02 c -65.83,114.02 -187.48,184.25 -319.13,184.25 -131.66,0 -253.31,-70.23 -319.14,-184.25 L 49.3711,552.754 C -16.4531,438.742 -16.4531,298.262 49.3711,184.25 115.195,70.2344 236.852,0 368.508,0 H 4194.33"
         style="fill:#ee293d;fill-opacity:1;fill-rule:nonzero;stroke:none"
         id="path14" />
      <path
         d="M 4096.14,425.195 H 466.699 L 2281.42,3568.38 Z"
         style="fill:#fcd006;fill-opacity:1;fill-rule:nonzero;stroke:none"
         id="path16" />
      <path
         d="m 2655.59,538.586 h 453.55 V 1676.74 c 0,86.09 -45.92,165.62 -120.47,208.67 -74.55,43.04 -166.41,43.04 -240.96,0 L 2236.07,1590 v 733.32 l -226.78,226.77 -226.77,-226.77 V 1221.78 c 0,-86.08 45.92,-165.63 120.48,-208.67 74.54,-43.04 166.39,-43.04 240.94,0 l 511.65,295.41 V 538.586"
         style="fill:#231f20;fill-opacity:1;fill-rule:nonzero;stroke:none"
         id="path18" />
    </g>
  </g>
</svg>
