<?xml version="1.0" encoding="UTF-8" standalone="no"?>
<svg
   xmlns:dc="http://purl.org/dc/elements/1.1/"
   xmlns:cc="http://creativecommons.org/ns#"
   xmlns:rdf="http://www.w3.org/1999/02/22-rdf-syntax-ns#"
   xmlns:svg="http://www.w3.org/2000/svg"
   xmlns="http://www.w3.org/2000/svg"
   viewBox="0 0 303.69333 303.69333"
   height="303.69333"
   width="303.69333"
   xml:space="preserve"
   id="svg2"
   version="1.1"><metadata
     id="metadata8"><rdf:RDF><cc:Work
         rdf:about=""><dc:format>image/svg+xml</dc:format><dc:type
           rdf:resource="http://purl.org/dc/dcmitype/StillImage" /></cc:Work></rdf:RDF></metadata><defs
     id="defs6" /><g
     transform="matrix(1.3333333,0,0,-1.3333333,0,303.69333)"
     id="g10"><g
       transform="scale(0.1)"
       id="g12"><path
         id="path14"
         style="fill:#155196;fill-opacity:1;fill-rule:nonzero;stroke:none"
         d="M 5,5 H 2272.71 V 2272.71 H 5 V 5" /><path
         id="path16"
         style="fill:none;stroke:#155196;stroke-width:10;stroke-linecap:butt;stroke-linejoin:miter;stroke-miterlimit:4;stroke-dasharray:none;stroke-opacity:1"
         d="M 5,5 H 2272.71 V 2272.71 H 5 Z" /><path
         id="path18"
         style="fill:#ffffff;fill-opacity:1;fill-rule:nonzero;stroke:none"
         d="M 203.422,5 H 2074.29 c 109.59,0 198.42,88.8359 198.42,198.426 V 2074.29 c 0,109.59 -88.83,198.42 -198.42,198.42 H 203.422 c -52.621,0 -103.094,-20.9 -140.3087,-58.11 C 25.9023,2177.39 5,2126.92 5,2074.29 V 203.426 C 5,93.8359 93.8359,5 203.422,5" /><path
         id="path20"
         style="fill:#155196;fill-opacity:1;fill-rule:nonzero;stroke:none"
         d="M 203.422,90.0391 H 2074.29 c 62.62,0 113.38,50.7619 113.38,113.3869 V 2074.29 c 0,62.62 -50.76,113.39 -113.38,113.39 H 203.422 c -30.067,0 -58.91,-11.95 -80.176,-33.21 -21.258,-21.27 -33.2069,-50.11 -33.2069,-80.18 V 203.426 c 0,-30.078 11.9489,-58.914 33.2069,-80.172 21.266,-21.274 50.109,-33.2149 80.176,-33.2149" /><path
         id="path22"
         style="fill:#ffffff;fill-opacity:1;fill-rule:nonzero;stroke:none"
         d="M 967.109,288.465 H 656.969 V 1989.25 h 660.311 c 279.02,0 505.24,-226.2 505.24,-505.23 0,-279.04 -226.22,-505.235 -505.24,-505.235 H 967.109 v -690.32" /><path
         id="path24"
         style="fill:#155196;fill-opacity:1;fill-rule:nonzero;stroke:none"
         d="m 967.109,1288.93 v 390.18 h 350.171 c 107.74,0 195.08,-87.35 195.08,-195.09 0,-107.75 -87.34,-195.09 -195.08,-195.09 H 967.109" /></g></g></svg>