<?xml version="1.0" encoding="UTF-8" standalone="no"?>
<!-- Created with Inkscape (http://www.inkscape.org/) -->

<svg
   version="1.1"
   id="svg1"
   width="308.05334"
   height="124.65333"
   viewBox="0 0 308.05334 124.65333"
   xmlns="http://www.w3.org/2000/svg"
   xmlns:svg="http://www.w3.org/2000/svg">
  <defs
     id="defs1" />
  <g
     id="g1">
    <path
       id="path2"
       d="M 0,561.406 V 373.465 C 0,167.207 167.207,0 373.469,0 H 1936.91 c 206.25,0 373.46,167.207 373.46,373.465 v 187.941 c 0,206.262 -167.21,373.461 -373.46,373.461 H 373.469 C 167.207,934.867 0,767.668 0,561.406"
       style="fill:#231f20;fill-opacity:1;fill-rule:nonzero;stroke:none"
       transform="matrix(0.13333333,0,0,-0.13333333,0,124.65333)" />
    <path
       id="path3"
       d="M 72.2852,561.406 V 373.465 C 72.2852,293.586 104.02,216.98 160.496,160.5 216.98,104.012 293.59,72.2852 373.469,72.2852 H 1936.91 c 166.33,0 301.18,134.8438 301.18,301.1798 v 187.941 c 0,79.875 -31.73,156.485 -88.22,212.965 -56.47,56.484 -133.08,88.211 -212.96,88.211 H 373.469 c -166.34,0 -301.1838,-134.836 -301.1838,-301.176"
       style="fill:#fcd006;fill-opacity:1;fill-rule:nonzero;stroke:none"
       transform="matrix(0.13333333,0,0,-0.13333333,0,124.65333)" />
    <path
       id="path4"
       d="M 662.652,708.387 H 578.32 L 628.969,226.496 H 869.91 l -2.625,6.199 c -3.137,7.371 -4.375,15.422 -3.625,23.391 10.852,114.109 61.067,220.887 142.03,302.019 l 70.09,-70.097 c 3.45,-3.438 8.63,-4.473 13.13,-2.61 4.51,1.868 7.44,6.262 7.44,11.137 v 199.813 c 0,6.652 -5.39,12.039 -12.04,12.039 H 884.492 c -4.875,0 -9.265,-2.926 -11.133,-7.43 -1.867,-4.5 -0.832,-9.687 2.618,-13.133 l 70.086,-70.09 C 885,577.391 832.168,525.793 790.383,465.703 c -1.836,-4.484 -6.176,-7.422 -11.02,-7.48 -4.843,-0.051 -9.246,2.812 -11.172,7.246 L 662.652,708.387"
       style="fill:#231f20;fill-opacity:1;fill-rule:nonzero;stroke:none"
       transform="matrix(0.13333333,0,0,-0.13333333,0,124.65333)" />
    <path
       id="path5"
       d="m 467.438,226.496 h -240.95 l 207.266,481.891 h 84.332 L 467.438,226.496"
       style="fill:#231f20;fill-opacity:1;fill-rule:nonzero;stroke:none"
       transform="matrix(0.13333333,0,0,-0.13333333,0,124.65333)" />
  </g>
</svg>
