<?xml version="1.0" encoding="UTF-8" standalone="no"?>
<!-- Created with Inkscape (http://www.inkscape.org/) -->

<svg
   version="1.1"
   id="svg2"
   xml:space="preserve"
   width="15.146667"
   height="15.12"
   viewBox="0 0 15.146667 15.12"
   sodipodi:docname="badplats.svg"
   inkscape:version="1.1.1 (3bf5ae0d25, 2021-09-20)"
   xmlns:inkscape="http://www.inkscape.org/namespaces/inkscape"
   xmlns:sodipodi="http://sodipodi.sourceforge.net/DTD/sodipodi-0.dtd"
   xmlns="http://www.w3.org/2000/svg"
   xmlns:svg="http://www.w3.org/2000/svg"><sodipodi:namedview
     id="namedview7"
     pagecolor="#ffffff"
     bordercolor="#666666"
     borderopacity="1.0"
     inkscape:pageshadow="2"
     inkscape:pageopacity="0.0"
     inkscape:pagecheckerboard="0"
     showgrid="false"
     inkscape:zoom="57.738096"
     inkscape:cx="7.5773195"
     inkscape:cy="7.5513401"
     inkscape:window-width="2560"
     inkscape:window-height="1365"
     inkscape:window-x="0"
     inkscape:window-y="0"
     inkscape:window-maximized="1"
     inkscape:current-layer="svg2" /><defs
     id="defs6" /><g
     id="g8"
     transform="matrix(1.3333333,0,0,-1.3333333,0,15.12)"
     style="fill:#c44982;fill-opacity:1"><g
       id="g10"
       transform="scale(0.1)"
       style="fill:#c44982;fill-opacity:1"><path
         d="m 26.0977,13.6797 5.039,1.4375 5.0391,0.7226 5.4023,-0.7226 5.0391,-1.4375 5.3984,-2.1563 5.0391,-0.3593 5.4062,0.3593 5.3985,1.7969 5.039,1.4336 5.4024,0.7227 5.039,-0.3594 5.3985,-1.4375 5.4023,-1.5313 4.6758,-0.625 4.6796,0.3516 5.039,0.8086 5.039,-0.7109 V 0.625 L 109.348,1.62109 103.496,0.722656 98.8164,0.359375 93.7773,0.722656 88.7383,2.51953 83.3398,3.95703 78.3008,4.31641 72.8984,3.60156 67.8594,2.16016 62.4609,0.359375 57.0547,0 52.0156,0.359375 46.6172,2.51953 41.5781,3.95703 36.1758,4.67578 31.1367,3.95703 26.0977,2.51953 21.418,0.722656 16.7383,0 11.6992,0.359375 6.30078,1.25781 0,0.539063 0.0898438,12.0586 5.30859,12.5078 11.6992,11.5234 h 4.9492 l 4.5899,0.625 z m 30.6015,99.7183 h 2.6992 l 0.8125,-0.089 0.6289,-0.09 0.9844,-0.18 0.9961,-0.359 0.9883,-0.36 0.8125,-0.363 1.6172,-0.715 0.9023,-0.363 0.7188,-0.543 0.539,-0.449 0.7227,-0.629 0.8984,-0.899 0.8985,-0.898 0.6367,-0.723 0.4492,-0.535 0.5352,-0.726 0.3593,-0.895 0.7149,-1.621 0.3633,-0.813 0.3593,-0.992 0.3594,-0.984 0.1797,-0.9923 0.0977,-0.543 V 97.8281 96.75 95.2188 l -0.0977,-1.7071 -0.1797,-3.0625 -0.3594,-2.789 -0.625,-2.6133 -0.5468,-1.7071 -0.625,-1.5273 -0.6368,-1.3516 -0.625,-1.1718 -1.2578,-2.0743 -1.1718,-1.7968 -1.2579,-1.7071 -1.621,-1.8906 -0.7227,-0.9023 -0.5391,-0.6289 -0.2734,-0.4493 -0.0859,-0.1796 0.1836,-0.2696 0.625,-4.7695 4.2304,-2.4336 2.7031,-1.5273 2.5196,-1.4414 2.2461,-1.2579 3.2422,-1.7109 3.2421,-1.5352 2.0704,-0.9843 1.8867,-0.9961 1.707,-1.1719 2.6172,-1.9727 2.5195,-2.0703 0.8086,-0.7226 0.7149,-0.625 0.4609,-0.3633 0.2617,-0.2695 0.0899,-0.0899 -3.6836,0.9844 -2.168,0.3633 -1.3477,0.2734 -1.5312,0.3594 -1.7109,0.4492 -2.6055,0.5391 -2.6094,0.3593 h -2.5195 l -2.7031,-0.1835 -2.6094,-0.4493 -2.6055,-0.625 -2.5234,-0.8086 -2.7031,-0.8125 -2.6954,-0.7226 -2.7031,-0.3516 -2.6094,-0.0976 -2.6132,0.0976 -1.7071,0.1758 -1.7109,0.4492 -1.8008,0.625 -2.6992,0.9961 -2.5195,0.8086 -2.6094,0.6367 -2.6094,0.4492 -1.8047,0.1758 h -1.707 L 33.6563,48.9648 31.1367,48.5156 28.8008,48.0547 26.457,47.6055 24.1172,47.0703 22.5898,46.7109 21.3281,46.3477 20.3359,46.0742 19.0781,45.8984 17.457,45.7227 16.3789,45.625 18,46.7969 l 0.9883,0.6328 0.8086,0.5391 0.6328,0.4492 0.5391,0.3593 0.8085,0.4493 1.1719,0.7265 1.4414,0.8946 3.0547,1.9843 2.9766,1.711 2.9687,1.6133 3.1485,1.8046 1.707,0.8946 1.9844,0.9922 2.1562,0.9921 2.4336,1.0782 4.9453,2.1601 0.1797,2.9727 v 1.2578 0.8125 l -0.0859,0.5391 -0.1797,0.1796 -0.3633,-0.0898 -1.5273,0.4492 -1.4414,0.3633 -1.0782,0.4492 -0.9922,0.5352 -0.8984,0.8125 -1.6211,1.707 -0.7226,0.8125 -0.5352,0.7227 -0.8125,1.3476 -0.2695,0.543 -0.2735,0.8086 -0.2656,0.9883 -0.2695,1.8007 v 1.8868 l 0.1797,1.3554 0.5351,1.5274 0.8125,1.6211 0.4492,1.0781 0.2735,1.0781 v 1.2617 l -0.2735,1.2618 -0.4492,1.3515 -0.6289,1.7071 -0.3633,1.5312 -0.1797,1.5313 0.0938,1.3476 0.1797,1.1721 0.1797,0.988 0.1758,0.719 0.1796,0.453 0.7266,1.621 0.3594,0.895 0.5351,0.726 0.4532,0.535 0.6289,0.723 0.9023,0.898 0.8984,0.899 0.7188,0.629 0.543,0.453 0.7148,0.539 0.9024,0.363 1.621,0.715 0.8086,0.363 0.9883,0.36 0.9922,0.363 0.9922,0.176 0.6289,0.09 0.8125,0.089 h 1.2578 z m -25.5625,-75.9566 5.0391,0.7227 5.4023,-0.7227 5.0391,-1.4453 5.3984,-2.1602 5.0391,-0.3593 5.4062,0.3593 5.3985,1.7969 5.039,1.4492 5.4024,0.7188 5.039,-0.3594 5.3985,-1.4453 5.039,-1.7969 5.0391,-0.3633 4.6796,0.3633 5.488,0.4492 4.59,-0.625 V 22.6758 l -4.949,0.9101 -5.129,-0.5468 -4.6796,-0.3633 -5.0391,0.3633 -5.039,1.8047 -5.3985,1.4335 -5.039,0.3633 -5.4024,-0.7226 -5.039,-1.4375 -5.3985,-1.8047 -5.4062,-0.3516 -5.0391,0.3516 -5.3984,2.168 -5.0391,1.4335 -5.4023,0.7266 -5.0391,-0.7266 -5.039,-1.4335 -4.6797,-1.8047 -4.6797,-0.7149 -5.0391,0.3516 -6.21092,0.6328 -5.312499,-0.6328 v 11.3476 l 5.312499,0.625 6.21092,-0.8125 5.2188,-0.0859 4.7695,0.2734 4.4102,1.9727 5.039,1.4453"
         style="fill:#c44982;fill-opacity:1;fill-rule:nonzero;stroke:none"
         id="path12" /></g></g></svg>
