<?xml version="1.0" encoding="UTF-8" standalone="no"?>
<!-- Created with Inkscape (http://www.inkscape.org/) -->

<svg
   version="1.1"
   id="svg2"
   xml:space="preserve"
   width="22.719999"
   height="22.68"
   viewBox="0 0 22.719999 22.68"
   sodipodi:docname="bilparkering.svg"
   inkscape:version="1.1.1 (3bf5ae0d25, 2021-09-20)"
   xmlns:inkscape="http://www.inkscape.org/namespaces/inkscape"
   xmlns:sodipodi="http://sodipodi.sourceforge.net/DTD/sodipodi-0.dtd"
   xmlns="http://www.w3.org/2000/svg"
   xmlns:svg="http://www.w3.org/2000/svg"><sodipodi:namedview
     id="namedview8"
     pagecolor="#ffffff"
     bordercolor="#666666"
     borderopacity="1.0"
     inkscape:pageshadow="2"
     inkscape:pageopacity="0.0"
     inkscape:pagecheckerboard="0"
     showgrid="false"
     inkscape:zoom="38.492063"
     inkscape:cx="11.36598"
     inkscape:cy="11.32701"
     inkscape:window-width="2560"
     inkscape:window-height="1365"
     inkscape:window-x="0"
     inkscape:window-y="0"
     inkscape:window-maximized="1"
     inkscape:current-layer="g10" /><defs
     id="defs6" /><g
     id="g8"
     transform="matrix(1.3333333,0,0,-1.3333333,0,22.68)"><g
       id="g10"
       transform="scale(0.1)"><path
         d="m 90.2773,149.391 8.3711,-1.762 8.9296,-4.121 5.938,-4.961 2.129,-2.555 5.175,-6.66 3.34,-7.715 1.348,-12.762 -1.348,-8.648 -4.824,-11.0468 -4.531,-6.168 -4.473,-3.8984 -6.23,-3.9766 -9.7036,-3.6836 -12.4101,-0.9844 -8.4258,0.2813 0.1328,-49.1875 H 45.3477 45.2813 l -0.0665,127.352 h 0.1329 z M 68.6719,93.4766 v -0.0625 l 1.1328,-0.0821 9.5664,0.1446 13.9531,0.4297 4.7578,3.2617 3.481,5.168 1.406,6.027 0.078,1.133 -0.293,3.961 -2.559,5.606 -2.8942,4.253 -5.6055,3.047 -3.8867,0.067 -19.0742,0.496 H 68.6055 Z M 0,170.078 H 170.352 V 0 H 0 v 170.078"
         style="fill:#2f2f2f;fill-opacity:1;fill-rule:nonzero;stroke:none"
         id="path12" /><path
         d="m 90.2773,149.391 8.3711,-1.762 8.9296,-4.121 5.938,-4.961 2.129,-2.555 5.175,-6.66 3.34,-7.715 1.348,-12.762 -1.348,-8.648 -4.824,-11.0468 -4.531,-6.168 -4.473,-3.8984 -6.23,-3.9766 -9.7036,-3.6836 -12.4101,-0.9844 -8.4258,0.2813 0.1328,-49.1875 H 45.3477 45.2813 l -0.0665,127.352 h 0.1329 z M 68.6719,93.4766 v -0.0625 l 1.1328,-0.0821 9.5664,0.1446 13.9531,0.4297 4.7578,3.2617 3.481,5.168 1.406,6.027 0.078,1.133 -0.293,3.961 -2.559,5.606 -2.8942,4.253 -5.6055,3.047 -3.8867,0.067 -19.0742,0.496 h -0.1289 l 0.0664,-33.4494"
         style="fill:#ffffff;fill-opacity:1;fill-rule:nonzero;stroke:none"
         id="path14" /></g></g></svg>
