<?xml version="1.0" encoding="UTF-8" standalone="no"?>
<!-- Created with Inkscape (http://www.inkscape.org/) -->

<svg
   version="1.1"
   id="svg2"
   xml:space="preserve"
   width="7.5333333"
   height="7.5333333"
   viewBox="0 0 7.5333333 7.5333333"
   sodipodi:docname="branning.svg"
   inkscape:version="1.1.1 (3bf5ae0d25, 2021-09-20)"
   xmlns:inkscape="http://www.inkscape.org/namespaces/inkscape"
   xmlns:sodipodi="http://sodipodi.sourceforge.net/DTD/sodipodi-0.dtd"
   xmlns="http://www.w3.org/2000/svg"
   xmlns:svg="http://www.w3.org/2000/svg"><sodipodi:namedview
     id="namedview7"
     pagecolor="#ffffff"
     bordercolor="#666666"
     borderopacity="1.0"
     inkscape:pageshadow="2"
     inkscape:pageopacity="0.0"
     inkscape:pagecheckerboard="0"
     showgrid="false"
     inkscape:zoom="115.88496"
     inkscape:cx="3.7666667"
     inkscape:cy="3.762352"
     inkscape:window-width="2560"
     inkscape:window-height="1365"
     inkscape:window-x="0"
     inkscape:window-y="0"
     inkscape:window-maximized="1"
     inkscape:current-layer="g10" /><defs
     id="defs6" /><g
     id="g8"
     transform="matrix(1.3333333,0,0,-1.3333333,0,7.5333333)"><g
       id="g10"
       transform="scale(0.1)"><path
         d="M 51.0352,10.8008 52.3828,10.625 53.7305,10.0781 54.8125,9.26563 55.7148,8.19141 56.25,6.93359 56.4375,5.48828 V 5.39844 L 56.25,4.05078 55.7148,2.70703 54.9023,1.62109 53.8164,0.722656 52.5586,0.183594 51.125,0 H 51.0352 L 49.6797,0.183594 48.332,0.722656 47.2578,1.53516 46.3477,2.61719 45.8125,3.87891 45.6367,5.3125 v 0.08594 l 0.1758,1.35156 0.5352,1.35547 0.8086,1.07422 1.0859,0.89841 1.2617,0.5469 1.4336,0.1758 z m 0,45.4492 1.3476,-0.1758 1.3477,-0.5429 1.082,-0.8086 0.9023,-1.0821 0.5352,-1.2578 0.1875,-1.4414 V 50.8555 L 56.25,49.5039 55.7148,48.1523 54.9023,47.0703 53.8164,46.1719 52.5586,45.6328 51.125,45.4531 h -0.0898 l -1.3555,0.1797 -1.3477,0.5391 -1.0742,0.8086 -0.9101,1.082 -0.5352,1.2578 -0.1758,1.4414 v 0.0938 l 0.1758,1.3476 0.5352,1.3516 0.8086,1.0781 1.0859,0.8985 1.2617,0.5429 1.4336,0.1758 z M 5.67578,10.8008 7.01953,10.625 8.375,10.0781 9.45313,9.26563 10.3516,8.19141 10.8945,6.93359 11.0703,5.48828 V 5.39844 L 10.8945,4.05078 10.3516,2.70703 9.54297,1.62109 8.46094,0.722656 7.20313,0.183594 5.76172,0 H 5.67578 L 4.32031,0.183594 2.97266,0.722656 1.89453,1.53516 0.992188,2.61719 0.453125,3.87891 0.273438,5.3125 V 5.39844 L 0.453125,6.75 0.992188,8.10547 1.80078,9.17969 l 1.08203,0.89841 1.25782,0.5469 1.4414,0.1758 z m 0,45.4492 1.34375,-0.1758 1.35547,-0.5429 1.07813,-0.8086 0.89847,-1.0821 0.5429,-1.2578 0.1758,-1.4414 V 50.8555 L 10.8945,49.5039 10.3516,48.1523 9.54297,47.0703 8.46094,46.1719 7.20313,45.6328 5.76172,45.4531 H 5.67578 l -1.35547,0.1797 -1.34765,0.5391 -1.07813,0.8086 -0.902342,1.082 -0.539063,1.2578 -0.179687,1.4414 v 0.0938 l 0.179687,1.3476 0.539063,1.3516 0.808592,1.0781 1.08203,0.8985 1.25782,0.5429 1.4414,0.1758 z M 0,32.7617 h 23.7617 v 23.7617 h 8.6406 V 32.7617 H 56.5234 V 24.1211 H 32.4023 V 0 H 23.7617 V 24.1211 H 0 v 8.6406"
         style="fill:#2f2f2f;fill-opacity:1;fill-rule:nonzero;stroke:none"
         id="path12" /></g></g></svg>
