<?xml version="1.0" encoding="UTF-8" standalone="no"?>
<!-- Created with Inkscape (http://www.inkscape.org/) -->

<svg
   version="1.1"
   id="svg2"
   xml:space="preserve"
   width="19.173332"
   height="15.68"
   viewBox="0 0 19.173332 15.68"
   sodipodi:docname="bro.svg"
   inkscape:version="1.1.1 (3bf5ae0d25, 2021-09-20)"
   xmlns:inkscape="http://www.inkscape.org/namespaces/inkscape"
   xmlns:sodipodi="http://sodipodi.sourceforge.net/DTD/sodipodi-0.dtd"
   xmlns="http://www.w3.org/2000/svg"
   xmlns:svg="http://www.w3.org/2000/svg"><sodipodi:namedview
     id="namedview8"
     pagecolor="#ffffff"
     bordercolor="#666666"
     borderopacity="1.0"
     inkscape:pageshadow="2"
     inkscape:pageopacity="0.0"
     inkscape:pagecheckerboard="0"
     showgrid="false"
     inkscape:zoom="55.676019"
     inkscape:cx="9.5822224"
     inkscape:cy="7.8310196"
     inkscape:window-width="2560"
     inkscape:window-height="1365"
     inkscape:window-x="0"
     inkscape:window-y="0"
     inkscape:window-maximized="1"
     inkscape:current-layer="g10" /><defs
     id="defs6" /><g
     id="g8"
     transform="matrix(1.3333333,0,0,-1.3333333,0,15.68)"><g
       id="g10"
       transform="scale(0.1)"><path
         d="m 115.645,43.4766 0.273,-0.0782 0.547,-0.2734 27.168,-30.332 0.176,-0.4492 V 11.9727 11.6211 L 143.633,11.1719 134.004,0.371094 133.477,0.0976563 133.105,0 132.207,0.371094 109.082,26.1133 H 34.7344 L 11.6992,0.371094 11.1563,0.0976563 10.8008,0 9.89844,0.371094 0.179688,11.0742 0,11.8945 0.179688,12.6953 27.5391,43.2031 l 0.8984,0.2735 0.543,-0.0782 2.5195,0.1758 0.1797,0.0781 h 81.9923 l 1.973,-0.1757"
         style="fill:#2f2f2f;fill-opacity:1;fill-rule:nonzero;stroke:none"
         id="path12" /><path
         d="M 11.6992,117.367 34.7344,91.6328 h 74.3476 l 23.125,25.7342 0.898,0.27 h 0.372 l 0.527,-0.27 9.629,-10.797 0.176,-0.453 v -0.359 -0.356 l -0.176,-0.453 -27.168,-30.3279 -0.82,-0.3633 -1.973,-0.1797 H 31.6797 l -0.3633,0.0938 -2.25,0.1797 -0.6289,-0.1797 -0.8984,0.3554 L 0.179688,105.039 0,105.852 l 0.179688,0.808 9.718752,10.707 0.89846,0.274 h 0.3594 l 0.5429,-0.274"
         style="fill:#2f2f2f;fill-opacity:1;fill-rule:nonzero;stroke:none"
         id="path14" /></g></g></svg>
