<?xml version="1.0" encoding="UTF-8" standalone="no"?>
<!-- Created with Inkscape (http://www.inkscape.org/) -->

<svg
   version="1.1"
   id="svg2"
   xml:space="preserve"
   width="24.573334"
   height="15.493333"
   viewBox="0 0 24.573334 15.493333"
   sodipodi:docname="cykelled.svg"
   inkscape:version="1.1.1 (3bf5ae0d25, 2021-09-20)"
   xmlns:inkscape="http://www.inkscape.org/namespaces/inkscape"
   xmlns:sodipodi="http://sodipodi.sourceforge.net/DTD/sodipodi-0.dtd"
   xmlns="http://www.w3.org/2000/svg"
   xmlns:svg="http://www.w3.org/2000/svg"><sodipodi:namedview
     id="namedview12"
     pagecolor="#ffffff"
     bordercolor="#666666"
     borderopacity="1.0"
     inkscape:pageshadow="2"
     inkscape:pageopacity="0.0"
     inkscape:pagecheckerboard="0"
     showgrid="false"
     inkscape:zoom="48.141616"
     inkscape:cx="12.286667"
     inkscape:cy="7.7479742"
     inkscape:window-width="2560"
     inkscape:window-height="1365"
     inkscape:window-x="0"
     inkscape:window-y="0"
     inkscape:window-maximized="1"
     inkscape:current-layer="g10" /><defs
     id="defs6" /><g
     id="g8"
     transform="matrix(1.3333333,0,0,-1.3333333,0,15.493333)"><g
       id="g10"
       transform="scale(0.1)"><path
         d="m 126.816,116.191 h -9.714 l -0.825,-0.168 -0.797,-0.371 -0.734,-0.539 -0.535,-0.734 -0.461,-0.707 -0.254,-0.797 -0.09,-0.902 v -0.539 l 0.266,-0.911 0.371,-0.82 0.539,-0.621 0.613,-0.629 0.711,-0.371 0.91,-0.25 0.821,-0.086 h 7.285 l 7.363,-4.961 0.09,-0.078 0.203,-0.09 0.168,-0.203 0.445,-0.078 0.102,-0.094 0.445,-0.168 -0.711,-0.359 -7.566,-2.5314 h -10.637 -0.535 l -0.883,-0.1719 -0.816,-0.3711 -0.617,-0.5234 -0.633,-0.7422 -0.449,-0.7109 -0.286,-0.8243 v -0.875 -0.5429 l 0.176,-0.9063 0.371,-0.7304 0.536,-0.711 0.617,-0.6289 0.82,-0.3594 0.82,-0.2617 0.879,-0.1133 h 11.34 0.281 0.176 0.09 l 0.906,0.2032 v 0.082 l 2.805,0.9062 V 85.043 H 64.9648 l 0.2071,0.5625 0.0781,0.8789 v 4.2265 h 1.3359 0.6563 l 0.7851,0.2032 0.8204,0.3593 0.707,0.543 0.543,0.707 0.4492,0.7071 0.2929,0.8203 0.0782,0.914 -0.0782,0.5391 -0.2031,0.9024 -0.3398,0.7968 -0.5352,0.6172 -0.6562,0.6328 -0.793,0.3594 -0.8281,0.293 -0.8985,0.0781 H 55.9766 l -7.8164,2.6094 -0.543,0.168 -0.9063,0.113 -0.8203,-0.113 -0.9062,-0.246 -0.7071,-0.461 -0.6289,-0.621 -0.539,-0.7424 -0.3594,-0.7851 -0.1719,-0.543 v -0.8164 l 0.0782,-0.9141 0.2812,-0.7851 0.4336,-0.836 0.5352,-0.6171 0.7421,-0.4493 0.7891,-0.3711 L 54,90.9141 54.2578,90.8242 h 0.1914 l 0.086,-0.1133 h 0.8242 0.0898 1.2383 v -4.2265 -0.6211 l 0.2891,-0.8203 0.3632,-0.8008 0.4297,-0.6172 -0.082,-0.2031 -0.1758,-0.168 -0.0781,-0.082 v -0.086 l -0.0938,-0.1132 v -0.0938 l -11.9921,-20.2383 -0.8985,0.3711 -2.2422,0.8008 -2.3476,0.543 -2.4102,0.4492 -2.4375,0.2773 -2.4453,0.0938 H 32.3086 L 29.8789,65.082 27.4375,64.8047 25.1055,64.3555 22.7539,63.6406 20.4375,62.8125 18.2813,61.8203 16.0977,60.7539 14.0273,59.4141 12.1563,57.9727 10.3477,56.3516 8.64844,54.6289 7.03125,52.8516 5.57422,50.8594 4.30859,48.7891 3.22656,46.6289 2.23438,44.4727 1.44922,42.1211 0.820313,39.7734 0.371094,37.4414 0.0898438,35.0078 0,32.5664 v -0.332 L 0.0898438,29.7969 0.449219,27.4414 0.90625,25.0273 1.52734,22.6836 2.34766,20.4375 3.31641,18.1719 4.50781,16.1016 5.74609,14.0352 7.28516,12.0508 8.81641,10.2617 10.5195,8.5625 12.418,7.03125 14.3984,5.58594 16.3789,4.30469 18.5352,3.15234 20.7773,2.14844 23.0469,1.44531 25.3672,0.820313 27.8086,0.371094 30.25,0.078125 32.5664,0 h 0.3711 l 2.4453,0.078125 2.4258,0.292969 2.3281,0.546875 2.3516,0.617191 2.332,0.8164 2.1485,0.98828 2.1796,1.17188 2.0743,1.24219 1.8632,1.45312 1.8204,1.60156 1.6992,1.73831 1.6133,1.789 1.4492,1.9805 1.25,2.0703 1.0976,2.1602 0.9922,2.2539 0.8008,2.2461 0.6172,2.3242 0.4609,2.3516 0.0781,0.625 h 30.1641 0.0859 2.5977 0.207 0.086 0.2539 l 0.2929,0.0781 h 0.1641 l 0.1875,0.1211 h 0.2656 l 0.1641,0.0859 0.207,0.0781 0.1641,0.086 0.168,0.1758 0.2813,0.1992 0.176,0.0781 0.195,0.0938 0.078,0.0781 v 0.1094 l 0.098,0.0898 0.273,0.2617 0.266,0.2852 0.078,0.0781 0.203,0.3711 0.09,0.2539 0.078,0.0742 v 0.1016 l 0.086,0.3711 0.078,0.2695 v 0.0898 l 0.09,0.0899 v 0.6133 0.0859 0.207 0.1641 0.1797 l -0.09,0.2695 v 0.1758 l -0.078,0.2734 v 0.1758 l -0.086,0.0899 29.063,35.2929 1.726,-10.4297 -1.355,-0.9921 -1.887,-1.6211 -1.719,-1.7305 -1.531,-1.7813 -1.445,-1.9921 -1.25,-2.0586 -1.164,-2.1602 -0.911,-2.1562 -0.816,-2.3516 -0.625,-2.3555 -0.461,-2.3242 -0.242,-2.4336 -0.09,-2.4414 v -0.332 l 0.09,-2.4375 0.332,-2.3555 0.445,-2.4141 0.637,-2.3437 0.82,-2.2461 0.989,-2.2656 1.16,-2.0703 1.281,-2.0664 1.441,-1.9844 1.621,-1.7891 1.704,-1.6992 1.894,-1.53125 1.875,-1.44531 2.067,-1.28125 2.179,-1.15235 2.238,-1.0039 2.247,-0.70313 2.339,-0.624997 2.446,-0.449219 2.332,-0.292969 L 151.648,0 h 0.372 l 2.406,0.078125 2.437,0.292969 2.356,0.539062 2.336,0.625004 2.254,0.8164 2.238,0.98828 2.156,1.17188 1.985,1.24219 1.992,1.4414 1.777,1.61328 1.734,1.73831 1.614,1.789 1.445,1.9688 1.25,2.0742 1.074,2.168 0.996,2.2539 0.821,2.2383 0.617,2.332 0.457,2.3516 0.254,2.4453 0.09,2.3984 v 0.3711 l -0.168,2.4336 -0.286,2.4414 -0.425,2.3242 -0.657,2.3555 -0.793,2.2422 -0.996,2.2383 -1.148,2.0703 -1.367,2.0703 -1.449,1.9726 -1.532,1.8282 -1.777,1.6953 -1.824,1.5351 -1.985,1.4375 -2.07,1.3594 -2.062,1.0781 -2.247,0.9922 -2.351,0.8008 -2.324,0.5391 -2.352,0.4492 -2.402,0.2812 -2.446,0.0899 h -0.359 l -2.332,-0.0899 -2.441,-0.2812 -2.422,-0.4492 -2.246,-0.711 -1.36,-0.457 -1.543,9.4375 v 5.332 3.0625 0.086 13.8593 l -0.078,0.1719 3.321,1.6992 0.363,0.1993 h 0.086 l 0.109,0.0781 0.633,0.5429 0.078,0.0938 2.688,2.6839 0.093,0.113 0.11,0.09 0.09,0.078 0.078,0.168 0.172,0.293 0.199,0.172 v 0.078 l 0.176,0.199 0.085,0.34 0.079,0.203 v 0.078 l 0.109,0.172 v 0.086 0.207 l 0.098,0.164 v 0.449 0.094 0.078 0.371 0.278 l -0.098,0.172 v 0.085 l -0.109,0.286 -0.079,0.336 -0.085,0.093 v 0.11 l -0.083,0.168 -0.292,0.371 v 0.078 l -0.079,0.172 -0.371,0.371 -0.093,0.086 -0.082,0.172 h -0.165 l -0.117,0.199 -0.254,0.172 -0.168,0.078 -0.203,0.113 -0.168,0.094 -0.367,0.164 h -0.078 l -0.285,0.086 -0.086,0.086 -7.629,2.519 -7.859,5.219 -0.079,0.113 h -0.089 l -0.45,0.336 h -0.086 -0.082 l -0.371,0.2 -0.281,0.093 h -0.164 l -0.266,0.078"
         style="fill:#2f2f2f;fill-opacity:1.0;fill-rule:nonzero;stroke:none"
         id="path12" /><path
         d="M 61.457,73.1602 89.1758,36.8281 H 64.8867 l -0.0859,0.9844 -0.4531,2.332 -0.625,2.3477 -0.8282,2.2422 -0.9843,2.2383 -1.1641,2.0703 -1.3594,2.0703 -1.4179,1.9726 -1.5274,1.8282 -1.7344,1.6953 -1.8632,1.5351 -0.2071,0.1641 8.8203,14.8516"
         style="fill:#ffffff;fill-opacity:1;fill-rule:nonzero;stroke:none"
         id="path14" /><path
         d="M 125.625,76.5117 96.5781,41.2109 69.5547,76.5117 Z"
         style="fill:#ffffff;fill-opacity:1;fill-rule:nonzero;stroke:none"
         id="path16" /><path
         d="m 48.332,50.8594 1.4493,-1.3672 1.4414,-1.5313 1.2421,-1.7031 1.086,-1.6992 0.9844,-1.8906 0.7109,-1.9063 0.6523,-1.9531 0.4493,-1.9805 H 40.0508 l 8.2812,14.0313"
         style="fill:#ffffff;fill-opacity:1;fill-rule:nonzero;stroke:none"
         id="path18" /><path
         d="m 33.0195,56.6875 2.0703,-0.0781 2.0665,-0.3672 1.9921,-0.4219 1.8086,-0.664 -11.9922,-20.4024 -0.164,-0.3711 -0.0899,-0.0781 -0.1718,-0.4688 -0.1094,-0.3515 v -0.0977 l -0.0781,-0.8203 v -0.2539 l 0.0781,-0.2812 v -0.1641 -0.1797 l 0.1094,-0.2695 0.0898,-0.2657 0.082,-0.207 v -0.0742 l 0.1758,-0.2539 0.0781,-0.207 0.1172,-0.1641 0.0899,-0.1992 0.164,-0.1641 0.1719,-0.168 0.1133,-0.1835 0.168,-0.1094 0.1679,-0.0781 0.2032,-0.2618 0.2617,-0.1093 0.0781,-0.086 0.2773,-0.1758 h 0.168 v -0.0781 l 0.461,-0.0859 0.371,-0.1211 0.9024,-0.0781 h 0.0898 23.5782 V 28.0938 L 55.8125,26.0234 55.1563,24.043 54.3711,22.1367 53.3789,20.3516 52.207,18.5469 50.9375,16.9219 49.4883,15.3906 47.9609,14.0352 46.3477,12.7852 44.5625,11.6211 42.75,10.7109 40.7578,9.89063 38.7773,9.27734 36.8203,8.80859 34.75,8.5625 32.5664,8.47656 h -0.3398 l -2.0664,0.16407 -2.0704,0.26562 -1.9804,0.44922 -1.9922,0.74223 -1.8984,0.7812 -1.8711,1.0039 -1.7305,1.0664 -1.6094,1.2891 -1.5273,1.4336 -1.4532,1.5039 -1.25,1.7422 -1.0664,1.6992 L 10.707,22.5195 9.88672,24.3828 9.34766,26.3672 8.89453,28.4258 8.64844,30.5 8.55859,32.5664 v 0.3711 l 0.08985,2.0703 0.24609,2.0742 0.54297,2.0664 0.6523,1.9844 0.8008,1.9063 0.9844,1.7734 1.1641,1.8164 1.2695,1.6133 1.4492,1.5312 1.5313,1.3399 1.6172,1.2695 1.7773,1.1719 1.8281,0.8984 1.9766,0.8203 1.957,0.625 1.9844,0.4571 2.0703,0.2539 2.0664,0.0859 0.4531,-0.0078"
         style="fill:#ffffff;fill-opacity:1;fill-rule:nonzero;stroke:none"
         id="path20" /><path
         d="m 152.02,56.6875 2.16,-0.0781 1.984,-0.3672 2.066,-0.4219 1.977,-0.664 1.883,-0.7813 1.887,-0.9961 1.707,-1.1719 1.613,-1.2695 1.531,-1.4453 1.445,-1.5313 1.282,-1.7031 1.074,-1.6992 0.996,-1.8906 0.699,-1.9063 0.625,-1.9531 0.461,-2.0703 0.281,-2.1016 0.09,-2.0703 v -0.332 l -0.09,-2.0664 -0.371,-2.0742 -0.457,-2.0704 -0.613,-1.9804 -0.832,-1.9063 -0.996,-1.7851 -1.152,-1.8047 -1.25,-1.625 -1.434,-1.5313 -1.535,-1.3554 -1.621,-1.25 -1.817,-1.1641 -1.875,-0.9102 -1.883,-0.82027 -1.996,-0.61329 -2.066,-0.46875 -2.07,-0.24609 -2.075,-0.08594 h -0.359 l -2.07,0.16407 -2.071,0.26562 -1.992,0.44922 -1.98,0.74223 -1.953,0.7812 -1.821,1.0039 -1.695,1.0664 -1.73,1.2891 -1.536,1.4336 -1.336,1.5039 -1.269,1.7422 -1.082,1.6992 -0.988,1.8906 -0.789,1.875 -0.625,1.9727 -0.454,2.0703 -0.281,2.0742 v 2.0664 0.3711 l 0.078,2.0703 0.285,2.0742 0.536,2.0664 0.632,1.9844 0.825,1.9063 0.984,1.7734 1.086,1.8164 1.328,1.6133 0.817,0.918 1.898,-11.3477 0.098,-0.2852 0.078,-0.5351 0.164,-0.3711 0.207,-0.4492 0.254,-0.4297 0.176,-0.2813 h 0.105 l 0.168,-0.1679 0.371,-0.3711 0.074,-0.0781 11.352,-8.4883 0.449,-0.3321 0.789,-0.3711 0.918,-0.164 0.82,0.0898 0.899,0.1641 0.801,0.2812 0.703,0.5391 0.547,0.625 0.363,0.457 0.281,0.7813 0.176,0.918 v 0.9023 l -0.176,0.8008 -0.281,0.8203 -0.539,0.6992 -0.625,0.5508 -10,7.5664 -2.332,13.9375 1.621,0.6523 1.98,0.625 1.985,0.4532 2.07,0.2578 2.066,0.0781 h 0.372"
         style="fill:#ffffff;fill-opacity:1;fill-rule:nonzero;stroke:none"
         id="path22" /></g></g></svg>
