<?xml version="1.0" encoding="UTF-8" standalone="no"?>
<!-- Created with Inkscape (http://www.inkscape.org/) -->

<svg
   version="1.1"
   id="svg2"
   xml:space="preserve"
   width="16.626667"
   height="14.96"
   viewBox="0 0 16.626667 14.96"
   sodipodi:docname="flygp_ovrig.svg"
   inkscape:version="1.1.1 (3bf5ae0d25, 2021-09-20)"
   xmlns:inkscape="http://www.inkscape.org/namespaces/inkscape"
   xmlns:sodipodi="http://sodipodi.sourceforge.net/DTD/sodipodi-0.dtd"
   xmlns="http://www.w3.org/2000/svg"
   xmlns:svg="http://www.w3.org/2000/svg"><sodipodi:namedview
     id="namedview7"
     pagecolor="#ffffff"
     bordercolor="#666666"
     borderopacity="1.0"
     inkscape:pageshadow="2"
     inkscape:pageopacity="0.0"
     inkscape:pagecheckerboard="0"
     showgrid="false"
     inkscape:zoom="58.355615"
     inkscape:cx="8.3196793"
     inkscape:cy="7.4714319"
     inkscape:window-width="2560"
     inkscape:window-height="1365"
     inkscape:window-x="0"
     inkscape:window-y="0"
     inkscape:window-maximized="1"
     inkscape:current-layer="g8" /><defs
     id="defs6" /><g
     id="g8"
     transform="matrix(1.3333333,0,0,-1.3333333,0,14.96)"><g
       id="g10"
       transform="scale(0.1)"
       style="fill:#2f2f2f;fill-opacity:1.0"><path
         d="m 124.586,57.9727 0.066,-1.7774 v -1.2695 l -0.136,-0.9219 -0.215,-0.4297 -0.36,-0.6289 -0.285,-0.707 -0.273,-0.5117 -0.645,-0.711 -0.566,-0.625 -0.633,-0.4297 -0.566,-0.2734 -0.637,-0.4297 -0.711,-0.2851 -0.566,-0.1446 -0.704,-0.2148 -0.429,-0.1367 h -0.285 -0.575 -0.839 l -1.282,-0.1368 -1.699,-0.0781 h -1.98 -2.344 -2.688 -3.046 -0.645 -1.199 -1.3479 -1.7695 -2.0586 -2.3438 -7.8633 l -1.914,-10.7695 -0.6328,-2.832 -0.4297,-2.5508 -0.5,-2.2071 -0.2149,-1.7578 -0.2812,-1.5703 -0.207,-1.0586 L 81.6445,24.875 81.2852,22.9688 81,21.2695 80.6484,19.5703 80.3555,18.1563 80.082,16.582 79.9453,15.2344 79.5859,13.8945 79.3711,12.6172 79.0859,11.4063 78.9414,10.418 78.6563,9.43359 78.5977,8.57422 78.3828,7.87109 78.3164,7.23828 78.2383,6.58984 78.1016,6.17188 78.0234,5.74219 V 5.45703 L 77.9531,5.17578 78.0234,5.10547 V 4.90234 4.54297 L 77.8867,4.25781 V 4.1875 L 77.7383,3.89453 77.6719,3.69141 77.5234,3.47656 V 3.39844 L 77.3867,3.18359 77.1133,2.77344 77.0273,2.48047 76.8984,2.41406 76.7539,2.19922 76.6836,2.12891 76.4688,1.91406 76.1094,1.48438 75.9727,1.35547 75.6875,1.21094 75.543,1.14063 H 75.3945 L 75.1797,0.925781 74.7695,0.710938 74.5547,0.5 74.4102,0.429688 74.1953,0.351563 h -0.1367 -0.293 L 73.3555,0.144531 73.1406,0.0664063 H 72.9922 L 72.7109,0 h -0.2148 -0.2852 -0.1445 -0.4101 -0.293 l -0.2149,0.0664063 h -0.1367 -0.2851 -0.293 L 70.1602,0 H 69.8086 L 69.3789,0.0664063 68.5195,0.214844 67.8164,0.5 67.1875,0.925781 66.7578,1.0625 l -0.2773,0.29297 -0.4297,0.41016 -0.3633,0.29296 -0.207,0.35547 -0.1367,0.28125 -0.1485,0.21485 -0.1367,0.42187 -0.2109,0.35938 -0.0821,0.49609 -0.414,1.20313 -0.3633,1.6289 -0.2774,0.85156 -0.1445,0.98438 -0.2851,1.06641 -0.2774,1.21092 -0.3516,1.2695 -0.2929,1.4141 -0.3477,1.3516 -0.3594,1.6289 -0.8476,3.3281 -0.707,3.7617 -0.2774,0.6446 -0.2148,1.2695 -0.293,1.414 -0.5625,1.9141 -0.4297,2.2774 -0.6289,2.6171 -0.6406,3.0352 -2.6992,11.125 -37.2735,1.4258 -0.3437,-3.9649 -0.1485,-1.8476 -0.0664,-1.4844 -0.1484,-1.0039 -0.1367,-0.625 -0.1446,-1.9922 -0.0703,-0.918 V 36.9922 L 15.9414,36.2891 15.8125,35.7227 15.7266,35.0781 V 34.7383 34.0898 L 15.6641,33.8086 V 33.7305 33.5234 33.1055 L 15.5977,32.8242 V 32.7461 32.3125 L 15.4492,32.0313 15.3125,31.9609 15.2344,31.75 15.0977,31.6016 14.957,31.1914 14.7422,30.9766 14.6719,30.6914 14.457,30.3984 14.2422,30.2617 14.0273,29.9805 13.8164,29.6875 13.6836,29.4141 13.6055,29.3438 13.3203,29.2773 13.1094,29.0625 12.8281,28.9844 12.6133,28.7695 12.2656,28.7031 12.1172,28.6328 12.0508,28.418 11.7695,28.3477 11.4805,28.2695 11.0586,28.0547 h -0.293 L 10.4883,28 10.2734,27.9297 H 9.92578 9.64453 9.35156 9.06641 L 8.78906,28 H 8.35938 8.08203 L 8.01172,28.0547 7.65234,28.2031 H 7.30469 L 7.15625,28.2695 7.02344,28.3477 6.80859,28.5625 6.59766,28.7031 6.23438,28.7695 5.95313,28.9844 5.73828,29.1992 5.60547,29.3438 5.24219,29.6289 4.96094,29.7734 4.75,29.9805 l -0.06641,0.2031 -0.07812,0.0781 -0.28516,0.3555 -0.0664,0.2812 -0.21485,0.2149 -0.0625,0.2148 -0.14843,0.2735 -0.06641,0.0781 -0.07031,0.2812 -0.07813,0.2852 -0.21484,0.3594 v 0.2851 l -0.07031,0.1367 v 0.0782 h -0.0625 v 0.2031 0.3555 0.2109 l -0.14454,0.0703 v 0.293 l -0.07031,0.3515 v 0.3516 l -0.14453,1.1328 -0.21484,1.4922 -0.28125,0.8438 -0.13282,0.9961 -0.21484,0.9921 -0.07812,1.2032 -0.28516,2.3437 -0.42578,2.2656 -0.281252,1.836 -0.132813,1.6406 -0.214844,1.2695 -0.078125,0.918 -0.214843,0.5 -0.136719,0.5703 -0.1484377,0.707 v 0.6993 L 0,54.6445 0.0664063,54.7813 v 0.4921 0.3594 0.711 l 0.1484377,0.6367 0.066406,0.7148 0.285156,0.5625 v 0.1445 0.1993 L 0.644531,58.75 v 0.5 l 0.0625,0.3555 0.214844,1.125 0.070313,0.7109 0.066402,0.8516 0.14844,0.9258 0.14453,0.9882 0.21485,1.0664 0.13281,1.1289 0.36328,2.3399 0.28125,2.3359 0.34766,1.8477 0.14453,1.4844 0.14844,1.1367 v 0.4922 l 0.13671,0.2851 v 0.3594 0.2148 l 0.0625,0.211 v 0.2812 l 0.07813,0.3477 0.21484,0.5 0.07032,0.1445 v 0.2149 0.0664 l 0.0664,0.0664 v 0.1445 l 0.07813,0.1484 0.19922,0.2813 0.08593,0.2812 0.20703,0.1446 0.07032,0.2851 0.21484,0.0664 0.13672,0.211 0.21094,0.1445 0.14453,0.2852 0.21484,0.2812 0.35156,0.2109 0.28907,0.0704 0.28125,0.1445 0.35156,0.2148 0.14453,0.1328 0.21484,0.2149 0.06641,0.0664 0.28125,0.1484 0.35938,0.0664 0.28125,0.0782 H 8.01172 8.22656 8.4375 l 0.21484,0.0703 h 0.35157 0.42578 0.13672 0.29297 0.1289 0.14842 0.0664 l 0.3633,-0.0703 0.3477,-0.0782 h 0.2812 0.3633 l 0.2109,-0.1367 0.0664,-0.0781 0.2813,-0.1992 0.3594,-0.1446 0.2148,-0.0703 0.2031,-0.1445 0.2149,-0.0703 0.0781,-0.1445 0.2813,-0.2149 0.1367,-0.2773 0.2929,-0.1367 0.211,-0.2188 0.0664,-0.0742 0.1367,-0.2188 0.1445,-0.1992 0.1485,-0.293 0.2148,-0.2148 0.0664,-0.2773 0.0625,-0.0704 0.1485,-0.2812 0.0703,-0.2148 0.1445,-0.2774 0.1367,-0.3633 v -0.1367 l 0.0781,-0.0781 v -0.0625 -0.0703 -0.2149 l 0.0704,-0.2812 v -0.3555 l 0.0625,-0.2851 v -0.7071 l 0.1445,-0.9219 0.1367,-1.207 0.1484,-1.4844 0.2813,-1.8476 0.1484,-0.707 0.0625,-0.9219 0.0703,-1.2696 0.211,-1.6328 0.2148,-3.4062 37.9102,1.4922 2.2773,11.1992 0.6289,2.9687 0.5743,2.5547 0.4921,2.2696 0.3516,1.914 0.293,1.4844 0.2773,1.1367 0.2149,0.7774 0.7773,3.6054 0.707,3.3477 0.6446,2.9687 0.6289,2.484 0.3593,2.329 0.3516,1.847 0.4219,1.492 0.1484,1.129 0.1367,0.785 v 0.286 l 0.1446,0.062 0.0703,0.359 0.2773,0.286 v 0.214 l 0.0782,0.063 v 0.07 l 0.0664,0.078 0.2851,0.352 0.2149,0.277 0.1484,0.215 0.2773,0.067 0.0664,0.078 0.1485,0.136 0.2148,0.219 0.2774,0.278 0.5,0.214 0.207,0.145 0.2852,0.148 0.4961,0.2 0.3632,0.148 0.3399,0.066 h 0.1484 l 0.2813,0.079 h 0.2851 0.4297 0.3594 0.1953 0.3633 l 0.1445,-0.079 0.1367,0.079 h 0.1485 0.4961 0.1289 0.2148 0.2813 0.4296 l 0.3633,-0.079 0.2813,-0.066 0.2734,-0.148 h 0.1485 l 0.3515,-0.2 0.2813,-0.148 0.2929,-0.067 0.0703,-0.078 0.2735,-0.214 0.1445,-0.137 0.2149,-0.141 0.4218,-0.355 0.2149,-0.145 0.1445,-0.215 0.3516,-0.347 0.1367,-0.282 0.1484,-0.148 0.2149,-0.277 v -0.078 l 0.0664,-0.208 0.2148,-0.421 0.2149,-0.364 v -0.215 l 0.1367,-0.277 0.0781,-0.137 v -0.293 l 0.0703,-0.066 0.0664,-0.348 0.1485,-0.64 0.1367,-1.071 0.293,-1.55 0.125,-0.778 0.2148,-1 0.3633,-2.1989 0.5664,-2.3359 0.418,-2.9024 0.6367,-3.332 0.2929,-1.6289 0.3516,-1.8438 0.1445,-0.7109 0.2149,-1.1367 0.2734,-1.418 0.2149,-1.7656 0.5,-2.1914 0.4296,-2.625 0.5547,-2.836 1.9141,-10.8437 h 7.8633 2.4101 2.0625 1.8438 1.3472 1.055 0.715 3.047 2.762 2.336 2.058 l 1.699,0.0703 h 1.282 l 0.839,-0.0703 h 0.575 0.351 l 0.703,-0.2149 1.7,-0.4921 1.496,-0.9258 1.132,-1.2696 0.918,-1.4179 0.645,-1.6328"
         style="fill:#2f2f2f;fill-opacity:1.0;fill-rule:nonzero;stroke:none"
         id="path12" /></g></g></svg>
