<?xml version="1.0" encoding="UTF-8" standalone="no"?>
<!-- Created with Inkscape (http://www.inkscape.org/) -->

<svg
   version="1.1"
   id="svg2"
   xml:space="preserve"
   width="20.613333"
   height="17.786667"
   viewBox="0 0 20.613333 17.786667"
   sodipodi:docname="flygp_militar.svg"
   inkscape:version="1.1.1 (3bf5ae0d25, 2021-09-20)"
   xmlns:inkscape="http://www.inkscape.org/namespaces/inkscape"
   xmlns:sodipodi="http://sodipodi.sourceforge.net/DTD/sodipodi-0.dtd"
   xmlns="http://www.w3.org/2000/svg"
   xmlns:svg="http://www.w3.org/2000/svg"><sodipodi:namedview
     id="namedview7"
     pagecolor="#ffffff"
     bordercolor="#666666"
     borderopacity="1.0"
     inkscape:pageshadow="2"
     inkscape:pageopacity="0.0"
     inkscape:pagecheckerboard="0"
     showgrid="false"
     inkscape:zoom="49.081709"
     inkscape:cx="10.299152"
     inkscape:cy="8.8831463"
     inkscape:window-width="2560"
     inkscape:window-height="1365"
     inkscape:window-x="0"
     inkscape:window-y="0"
     inkscape:window-maximized="1"
     inkscape:current-layer="g8" /><defs
     id="defs6" /><g
     id="g8"
     transform="matrix(1.3333333,0,0,-1.3333333,0,17.786667)"><g
       id="g10"
       transform="scale(0.1)"
       style="fill:#2f2f2f;fill-opacity:1.0"><path
         d="m 148.945,69.75 0.45,-0.2734 0.722,-0.2657 0.899,-0.5429 1.172,-0.5391 2.441,-1.2578 -2.441,-1.1719 -1.075,-0.5429 -0.898,-0.5391 -0.723,-0.2656 -0.449,-0.2735 -0.723,-0.3554 -0.722,-0.2774 -1.172,-0.6328 -0.449,-0.2617 -0.45,-0.1875 -0.351,-0.2617 -0.371,-0.0899 -0.274,-0.1875 -0.254,-0.0859 -0.547,-0.1758 -0.82,-0.2734 -0.351,-0.0899 h -0.176 -0.449 -0.723 -0.996 l -1.348,-0.0859 h -1.699 -1.895 -2.246 -2.519 -2.793 -3.164 l -3.496,-0.0977 h -0.645 -0.898 -1.172 -1.426 -1.797 l -2.07,0.0977 h -2.344 -2.695 L 96.6602,61.1992 87.9336,47.8828 86.0391,45.0898 84.418,42.5664 82.8867,40.3203 81.5391,38.3398 80.3711,36.6328 79.4688,35.2813 78.75,34.1094 78.207,33.3008 77.8516,32.7539 76.5938,30.957 75.5078,29.25 74.3398,27.5391 73.3516,26.0078 72.2695,24.3867 71.2773,22.9492 70.2891,21.5039 69.4766,20.2422 68.6719,18.9844 67.9492,17.8203 67.1406,16.6484 66.5078,15.6523 65.793,14.5781 65.25,13.6836 64.6211,12.7813 64.1719,12.0625 63.6289,11.25 63.2695,10.6133 62.8164,9.98828 62.4609,9.54297 62.1016,8.99219 61.918,8.64453 61.6484,8.18359 61.5586,8.00781 61.3828,7.73438 V 7.64844 7.47266 l 0.086,-0.08985 h 0.2695 0.2734 0.3555 l 0.4531,-0.09765 h 0.5391 l 0.6289,-0.08985 h 0.7226 0.6329 0.8945 1.2617 3.8711 1.0781 0.9024 0.539 1.168 0.9922 0.6289 0.4492 L 77.3984,7.10938 77.7578,7.02344 78.6641,6.57031 79.293,5.76172 79.4688,5.39844 79.5625,5.12891 V 4.85547 4.31641 L 79.4688,3.69141 79.1992,2.88281 78.8398,2.15625 78.3906,1.71094 77.7578,1.26172 77.043,0.8125 76.1367,0.449219 75.8711,0.359375 h -0.543 L 74.5195,0.265625 H 73.5313 72.1797 70.6484 68.7617 67.2305 65.9727 65.0664 64.4375 62.2813 L 60.2969,0.175781 59.3984,0.0898438 H 58.6836 57.9609 57.3281 56.25 55.5313 55.2578 55.0781 54.6289 54.2695 54 L 53.9102,0 v 0.0898438 h -0.0938 -0.2656 -0.543 -0.8047 -1.0859 -1.3477 L 49.3203,0.175781 H 48.5977 47.6992 46.6211 44.1875 L 61.1094,61.0156 17.1016,62.5508 8.55078,41.1328 H 0.179688 L 0,92.1563 H 8.55078 L 17.3672,70.8281 61.0195,72.3594 42.5664,133.379 h 6.3945 l 1.9805,-0.094 h 1.7109 1.5274 1.1719 0.8984 0.6289 2.8828 l 2.5196,0.094 h 2.25 1.9765 1.6211 1.3477 0.9922 0.5429 0.8086 l 1.5313,-0.094 1.1679,-0.176 0.9883,-0.179 1.086,-0.364 0.3554,-0.179 0.3594,-0.086 0.4492,-0.274 0.4492,-0.355 0.3633,-0.449 0.2695,-0.278 0.0899,-0.265 0.1797,-0.45 0.1836,-0.449 0.0859,-0.273 v -0.27 -0.359 -0.449 l -0.1797,-0.45 -0.2695,-0.453 -0.3594,-0.359 -0.3633,-0.27 -0.5351,-0.273 -0.2735,-0.086 -0.2695,-0.094 -0.6289,-0.086 h -0.8984 l -1.1719,-0.089 h -1.4414 -1.7969 -2.0703 -2.5234 -1.2618 -0.8984 -1.6211 l -0.7148,-0.094 -0.543,-0.086 -0.8984,-0.184 -0.543,-0.179 -0.1797,-0.086 -0.0898,-0.094 v -0.356 l 0.2695,-0.543 0.3633,-0.722 0.4492,-0.899 0.6289,-1.168 0.3594,-0.453 0.2695,-0.449 0.1797,-0.359 0.3633,-0.45 0.7148,-1.082 0.3633,-0.628 0.543,-0.719 0.4492,-0.809 0.6289,-0.902 1.3476,-1.891 1.6211,-2.16 1.7071,-2.43 1.9843,-2.703 0.9922,-1.433 1.168,-1.532 2.3359,-3.238 1.2657,-1.7147 1.2578,-1.7969 0.3594,-0.543 0.5429,-0.8086 0.8086,-0.9883 0.8125,-1.1718 0.9883,-1.5274 1.2617,-1.7148 1.4336,-1.8867 1.6211,-2.1602 1.7109,-2.4297 8.2852,-11.3398 11.2504,-0.0899 h 2.695 2.344 2.07 1.797 1.523 1.27 0.898 0.625 l 3.692,0.0899 h 3.418 2.968 2.618 2.343 1.875 1.543 l 0.723,-0.0899 h 0.527 0.821 0.527 0.273 l 0.547,-0.1797 0.625,-0.1797 0.274,-0.0937 0.449,-0.1797 0.723,-0.3555 0.449,-0.1836 0.449,-0.2656 1.25,-0.5429 1.445,-0.7188"
         style="fill:#2f2f2f;fill-opacity:1.0;fill-rule:nonzero;stroke:none"
         id="path12" /></g></g></svg>
