<?xml version="1.0" encoding="UTF-8" standalone="no"?>
<!-- Created with Inkscape (http://www.inkscape.org/) -->

<svg
   version="1.1"
   id="svg2"
   xml:space="preserve"
   width="15.12"
   height="14.4"
   viewBox="0 0 15.12 14.4"
   sodipodi:docname="fyr.svg"
   inkscape:version="1.1.1 (3bf5ae0d25, 2021-09-20)"
   xmlns:inkscape="http://www.inkscape.org/namespaces/inkscape"
   xmlns:sodipodi="http://sodipodi.sourceforge.net/DTD/sodipodi-0.dtd"
   xmlns="http://www.w3.org/2000/svg"
   xmlns:svg="http://www.w3.org/2000/svg"><sodipodi:namedview
     id="namedview8"
     pagecolor="#ffffff"
     bordercolor="#666666"
     borderopacity="1.0"
     inkscape:pageshadow="2"
     inkscape:pageopacity="0.0"
     inkscape:pagecheckerboard="0"
     showgrid="false"
     inkscape:zoom="60.625002"
     inkscape:cx="7.5628864"
     inkscape:cy="7.1917524"
     inkscape:window-width="2560"
     inkscape:window-height="1365"
     inkscape:window-x="0"
     inkscape:window-y="0"
     inkscape:window-maximized="1"
     inkscape:current-layer="g10" /><defs
     id="defs6" /><g
     id="g8"
     transform="matrix(1.3333333,0,0,-1.3333333,0,14.4)"><g
       id="g10"
       transform="scale(0.1)"><path
         d="M 56.5195,25.9375 21.957,0.371094 35.2773,41.7773 0,68.4102 H 44.2773 L 56.8789,108.008 69.4805,68.4102 H 113.398 L 80.2813,43.9258 77.7656,42.1289 91.0742,0 56.5195,25.9375"
         style="fill:#2f2f2f;fill-opacity:1;fill-rule:nonzero;stroke:none"
         id="path12" /><path
         d="m 56.6094,66.9688 2.5234,-0.1797 2.5156,-0.5391 2.4336,-0.8086 2.2461,-1.2617 2.0703,-1.5274 1.8946,-1.8007 1.5234,-1.9844 1.3477,-2.2461 0.9062,-2.4297 0.625,-2.4336 0.2774,-2.6055 v -0.6289 l -0.1875,-2.5273 -0.5352,-2.5195 -0.8125,-2.4219 -1.2578,-2.2461 -1.5352,-2.168 -1.7968,-1.7968 -1.9844,-1.6211 -2.2422,-1.2696 -2.3477,-0.8984 -2.5117,-0.625 -2.6133,-0.2734 h -0.539 L 54,30.332 l -2.5195,0.5469 -2.3399,0.8008 -2.3437,1.2695 -2.0703,1.5235 -1.8907,1.7187 -1.5273,2.0703 -1.2578,2.1485 -0.9922,2.4414 -0.6289,2.4218 -0.2695,2.6172 v 0.6328 l 0.1796,2.6055 0.5391,2.5195 0.8086,2.3438 1.2578,2.3398 1.5352,2.0703 1.7968,1.8868 1.9844,1.5312 2.25,1.2578 2.4258,0.9922 2.4336,0.6289 2.6055,0.2696 h 0.6328"
         style="fill:#ffffff;fill-opacity:1;fill-rule:nonzero;stroke:none"
         id="path14" /></g></g></svg>
