<?xml version="1.0" encoding="UTF-8" standalone="no"?>
<!-- Created with Inkscape (http://www.inkscape.org/) -->

<svg
   version="1.1"
   id="svg2"
   xml:space="preserve"
   width="15.12"
   height="15.906667"
   viewBox="0 0 15.12 15.906667"
   sodipodi:docname="gasthamn.svg"
   inkscape:version="1.1.1 (3bf5ae0d25, 2021-09-20)"
   xmlns:inkscape="http://www.inkscape.org/namespaces/inkscape"
   xmlns:sodipodi="http://sodipodi.sourceforge.net/DTD/sodipodi-0.dtd"
   xmlns="http://www.w3.org/2000/svg"
   xmlns:svg="http://www.w3.org/2000/svg"><sodipodi:namedview
     id="namedview8"
     pagecolor="#ffffff"
     bordercolor="#666666"
     borderopacity="1.0"
     inkscape:pageshadow="2"
     inkscape:pageopacity="0.0"
     inkscape:pagecheckerboard="0"
     showgrid="false"
     inkscape:zoom="54.882648"
     inkscape:cx="7.5524781"
     inkscape:cy="7.944223"
     inkscape:window-width="2560"
     inkscape:window-height="1365"
     inkscape:window-x="0"
     inkscape:window-y="0"
     inkscape:window-maximized="1"
     inkscape:current-layer="svg2" /><defs
     id="defs6" /><g
     id="g8"
     transform="matrix(1.3333333,0,0,-1.3333333,0,15.906667)"
     style="fill:#c44982;fill-opacity:1"><g
       id="g10"
       transform="scale(0.1)"
       style="fill:#c44982;fill-opacity:1"><path
         d="m 54.8984,119.242 1.8008,0.094 2.6094,-0.18 2.7031,-0.543 2.5196,-0.808 2.332,-1.262 2.168,-1.527 1.9765,-1.801 1.707,-2.07 1.4454,-2.254 1.0742,-2.426 0.8125,-2.52 0.457,-2.699 V 99.5352 L 76.4063,96.8359 75.8711,94.2227 74.9727,91.7031 73.7109,89.2734 72.1797,87.1133 70.3828,85.1328 68.3984,83.4219 66.0547,81.9805 63.6328,80.9023 62.375,80.543 v -0.8985 h 17 V 68.3047 h -17 V 17.5391 l 3.7773,0.4492 4.5899,0.8984 4.5898,1.2696 4.4922,1.5234 4.3242,1.9922 4.1446,2.2461 4.0508,2.5195 3.7812,2.8711 1.707,1.543 -7.1093,7.1093 H 113.398 V 17.2656 l -7.468,7.4805 -3.867,-3.2422 -4.231,-2.9687 -4.3242,-2.793 L 88.918,13.3984 84.2383,11.25 79.375,9.53125 74.4336,8.08594 69.3867,7.01172 64.2578,6.28906 60.9297,5.9375 56.6992,0 l -4.2265,5.9375 -6.0313,0.72266 -5.1328,0.89843 -4.9531,1.25 -4.9453,1.62111 -4.7696,1.8945 -4.5898,2.2461 -4.5,2.6172 -4.2305,2.8711 L 9.26953,23.2227 7.47266,24.8438 0,17.2656 v 22.6953 h 22.6797 l -7.1094,-7.1093 2.875,-2.5196 3.875,-2.7148 4.0469,-2.5195 4.2344,-2.0704 4.4101,-1.875 4.5,-1.4453 4.5899,-1.1718 4.6757,-0.7227 2.254,-0.2734 V 68.3047 H 34.0195 v 11.3398 h 17.0118 v 0.8086 l -2.1641,0.8125 -2.3399,1.168 -2.25,1.5312 -1.9765,1.7969 -1.711,2.0703 -1.4414,2.25 -1.0781,2.4336 -0.7226,2.5196 -0.4493,2.6992 -0.0859,1.8008 0.1758,2.6098 0.539,2.613 0.9024,2.515 1.1719,2.43 1.5273,2.16 1.8008,1.981 2.0703,1.707 2.25,1.441 2.4297,1.078 2.6094,0.813 2.6093,0.359"
         style="fill:#c44982;fill-opacity:1;fill-rule:nonzero;stroke:none"
         id="path12" /><path
         d="m 56.6992,113.125 1.8008,-0.094 2.1602,-0.535 1.9765,-0.723 1.9844,-1.168 1.6172,-1.351 1.4375,-1.711 1.1719,-1.801 0.8086,-1.976 0.539,-2.071 0.0977,-2.1598 -0.0977,-1.8946 -0.4492,-2.1562 -0.8086,-1.9766 -1.0781,-1.8906 -1.3438,-1.7149 -1.6211,-1.3476 -1.9843,-1.1719 -1.9805,-0.8125 -2.0742,-0.5351 -2.1563,-0.1797 -1.8906,0.0859 -2.0703,0.543 -2.0703,0.7187 -1.8008,1.1719 -1.7109,1.3477 -1.4375,1.7148 -1.168,1.793 -0.8125,1.9843 -0.5391,2.1602 -0.1797,2.1602 0.1797,1.7968 0.4492,2.164 0.7227,1.977 1.168,1.984 1.3515,1.613 1.7071,1.356 1.8007,1.258 1.9805,0.718 2.1641,0.543 2.1562,0.18"
         style="fill:#c44982;fill-opacity:1;fill-rule:nonzero;stroke:none"
         id="path14" /></g></g></svg>
