<?xml version="1.0" encoding="UTF-8" standalone="no"?>
<!-- Created with Inkscape (http://www.inkscape.org/) -->

<svg
   version="1.1"
   id="svg2"
   xml:space="preserve"
   width="15.88"
   height="15.946667"
   viewBox="0 0 15.88 15.946667"
   xmlns="http://www.w3.org/2000/svg"
   xmlns:svg="http://www.w3.org/2000/svg"><defs
     id="defs6" /><g
     id="g8"
     transform="matrix(1.3333333,0,0,-1.3333333,0,15.946667)"><g
       id="g10"
       transform="scale(0.1)"><path
         d="M 71.7188,119.621 56.4414,39.707 H 52.6406 L 51.2266,39.5977 46.7148,39.4336 42.2891,39.0625 37.9844,38.6016 33.8516,38.0664 29.7891,37.3633 25.8203,36.543 22.1445,35.6641 18.7109,34.668 15.4844,33.5938 12.5,32.3047 9.80859,31.0742 7.36719,29.707 5.30469,28.2617 3.60547,26.8477 2.14844,25.3984 1.16406,23.8672 0.453125,22.2578 0.171875,21.4258 0.09375,20.7227 0,19.9805 v -0.625 L 0.257813,18 0.914063,16.3789 1.25,15.5977 1.8125,14.8516 3.14844,13.3203 4.84766,11.9023 6.83203,10.4609 9.10156,9.10156 11.7148,7.74609 14.5703,6.58203 17.7461,5.41016 21.1523,4.42578 24.75,3.42969 28.6328,2.60547 32.5742,1.90234 36.7109,1.26953 41.0547,0.820313 43.293,0.539063 45.4375,0.449219 49.9492,0.207031 54.4531,0.105469 56.5234,0 h 1.7891 1.8086 l 2.0703,0.105469 4.3945,0.265625 4.4297,0.28125 2.2266,0.167969 2.1094,0.281247 4.2187,0.625 2.0703,0.25391 1.9727,0.46094 3.8672,0.82031 1.8945,0.33984 1.7773,0.53907 3.5352,0.98828 1.6992,0.54687 1.5235,0.64063 1.5234,0.55078 1.3674,0.61328 1.445,0.53516 1.25,0.71484 1.27,0.65625 1.172,0.70308 1.074,0.625 0.996,0.7422 0.898,0.7032 0.801,0.7109 0.82,0.7305 0.625,0.7929 0.625,0.7422 0.45,0.793 0.742,1.6367 0.254,0.7149 0.078,0.8203 0.117,0.7109 -0.117,0.625 -0.078,0.6172 -0.176,0.7422 -0.293,0.7929 -0.332,0.8204 -0.371,0.7109 -0.547,0.8203 -0.606,0.7031 -0.742,0.8203 -1.621,1.4571 -1.992,1.4453 -1.055,0.625 -1.25,0.7109 -1.289,0.6133 -1.328,0.6563 -2.8905,1.25 -1.5235,0.539 -1.6211,0.5352 -3.4375,1.0859 -3.5937,0.8945 -3.8477,0.9102 -3.9843,0.7109 -4.2188,0.5391 -4.2383,0.5352 -4.4101,0.3632 -1.3555,0.0899 -1.0742,0.0859 -0.9063,0.086 h -1.1679 l 9.7343,52.3007 45.9961,10.1716 -47.3632,17.551"
         style="fill:#000000;fill-opacity:1;fill-rule:nonzero;stroke:none"
         id="path12" /><path
         d="m 63.0117,32.8516 4.2305,-0.1758 4.0469,-0.3711 4.0625,-0.332 3.8476,-0.4493 3.6914,-0.5468 3.5157,-0.6446 3.2226,-0.625 3.0664,-0.8007 2.8125,-0.8204 2.5195,-0.9062 2.2267,-0.9883 1.914,-0.9961 1.621,-0.9687 1.231,-1.1016 0.918,-1.0742 0.527,-1.0742 0.078,-1.0743 v -0.6367 l -0.332,-1.0625 -0.723,-1.082 -1.093,-1.0742 -1.348,-0.9961 L 101.25,13.9727 99.1797,13.0781 96.8359,12.0703 94.1406,11.25 91.25,10.4609 88.0273,9.71875 84.707,9.01563 81.0156,8.46875 77.2266,7.9375 73.3594,7.56641 69.3125,7.19922 65.1719,7.03125 60.918,6.86719 H 56.6875 54.6211 L 50.3984,6.94141 46.1836,7.10938 42.125,7.40234 38.0703,7.74609 34.2148,8.19141 30.5,8.73047 26.9922,9.38672 23.75,10.0898 l -3.0625,0.711 -2.8555,0.8203 -2.5195,0.9062 -2.1602,0.9961 -1.9023,0.9883 -1.60547,0.9649 -1.28515,1.1054 -0.87891,1.086 -0.5625,1.0742 -0.08594,1.1601 v 0.5352 l 0.3711,1.0781 0.70703,1.0742 1.07812,1.0821 1.36332,1.1015 1.8125,0.9688 2.0703,0.9844 2.3125,0.9101 2.7031,0.8985 2.8906,0.7148 3.1524,0.8164 3.4179,0.6367 3.5977,0.5391 3.7812,0.5351 3.961,0.3633 4.0586,0.3711 4.1445,0.2617 4.2188,0.0782 h 2.6875 l -1.7774,-9.5196 -0.0898,-0.9101 0.2578,-1.0821 0.6211,-0.9023 0.8164,-0.7109 1.082,-0.3711 0.9102,-0.0899 1.0703,0.2657 0.9101,0.6523 0.711,0.793 0.3711,1.0742 2.0664,10.8008 h 0.9023"
         style="fill:#ffffff;fill-opacity:1;fill-rule:nonzero;stroke:none"
         id="path14" /></g></g></svg>
