<?xml version="1.0" encoding="UTF-8" standalone="no"?>
<!-- Created with Inkscape (http://www.inkscape.org/) -->

<svg
   version="1.1"
   id="svg2"
   xml:space="preserve"
   width="14.72"
   height="9.2533331"
   viewBox="0 0 14.72 9.2533331"
   sodipodi:docname="hus_slott.svg"
   inkscape:version="1.1.1 (3bf5ae0d25, 2021-09-20)"
   xmlns:inkscape="http://www.inkscape.org/namespaces/inkscape"
   xmlns:sodipodi="http://sodipodi.sourceforge.net/DTD/sodipodi-0.dtd"
   xmlns="http://www.w3.org/2000/svg"
   xmlns:svg="http://www.w3.org/2000/svg"><sodipodi:namedview
     id="namedview7"
     pagecolor="#ffffff"
     bordercolor="#666666"
     borderopacity="1.0"
     inkscape:pageshadow="2"
     inkscape:pageopacity="0.0"
     inkscape:pagecheckerboard="0"
     showgrid="false"
     inkscape:zoom="80.366846"
     inkscape:cx="7.3600001"
     inkscape:cy="4.6287744"
     inkscape:window-width="2560"
     inkscape:window-height="1365"
     inkscape:window-x="0"
     inkscape:window-y="0"
     inkscape:window-maximized="1"
     inkscape:current-layer="g10" /><defs
     id="defs6" /><g
     id="g8"
     transform="matrix(1.3333333,0,0,-1.3333333,0,9.2533333)"><g
       id="g10"
       transform="scale(0.1)"><path
         d="m 12.7773,69.3945 2.1641,-0.1797 2.0703,-0.5429 1.8906,-0.8086 1.7969,-1.2617 1.5313,-1.4375 1.3476,-1.711 0.9024,-1.8906 0.7187,-2.0703 0.2696,-2.0703 V 56.707 h 59.4921 l 0.1758,2.1563 0.5469,2.0703 0.8125,1.8906 1.2578,1.8008 1.4336,1.5273 1.7109,1.3477 1.8946,0.9063 2.0703,0.7148 2.0703,0.2734 h 0.8125 l 2.1562,-0.1797 2.0707,-0.5429 1.882,-0.8086 1.809,-1.2617 1.524,-1.4375 1.359,-1.711 0.894,-1.8906 0.715,-2.0703 0.274,-2.0703 V 56.707 56.6133 l -0.176,-2.1602 -0.547,-2.0703 -0.812,-1.8867 -1.258,-1.8047 -1.438,-1.5273 -1.707,-1.3516 -1.894,-0.8984 -2.071,-0.7188 -2.07,-0.2734 H 97.7461 V 0 H 75.0586 V 34.0234 H 35.3711 V 0 H 12.6914 V 43.9219 L 10.5313,44.1016 8.46094,44.6445 6.57031,45.457 4.76953,46.7148 3.24219,48.1563 1.89063,49.8633 0.992188,51.7539 0.269531,53.8242 0,55.8945 v 0.7188 0.0937 l 0.179688,2.1563 0.542968,2.0703 0.804684,1.8906 1.26563,1.8008 1.4375,1.5273 1.71094,1.3477 1.89062,0.9063 2.07031,0.7148 2.07036,0.2734 h 0.8046"
         style="fill:#2f2f2f;fill-opacity:1;fill-rule:nonzero;stroke:none"
         id="path12" /></g></g></svg>
