<?xml version="1.0" encoding="UTF-8" standalone="no"?>
<!-- Created with Inkscape (http://www.inkscape.org/) -->

<svg
   version="1.1"
   id="svg2"
   xml:space="preserve"
   width="26.440001"
   height="15.16"
   viewBox="0 0 26.440001 15.16"
   xmlns="http://www.w3.org/2000/svg"
   xmlns:svg="http://www.w3.org/2000/svg"><defs
     id="defs6" /><g
     id="g8"
     transform="matrix(1.3333333,0,0,-1.3333333,0,15.16)"><g
       id="g10"
       transform="scale(0.1)"><path
         d="M 0.492188,3.47656 0.855469,3.26172 1.13281,2.83203 2.98047,1.34766 3.11328,1.05469 3.69141,0 194.52,0.148438 h 3.761 V 9.64063 l -6.23,0.21484 h -0.071 l -30.757,0.28123 h -36.496 l -5.672,0.2149 -1.282,1.2031 v 1.7656 l 2.559,2.918 4.465,9.2031 2.469,0.9961 15.039,0.5664 12.89,0.3516 26.368,0.2929 3.957,2.0391 1.21,0.5 2.547,3.9727 0.93,3.8203 0.699,10.7109 0.071,3.75 -0.704,38.6172 -0.632,4.6797 -1.914,4.8277 -5.11,3.825 -3.887,1.336 -23.75,4.332 -41.589,2.906 -8.578,0.426 -4.329,0.066 -1.484,0.215 -10.1367,-0.641 -6.8086,-0.066 -0.707,0.215 -46.0586,-4.828 -16.3672,-3.465 -4.0391,-1.914 -2.4844,-1.914 L 10.2695,95.8828 9.49219,71.1484 9.98828,47.6953 9.49219,36.7109 7.30078,33.6602 3.18359,31.3984 1.41797,29.6875 1.48438,26.8555 3.96875,14.7344 4.10547,11.9844 0.921875,8.00781 0.855469,7.94922 0.492188,7.58984 0,7.15625 V 3.76172 L 0.492188,3.47656"
         style="fill:#000000;fill-opacity:1;fill-rule:nonzero;stroke:none"
         id="path12" /><path
         d="m 87.5938,12.4023 -1.2071,2.6172 -3.0469,5.1758 -0.9218,4.043 -2.6914,2.332 h -0.293 L 31.3164,26.2227 17.5039,25.6523 15.7266,25.2344 14.1055,23.5273 19.3516,11.6914 21.1836,10.1367 35.0117,9.85547 h 17.0742 l 33.3789,0.49613 2.129,2.0507"
         style="fill:#ffffff;fill-opacity:1;fill-rule:nonzero;stroke:none"
         id="path14" /><path
         d="m 42.7266,96.3125 -0.8399,-0.3594 -1.6992,-1.207 -2.3437,-3.1133 v -0.2812 l -0.5743,-2.2071 -0.1367,-2.6914 0.1367,-6.1601 0.7891,-2.6211 1.6992,-1.9805 1.2656,-1.0039 3.9102,-0.7695 9.0664,0.4218 0.2773,0.0704 2.9063,1.1992 1.707,1.2851 1.1289,1.9844 0.7852,2.6836 0.1328,2.5547 -0.5625,5.3203 -0.8555,2.9023 -1.3359,2.2618 -1.2852,1.4179 -2.3359,0.7891 -2.4102,0.3477 -9.4257,-0.8438"
         style="fill:#ffffff;fill-opacity:1;fill-rule:nonzero;stroke:none"
         id="path16" /><path
         d="m 109.629,97.3047 -4.746,-1.8438 -1.914,-1.8476 -0.856,-6.3828 -0.066,-7.793 v -0.4141 l 1.058,-1.7773 2.833,-2.4102 3.691,-0.9179 1.633,-0.1485 44.297,0.5039 4.675,1.336 2.325,2.9844 1.14,4.4687 -0.429,6.9375 -1.481,3.5469 -2.133,2.6211 -4.097,1.8437 -2.914,0.4961 -0.36,0.2813 -30.176,-0.4961 -12.48,-0.9883"
         style="fill:#fdfdfd;fill-opacity:1;fill-rule:nonzero;stroke:none"
         id="path18" /></g></g></svg>
