<?xml version="1.0" encoding="UTF-8" standalone="no"?>
<!-- Created with Inkscape (http://www.inkscape.org/) -->

<svg
   version="1.1"
   id="svg2"
   xml:space="preserve"
   width="22.693333"
   height="12.106667"
   viewBox="0 0 22.693333 12.106667"
   xmlns="http://www.w3.org/2000/svg"
   xmlns:svg="http://www.w3.org/2000/svg"><defs
     id="defs6" /><g
     id="g8"
     transform="matrix(1.3333333,0,0,-1.3333333,0,12.106667)"><g
       id="g10"
       transform="scale(0.1)"><path
         d="M 121.953,90.8203 H 47.418 L 43.2852,90.6484 39.1445,90 35.0898,89.1211 31.1484,87.9297 27.3477,86.3086 23.668,84.5313 20.1445,82.375 16.918,79.9414 13.8555,77.2422 11.0781,74.3516 8.55859,71.1992 6.28516,67.8555 4.41797,64.3711 2.77734,60.7695 1.61719,56.9766 0.707031,53.1992 0.167969,49.3203 0,45.3828 V 44.6367 L 0.257813,40.7031 0.820313,36.8164 1.8125,33.0469 3.05859,29.3555 4.75781,25.7422 6.75,22.2461 8.98828,18.9844 11.5078,15.8398 14.3984,13.0664 17.457,10.3711 20.7773,8.02734 24.2891,5.95703 28.0898,4.16016 31.8594,2.71484 35.9063,1.52344 39.9727,0.644531 44.1094,0.195313 48.2461,0 h 73.7069 0.82 l 4.141,0.195313 4.141,0.625 4.043,0.917967 3.945,1.15235 3.789,1.62109 3.691,1.81641 3.516,2.14843 3.223,2.44144 3.066,2.5976 2.774,2.9492 2.519,3.0665 2.285,3.3398 1.856,3.5156 1.621,3.6133 1.191,3.7695 0.879,3.7578 0.567,3.9727 0.175,3.8828 v 0.707 l -0.293,3.9727 -0.527,3.8477 -0.996,3.8007 -1.25,3.7696 -1.699,3.5976 -1.973,3.4336 -2.285,3.3203 -2.52,3.0547 -2.871,2.8946 -3.047,2.6093 -3.32,2.4063 -3.516,2.0703 -3.808,1.8125 -3.77,1.4492 -4.043,1.1641 -4.062,0.9062 -4.121,0.4492 -4.141,0.1719"
         style="fill:#000000;fill-opacity:1;fill-rule:nonzero;stroke:none"
         id="path12" /><path
         d="m 121.777,85.1523 3.77,-0.1718 4.141,-0.4492 3.144,-0.7422 3.789,-1.0782 3.164,-1.164 3.399,-1.6055 3.164,-1.8984 2.871,-2.0703 2.793,-2.4414 2.343,-2.3321 2.344,-2.8906 1.797,-2.6016 1.875,-3.3164 1.543,-3.1484 0.996,-2.9727 0.996,-3.6875 0.332,-2.8007 0.274,-3.9493 v -0.2812 l -0.157,-3.7695 -0.371,-2.9805 -0.898,-3.6055 -0.996,-3.125 -1.445,-3.164 -1.7,-3.1641 -1.797,-2.6953 -2.343,-2.8711 -2.442,-2.5195 -2.695,-2.3438 -2.891,-2.168 -2.949,-1.7773 -3.262,-1.64064 -3.593,-1.54297 -3.399,-1.07421 -3.613,-0.70313 -3.418,-0.52734 -3.984,-0.21485 H 48.418 l -3.7696,0.21485 -4.1406,0.44922 -3.1484,0.70312 -3.8008,1.07422 -3.1367,1.17187 -3.4336,1.64066 -3.2422,1.9531 -2.7656,1.8945 -2.8125,2.5196 -2.5196,2.4414 -2.0703,2.6172 -1.957,2.7734 -1.81251,3.3398 -1.53125,3.1446 -0.98828,2.8711 -1,3.7109 -0.34375,2.7773 -0.27734,3.9688 v 0.25 l 0.16797,3.8906 0.37109,2.8594 0.90235,3.5976 1,3.1719 1.4414,3.1524 L 11.25,65 l 1.9883,2.9688 1.9805,2.5 2.5195,2.6132 2.7812,2.4258 2.8868,2.1641 2.9492,1.8047 3.2656,1.6211 3.5977,1.5351 3.3984,1.0781 3.5976,0.7266 3.4336,0.543 3.9727,0.1718 h 74.1559"
         style="fill:#fafafa;fill-opacity:1;fill-rule:nonzero;stroke:none"
         id="path14" /><path
         d="M 121.309,73.8086 H 48.0469 L 44.5625,73.6406 42.1211,73.2695 39.6016,72.7383 37.1563,71.9961 34.6406,70.918 31.7773,69.5039 29.5078,68.1406 27.8867,66.8711 25.4805,64.707 23.8398,63.1016 22.3047,61.1992 21.1484,59.332 19.5273,56.4414 18.707,54.6523 18,52.4688 l -0.6211,-2.5 -0.1992,-1.8086 -0.1719,-2.8907 0.2813,-3.4882 0.1679,-1.3594 0.8243,-2.9805 0.4257,-1.3281 1.1914,-2.3438 1.418,-2.6953 1.3594,-1.914 1.4414,-1.8946 1.6992,-1.6211 2.1563,-1.9726 1.7343,-1.1719 2.6016,-1.5234 2.6953,-1.3282 2.0703,-0.7421 3.1406,-0.8985 2.1641,-0.5469 2.7969,-0.2539 3.6914,-0.1757 h 73.2418 l 3.516,0.1757 2.441,0.3711 2.52,0.5274 2.441,0.7226 2.52,1.0742 2.871,1.4454 2.266,1.3281 1.621,1.2695 2.304,1.9922 1.621,1.6992 1.817,2.2656 0.996,1.5235 1.621,2.8711 0.82,1.8164 0.704,2.1562 0.625,2.5235 0.195,1.8633 0.176,2.8125 -0.293,3.5117 -0.157,1.3281 -0.82,3.0703 -0.43,1.4414 -1.269,2.5195 -1.367,2.3282 -1.153,1.7343 -1.914,2.3125 -1.328,1.3633 -2.363,1.9922 -1.953,1.4414 -2.266,1.3281 -2.695,1.3594 -2.071,0.711 -3.144,0.9062 -2.148,0.543 -2.813,0.2773 -3.691,0.1719"
         style="fill:#000000;fill-opacity:1;fill-rule:nonzero;stroke:none"
         id="path16" /><path
         d="m 121.152,68.1406 3.399,-0.1718 2.363,-0.2774 1.602,-0.3711 3.066,-0.8789 1.328,-0.4492 2.188,-1.0781 1.953,-1.1953 1.562,-1.1602 2.071,-1.6992 0.8,-0.8203 1.7,-2.1563 0.82,-1.082 1.25,-2.2578 0.976,-1.8711 0.215,-0.7422 0.782,-2.9492 v -0.3711 l 0.273,-3.2266 -0.156,-2.2734 -0.196,-1.4375 -0.468,-1.9649 -0.45,-1.4375 -0.605,-1.3554 -1.543,-2.6953 -0.703,-1.1719 -1.367,-1.6211 -1.25,-1.3477 -2.266,-1.8945 -0.781,-0.7031 -2.07,-1.1719 -2.364,-1.1914 -2.324,-0.9961 -1.523,-0.4492 -2.442,-0.5469 -1.699,-0.2539 -3.34,-0.1953 H 49.0391 l -3.3985,0.1953 -2.3554,0.2539 -1.6133,0.3711 -3.0625,0.8984 -1.3633,0.4688 -2.1563,1.0742 -2.5234,1.4453 -0.9883,0.7031 -1.957,1.8164 -1.2695,1.1719 -1.0821,1.4453 -1.082,1.5235 -1.2695,2.3242 -0.9688,1.9805 -0.2031,0.539 -0.7852,2.9844 v 0.25 l -0.2812,3.2617 0.168,2.3281 0.2031,1.3594 0.4492,1.9805 0.4492,1.418 0.6328,1.3593 1.5274,2.6914 0.789,1.2813 1.2813,1.6094 1.0703,1.0781 2.4375,2.1484 0.8789,0.6289 1.9805,1.2774 2.3633,1.164 2.3203,0.9922 1.5273,0.4492 2.4414,0.543 1.6992,0.2774 3.3477,0.1718 h 72.9059"
         style="fill:#ffffff;fill-opacity:1;fill-rule:nonzero;stroke:none"
         id="path18" /></g></g></svg>
