<?xml version="1.0" encoding="UTF-8" standalone="no"?>
<!-- Created with Inkscape (http://www.inkscape.org/) -->

<svg
   version="1.1"
   id="svg2"
   xml:space="preserve"
   width="22.666668"
   height="22.666668"
   viewBox="0 0 22.666668 22.666668"
   sodipodi:docname="infotavla.svg"
   inkscape:version="1.1.1 (3bf5ae0d25, 2021-09-20)"
   xmlns:inkscape="http://www.inkscape.org/namespaces/inkscape"
   xmlns:sodipodi="http://sodipodi.sourceforge.net/DTD/sodipodi-0.dtd"
   xmlns="http://www.w3.org/2000/svg"
   xmlns:svg="http://www.w3.org/2000/svg"><sodipodi:namedview
     id="namedview9"
     pagecolor="#ffffff"
     bordercolor="#666666"
     borderopacity="1.0"
     inkscape:pageshadow="2"
     inkscape:pageopacity="0.0"
     inkscape:pagecheckerboard="0"
     showgrid="false"
     inkscape:zoom="38.514704"
     inkscape:cx="11.333334"
     inkscape:cy="11.346316"
     inkscape:window-width="2560"
     inkscape:window-height="1365"
     inkscape:window-x="0"
     inkscape:window-y="0"
     inkscape:window-maximized="1"
     inkscape:current-layer="g10" /><defs
     id="defs6" /><g
     id="g8"
     transform="matrix(1.3333333,0,0,-1.3333333,0,22.666667)"><g
       id="g10"
       transform="scale(0.1)"><path
         d="M 0,170 H 170.012 V 0 H 0 v 170"
         style="fill:#2f2f2f;fill-opacity:1.0;fill-rule:nonzero;stroke:none"
         id="path12" /><path
         d="m 107.5,34.5039 13.191,-0.1289 0.071,-19.7852 H 47.1914 V 34.375 l 15.3125,0.3438 v 46.1367 l -14.3906,0.0664 0.0703,19.2851 H 107.566 L 107.5,34.5039"
         style="fill:#ffffff;fill-opacity:1;fill-rule:nonzero;stroke:none"
         id="path14" /><path
         d="m 86.457,155.266 2.1289,-0.282 1.9141,-0.496 1.9023,-0.57 1.9141,-0.992 1.8477,-0.922 1.5625,-1.125 1.6211,-1.566 1.4143,-1.418 1.289,-1.563 1.133,-1.699 0.847,-1.836 0.782,-1.922 0.636,-1.98 0.274,-1.915 0.293,-2.121 v -0.855 l -0.203,-2.262 -0.215,-2.058 -0.43,-1.977 -0.648,-1.914 -0.915,-1.848 -1.125,-1.914 -1.074,-1.633 -1.347,-1.558 -1.4067,-1.418 -1.5625,-1.129 -1.8437,-1.133 -1.9141,-1.066 -1.8476,-0.778 -1.836,-0.5 -2.2695,-0.355 -2.0625,-0.352 h -0.707 l -2.125,0.215 -2.1289,0.215 -1.9102,0.563 -1.9805,0.492 -1.8437,0.992 -1.8477,1 -1.5507,1.129 -1.7032,1.492 -1.4922,1.555 -1.2695,1.414 -0.9922,1.699 -0.9218,1.926 -0.7071,1.976 -0.7851,1.985 -0.3516,1.843 -0.1484,2.063 v 0.984 l 0.1484,2.129 0.2148,2.055 0.5586,2.051 0.5782,1.91 0.9218,1.848 1.0547,1.843 1.1367,1.555 1.418,1.629 1.3516,1.5 1.6211,1.121 1.7773,1.219 1.8399,0.984 1.8359,0.781 1.9258,0.493 2.1133,0.281 1.9921,0.281 h 1.0547 l 2.0625,-0.066"
         style="fill:#ffffff;fill-opacity:1;fill-rule:nonzero;stroke:none"
         id="path16" /></g></g></svg>
