<?xml version="1.0" encoding="UTF-8" standalone="no"?>
<!-- Created with Inkscape (http://www.inkscape.org/) -->

<svg
   version="1.1"
   id="svg2"
   xml:space="preserve"
   width="15.12"
   height="15.12"
   viewBox="0 0 15.12 15.12"
   sodipodi:docname="karnkraftverk.svg"
   inkscape:version="1.1.1 (3bf5ae0d25, 2021-09-20)"
   xmlns:inkscape="http://www.inkscape.org/namespaces/inkscape"
   xmlns:sodipodi="http://sodipodi.sourceforge.net/DTD/sodipodi-0.dtd"
   xmlns="http://www.w3.org/2000/svg"
   xmlns:svg="http://www.w3.org/2000/svg"><sodipodi:namedview
     id="namedview12"
     pagecolor="#ffffff"
     bordercolor="#666666"
     borderopacity="1.0"
     inkscape:pageshadow="2"
     inkscape:pageopacity="0.0"
     inkscape:pagecheckerboard="0"
     showgrid="false"
     inkscape:zoom="57.738096"
     inkscape:cx="7.5599999"
     inkscape:cy="7.5513401"
     inkscape:window-width="2560"
     inkscape:window-height="1365"
     inkscape:window-x="0"
     inkscape:window-y="0"
     inkscape:window-maximized="1"
     inkscape:current-layer="g10" /><defs
     id="defs6" /><g
     id="g8"
     transform="matrix(1.3333333,0,0,-1.3333333,0,15.12)"><g
       id="g10"
       transform="scale(0.1)"><path
         d="m 56.6875,113.406 -3.2305,-0.086 -4.5117,-0.449 -4.3828,-0.715 -4.4258,-1.187 -4.2304,-1.531 -4.125,-1.778 -3.9727,-2.16 -3.7656,-2.437 -3.6055,-2.805 L 17.0117,97.3086 13.9492,93.9609 11.1719,90.4492 8.55859,86.7578 6.28906,82.8203 4.41797,78.6563 2.89063,74.4297 1.62109,70.1172 0.707031,65.6992 0.167969,61.1953 0,56.7188 0.0898438,53.457 0.539063,48.9727 1.25,44.5586 l 1.19141,-4.4023 1.52734,-4.25 1.77734,-4.1407 2.16407,-3.9336 2.44144,-3.8007 2.7968,-3.6016 2.9493,-3.3125 3.3554,-3.1445 3.5078,-2.8125 3.6875,-2.5977 3.9375,-2.16797 4.1641,-1.96875 4.2305,-1.53515 4.3125,-1.25 4.4179,-0.910161 4.5,-0.546875 L 56.6875,0 l 3.2617,0.105469 4.4766,0.449219 4.4219,0.800782 4.4062,1.07422 4.2461,1.52344 4.1406,1.82812 3.9336,2.14844 3.8008,2.44141 3.6055,2.7812 3.3086,2.9727 3.1445,3.3164 2.8124,3.5195 2.598,3.7891 2.168,3.8555 1.972,4.1406 1.536,4.2187 1.25,4.3438 0.906,4.3945 0.547,4.5157 0.183,4.5 -0.105,3.2304 -0.449,4.5156 -0.801,4.3829 -1.074,4.4218 -1.524,4.2305 -1.824,4.1328 -2.149,3.9688 -2.441,3.7695 -2.785,3.5977 -2.9688,3.4335 -3.3204,3.0547 -3.5156,2.777 -3.789,2.614 -3.8555,2.269 -4.1406,1.871 -4.2227,1.528 -4.3437,1.269 -4.3829,0.914 -4.5156,0.543 -4.5117,0.164"
         style="fill:#2f2f2f;fill-opacity:1.0;fill-rule:nonzero;stroke:none"
         id="path12" /><path
         d="m 57.5117,103.227 3.8555,-0.25 4.0547,-0.649 3.8867,-0.801 3.7656,-1.359 3.7735,-1.5313 3.5117,-1.8633 3.3515,-2.1836 3.2305,-2.6132 2.9727,-2.6055 2.6054,-2.9492 2.4414,-3.2617 2.0704,-3.4258 1.8632,-3.5742 1.5355,-3.7149 1.281,-3.8555 0.789,-3.8828 0.539,-3.9375 0.113,-4.0507 v -0.1993 l 0.09,-0.6211 -0.293,-3.8554 -0.625,-4.0547 -0.82,-3.8867 L 100.176,40.332 98.6523,36.5625 96.75,33.125 94.5117,29.6953 91.9805,26.4648 89.3867,23.5742 86.3086,20.8867 83.1758,18.4453 79.7344,16.3789 76.1445,14.5117 72.375,12.9766 68.5625,11.6992 64.707,10.9063 60.7461,10.3711 56.6875,10.2539 h -0.168 l -0.6211,-0.0859 -3.8789,0.2929 -4.0586,0.625 -3.8515,0.8164 -3.8008,1.3282 -3.7695,1.5273 -3.5196,1.9024 -3.3086,2.1562 -3.2617,2.6094 -2.8711,2.5976 -2.6875,3.0743 -2.4453,3.1367 -2.0664,3.4375 -1.8906,3.5937 -1.5391,3.7696 -1.2383,3.8086 -0.8203,3.8554 -0.539,3.9688 -0.0938,4.0508 v 0.1718 l -0.0781,0.6211 0.25,3.875 0.6484,4.0625 0.8008,3.8477 1.3633,3.8047 1.5273,3.7695 1.8672,3.5195 2.1797,3.3047 2.6133,3.2617 2.6094,2.9493 2.9492,2.6132 3.2617,2.4414 3.4219,2.0704 3.5742,1.8906 3.7148,1.5391 3.8594,1.238 3.8789,0.821 3.9375,0.535 4.0508,0.093 h 0.2031 l 0.6211,0.079"
         style="fill:#ffffff;fill-opacity:1;fill-rule:nonzero;stroke:none"
         id="path14" /><path
         d="m 63.4375,45.2617 h -0.0859 l -1.2422,-0.7031 -2.0703,-0.7109 -2.1563,-0.3711 h -1.1953 l -2.1445,0.1757 -2.1641,0.5352 -1.9805,0.8242 -0.2812,0.1641 -0.0899,0.0859 -12.4101,-21.4844 2.5234,-1.3554 3.1524,-1.25 3.1328,-1.1055 3.0625,-0.6328 3.5195,-0.6172 2.8047,-0.1641 0.707,0.0782 h 0.0899 l 3.5078,0.0859 3.1523,0.4492 3.0586,0.6367 3.0664,0.9844 3.1446,1.2696 3.0586,1.621 0.1718,0.0782 -12.332,21.4062"
         style="fill:#2f2f2f;fill-opacity:1.0;fill-rule:nonzero;stroke:none"
         id="path16" /><path
         d="m 56.6875,63.9219 -1.2383,-0.2071 -1.1914,-0.164 h -0.0859 l -1.086,-0.543 h -0.0781 l -0.9883,-0.6172 v -0.0898 l -0.9101,-0.9141 h -0.0899 l -0.6211,-0.9883 v -0.0781 l -0.539,-1.082 v -0.0899 l -0.168,-1.1875 -0.2031,-1.2421 0.2031,-1.2813 0.168,-1.1602 v -0.0898 l 0.539,-1.0742 v -0.0781 l 0.6211,-0.9922 h 0.0899 l 0.9101,-0.918 v -0.0781 l 0.9883,-0.6485 h 0.0781 l 1.086,-0.5468 h 0.0859 l 1.1914,-0.1641 1.2383,-0.168 1.2813,0.168 1.164,0.1641 h 0.086 l 1.0703,0.5468 h 0.0859 l 0.9922,0.6485 v 0.0781 l 0.9062,0.918 h 0.0821 l 0.6523,0.9922 v 0.0781 l 0.5469,1.0742 v 0.0898 l 0.168,1.1602 0.164,1.2813 -0.164,1.2421 -0.168,1.1875 v 0.0899 l -0.5469,1.082 v 0.0781 l -0.6523,0.9883 h -0.0821 l -0.9062,0.9141 v 0.0898 l -0.9922,0.6172 h -0.0859 l -1.0703,0.543 h -0.086 l -1.164,0.164 -1.2813,0.2071"
         style="fill:#2f2f2f;fill-opacity:1.0;fill-rule:nonzero;stroke:none"
         id="path18" /><path
         d="m 37.8984,89.6563 h -0.0859 l -2.8008,-1.7266 -2.7031,-1.957 -2.2578,-2.0704 -2.1641,-2.4414 -2.2383,-2.6914 -1.6992,-2.7226 -1.5273,-2.7813 -1.2735,-3.1484 -1.082,-3.1406 -0.6133,-3.0547 -0.6367,-3.5235 -0.1992,-2.8007 0.0898,-0.7071 24.75,-0.0937 v 0.0937 l 0.1914,1.9766 0.5391,2.1641 0.8008,1.9765 1.2734,1.8125 1.4492,1.6211 1.6993,1.3281 0.6171,0.3711 0.2032,0.086 -12.3321,21.4297"
         style="fill:#2f2f2f;fill-opacity:1.0;fill-rule:nonzero;stroke:none"
         id="path20" /><path
         d="m 75.7695,89.6563 -12.125,-21.0665 -0.2929,-0.4492 0.2031,-0.0781 0.332,-0.293 0.9102,-0.6211 1.6211,-1.4492 1.3633,-1.6992 1.0664,-1.9023 0.7148,-2.0704 0.3711,-2.1445 v -0.9922 -0.0937 h 24.7461 l -0.0899,3.3203 -0.4492,3.1758 -0.6328,3.1484 -0.9883,3.0625 -1.2695,3.0547 -1.6211,3.0391 -1.6992,2.8007 -1.9844,2.6993 -2.0664,2.2617 -2.4414,2.164 -2.6875,2.2344 -2.7031,1.6992 -0.2774,0.1993"
         style="fill:#2f2f2f;fill-opacity:1.0;fill-rule:nonzero;stroke:none"
         id="path22" /></g></g></svg>
