<?xml version="1.0" encoding="UTF-8" standalone="no"?>
<!-- Created with Inkscape (http://www.inkscape.org/) -->

<svg
   version="1.1"
   id="svg2"
   xml:space="preserve"
   width="9.8933334"
   height="9.8933334"
   viewBox="0 0 9.8933334 9.8933334"
   sodipodi:docname="mast.svg"
   inkscape:version="1.1.1 (3bf5ae0d25, 2021-09-20)"
   xmlns:inkscape="http://www.inkscape.org/namespaces/inkscape"
   xmlns:sodipodi="http://sodipodi.sourceforge.net/DTD/sodipodi-0.dtd"
   xmlns="http://www.w3.org/2000/svg"
   xmlns:svg="http://www.w3.org/2000/svg"><sodipodi:namedview
     id="namedview7"
     pagecolor="#ffffff"
     bordercolor="#666666"
     borderopacity="1.0"
     inkscape:pageshadow="2"
     inkscape:pageopacity="0.0"
     inkscape:pagecheckerboard="0"
     showgrid="false"
     inkscape:zoom="88.241239"
     inkscape:cx="4.9466667"
     inkscape:cy="4.9410004"
     inkscape:window-width="2560"
     inkscape:window-height="1365"
     inkscape:window-x="0"
     inkscape:window-y="0"
     inkscape:window-maximized="1"
     inkscape:current-layer="g10" /><defs
     id="defs6" /><g
     id="g8"
     transform="matrix(1.3333333,0,0,-1.3333333,0,9.8933333)"><g
       id="g10"
       transform="scale(0.1)"><path
         d="m 6.03125,74.1602 18.35935,-18.3594 1.1719,0.8086 2.5195,1.2617 2.6993,1.0781 2.789,0.6289 2.7852,0.1836 2.9765,-0.0937 2.6993,-0.4492 2.7929,-0.8125 2.6094,-1.1641 2.4297,-1.3516 18.2734,18.2696 6.0235,-6.0313 -18.3594,-18.3594 0.8086,-1.1718 1.2617,-2.5196 1.0742,-2.6992 0.6367,-2.7891 0.1758,-2.7929 L 59.668,34.8281 59.2188,32.1289 58.4063,29.3359 57.2344,26.7266 55.8906,24.2969 74.1602,5.9375 68.2227,0 49.7656,18.3594 l -1.1601,-0.8086 -2.5196,-1.2617 -2.707,-1.086 -2.7891,-0.625 -2.7929,-0.1758 -2.9688,0.0899 -2.6992,0.4492 -2.7891,0.8125 -2.6093,1.1719 -2.4297,1.3437 L 5.9375,0 0,5.9375 l 18.3594,18.457 -0.8086,1.1602 -1.2617,2.5312 -1.0782,2.6954 -0.6289,2.7929 -0.1836,2.7891 0.0938,2.9687 0.4492,2.6993 0.8125,2.789 1.1641,2.6094 1.3515,2.4297 L 0,68.1289 6.03125,74.1602"
         style="fill:#2f2f2f;fill-opacity:1.0;fill-rule:nonzero;stroke:none"
         id="path12" /></g></g></svg>
