<?xml version="1.0" encoding="UTF-8" standalone="no"?>
<!-- Created with Inkscape (http://www.inkscape.org/) -->

<svg
   version="1.1"
   id="svg2"
   xml:space="preserve"
   width="13.226667"
   height="3.4000001"
   viewBox="0 0 13.226667 3.4000001"
   sodipodi:docname="milstolpe.svg"
   inkscape:version="1.1.1 (3bf5ae0d25, 2021-09-20)"
   xmlns:inkscape="http://www.inkscape.org/namespaces/inkscape"
   xmlns:sodipodi="http://sodipodi.sourceforge.net/DTD/sodipodi-0.dtd"
   xmlns="http://www.w3.org/2000/svg"
   xmlns:svg="http://www.w3.org/2000/svg"><sodipodi:namedview
     id="namedview7"
     pagecolor="#ffffff"
     bordercolor="#666666"
     borderopacity="1.0"
     inkscape:pageshadow="2"
     inkscape:pageopacity="0.0"
     inkscape:pagecheckerboard="0"
     showgrid="false"
     inkscape:zoom="89.440519"
     inkscape:cx="6.6133337"
     inkscape:cy="1.6994535"
     inkscape:window-width="2560"
     inkscape:window-height="1365"
     inkscape:window-x="0"
     inkscape:window-y="0"
     inkscape:window-maximized="1"
     inkscape:current-layer="g10" /><defs
     id="defs6" /><g
     id="g8"
     transform="matrix(1.3333333,0,0,-1.3333333,0,3.4)"><g
       id="g10"
       transform="scale(0.1)"><path
         d="M 99.2188,8.49609 H 24.7266 L 24.3125,7.22656 23.3047,5.59766 22.1836,4.10156 20.7656,2.83203 19.2031,1.69922 17.5039,0.917969 15.6602,0.351563 13.8125,0 H 12.7539 L 10.8438,0.136719 9,0.546875 7.23047,1.19141 5.60156,2.1875 4.10547,3.32031 2.83203,4.74609 1.69531,6.30469 0.921875,8.00391 0.347656,9.85156 0,11.6797 V 12.75 l 0.144531,1.9141 0.417969,1.8437 0.63672,1.7695 0.99219,1.629 1.14062,1.4882 1.41406,1.2813 1.5625,1.1328 1.69922,0.7773 1.84766,0.5625 1.82813,0.3594 h 1.0703 l 1.9141,-0.1445 1.8476,-0.4258 1.7657,-0.6289 1.6328,-1.0039 1.4804,-1.125 1.2852,-1.418 1.1328,-1.5625 0.7773,-1.6992 0.1368,-0.4961 H 99.2188 V 8.49609"
         style="fill:#2f2f2f;fill-opacity:1.0;fill-rule:nonzero;stroke:none"
         id="path12" /></g></g></svg>
