<?xml version="1.0" encoding="UTF-8" standalone="no"?>
<!-- Created with Inkscape (http://www.inkscape.org/) -->

<svg
   version="1.1"
   id="svg2"
   xml:space="preserve"
   width="14.32"
   height="10.213333"
   viewBox="0 0 14.32 10.213333"
   sodipodi:docname="minnessten.svg"
   inkscape:version="1.1.1 (3bf5ae0d25, 2021-09-20)"
   xmlns:inkscape="http://www.inkscape.org/namespaces/inkscape"
   xmlns:sodipodi="http://sodipodi.sourceforge.net/DTD/sodipodi-0.dtd"
   xmlns="http://www.w3.org/2000/svg"
   xmlns:svg="http://www.w3.org/2000/svg"><sodipodi:namedview
     id="namedview7"
     pagecolor="#ffffff"
     bordercolor="#666666"
     borderopacity="1.0"
     inkscape:pageshadow="2"
     inkscape:pageopacity="0.0"
     inkscape:pagecheckerboard="0"
     showgrid="false"
     inkscape:zoom="82.611734"
     inkscape:cx="7.1599998"
     inkscape:cy="5.1082332"
     inkscape:window-width="2560"
     inkscape:window-height="1365"
     inkscape:window-x="0"
     inkscape:window-y="0"
     inkscape:window-maximized="1"
     inkscape:current-layer="g10" /><defs
     id="defs6" /><g
     id="g8"
     transform="matrix(1.3333333,0,0,-1.3333333,0,10.213333)"><g
       id="g10"
       transform="scale(0.1)"><path
         d="m 86.4844,60.4727 h 1.4453 l 1.3476,-0.1797 1.3477,-0.1797 1.2695,-0.1797 1.0743,-0.2695 1.2695,-0.3633 0.9765,-0.4492 0.8985,-0.4493 1.0937,-0.4492 0.8985,-0.539 0.7226,-0.543 0.8985,-0.5391 0.7224,-0.6289 0.625,-0.6289 0.625,-0.7226 0.625,-0.7188 0.547,-0.8125 0.547,-0.8086 0.352,-0.8086 0.449,-0.8984 0.449,-0.9063 0.273,-0.9843 0.352,-1.1719 0.195,-1.1719 0.352,-2.4258 0.273,-2.3398 h -13.32 l -0.0977,0.8984 -0.0781,0.8985 -0.0977,0.4492 -0.0976,0.4492 -0.2539,0.7227 -0.1953,0.7226 -0.2539,0.625 -0.4493,0.5391 -0.4492,0.5429 -0.4687,0.4493 -0.5274,0.3632 -0.5469,0.3555 -0.625,0.1797 -0.5468,0.1836 -0.8985,0.1797 H 86.4844 85.6836 L 85.0586,48.7695 84.3359,48.6836 83.8867,48.5 83.3398,48.2305 82.8906,47.9648 82.6172,47.6914 82.2656,47.4219 81.9922,46.9727 81.7188,46.6094 81.4453,46.1641 81.2695,45.7148 81.1719,45.2578 81.0938,44.8086 v -0.5352 l -0.0977,-0.6289 0.0977,-0.6328 0.0781,-0.6289 0.0976,-0.3633 0.1758,-0.4492 0.2735,-0.4453 0.2734,-0.3633 0.5469,-0.4492 0.3515,-0.3594 0.4492,-0.2695 0.4493,-0.2734 0.625,-0.3555 0.8984,-0.2774 0.8203,-0.3554 0.8008,-0.2735 0.8984,-0.2656 0.7227,-0.1836 3.418,-1.0781 1.7187,-0.4492 1.6211,-0.625 0.9961,-0.2735 0.9766,-0.3593 1.1718,-0.5391 1.0938,-0.4492 0.9762,-0.6328 0.625,-0.4492 0.723,-0.5391 0.723,-0.5469 0.82,-0.7226 0.625,-0.8008 0.723,-0.8203 0.351,-0.711 0.547,-0.7148 0.352,-0.7227 0.273,-0.7226 0.274,-0.8985 0.273,-0.9961 0.176,-0.8984 0.176,-1.3477 0.097,-1.3476 0.078,-1.3477 -0.078,-1.3476 -0.097,-1.543 -0.079,-1.3476 -0.195,-1.1719 -0.351,-1.0742 -0.274,-1.1719 -0.273,-0.9961 -0.45,-0.9766 -0.527,-0.99607 -0.449,-0.89844 -0.547,-0.72265 -0.449,-0.82031 -0.625,-0.70313 -0.645,-0.64453 -0.801,-0.625 -0.625,-0.625 -0.82,-0.54688 L 99.4531,3.04688 98.3789,2.51953 97.2852,2.07031 96.2109,1.60156 95.1367,1.25 93.7891,0.898438 92.4414,0.625 91.0742,0.351563 89.4531,0.175781 88.0273,0 h -1.621 -1.2696 L 83.8867,0.078125 82.6172,0.253906 81.2695,0.527344 80.2734,0.703125 79.375,0.976563 78.3984,1.25 77.5,1.60156 76.5039,2.07031 75.5078,2.51953 74.707,3.04688 l -0.8984,0.625 -0.7227,0.64453 -0.8203,0.625 -0.7226,0.72265 -0.625,0.80078 -0.625,0.72266 -0.625,0.82031 -0.5469,0.89844 -0.4492,0.89844 -0.3516,0.89841 -0.3711,0.8985 -0.3515,0.8984 -0.2735,0.9961 -0.1758,1.0742 -0.1953,1.1719 -0.2539,2.3437 -0.0976,2.3438 h 13.6718 v -0.9961 l 0.0977,-0.9961 0.0977,-0.5273 0.0781,-0.4688 0.2734,-0.8984 0.3711,-0.8008 0.3516,-0.7227 0.3515,-0.625 0.5469,-0.625 0.5469,-0.5468 0.625,-0.3711 0.5469,-0.3516 0.625,-0.2734 0.625,-0.0782 0.8203,-0.1953 0.8984,-0.0781 h 1.0742 1.0742 l 0.5469,0.0781 0.8008,0.1953 0.4492,0.2539 0.5469,0.2735 0.3516,0.2734 0.4492,0.3711 0.2734,0.3516 0.2735,0.4492 0.2734,0.4492 0.2734,0.625 0.0782,0.4492 0.0976,0.5469 0.0977,0.625 v 0.625 0.5469 l -0.0977,0.5469 v 0.3515 l -0.1758,0.3711 -0.2734,0.5274 -0.1758,0.4492 -0.2734,0.4492 -0.4492,0.3711 -0.3711,0.3516 -0.2539,0.2734 -0.6446,0.2734 -0.5273,0.3516 -0.3711,0.0976 -0.3516,0.0977 -0.9961,0.3516 -1.0742,0.3515 -4.4141,1.4453 -1.621,0.5469 -1.6211,0.5274 -1.0743,0.4492 -1.0742,0.4492 -0.8984,0.4687 -0.9961,0.5274 -0.9961,0.5469 -0.7227,0.539 -0.7226,0.5352 -0.7031,0.625 -0.8204,0.7226 -0.8007,0.8204 -0.6446,0.8007 -0.5273,0.8203 -0.5469,0.8985 -0.4492,0.8008 -0.3516,0.8984 -0.1953,0.9961 -0.1758,0.8984 -0.2734,1.3516 -0.0781,1.4414 -0.0977,1.3477 v 1.4414 l 0.1758,1.3476 0.1953,1.4414 0.1758,1.0821 0.2734,1.1679 0.3516,1.0782 0.3516,0.8085 0.4687,0.9063 0.3516,0.8086 0.4492,0.7187 0.4492,0.8086 0.625,0.7188 0.5469,0.7226 0.7226,0.7188 0.8008,0.8086 0.8985,0.7265 1.0937,0.7149 0.8984,0.6328 1.0743,0.5391 1.1718,0.4492 1.0743,0.3633 1.0742,0.2695 1.1719,0.1797 1.2695,0.2695 1.5234,0.0899 z M 20.793,76.582 28.168,20.957 h 1.6211 l 7.2031,55.625 H 57.8711 V 0 H 45.3594 V 57.5938 H 43.6523 L 35.7305,0 H 22.0508 l -7.832,57.5938 H 12.5117 V 0 H 0 v 76.582 h 20.793"
         style="fill:#2f2f2f;fill-opacity:1.0;fill-rule:nonzero;stroke:none"
         id="path12" /></g></g></svg>
