<?xml version="1.0" encoding="UTF-8" standalone="no"?>
<!-- Created with Inkscape (http://www.inkscape.org/) -->

<svg
   version="1.1"
   id="svg2"
   xml:space="preserve"
   width="19.186666"
   height="21.306667"
   viewBox="0 0 19.186666 21.306667"
   xmlns="http://www.w3.org/2000/svg"
   xmlns:svg="http://www.w3.org/2000/svg"><defs
     id="defs6" /><g
     id="g8"
     transform="matrix(1.3333333,0,0,-1.3333333,0,21.306667)"><g
       id="g10"
       transform="scale(0.1)"><path
         d="m 105.84,159.664 h 0.82 l 0.625,0.086 h 2.246 l 0.801,-0.18 0.918,-0.269 1.152,-0.36 1.27,-0.535 1.348,-0.633 1.347,-0.808 0.625,-0.449 0.449,-0.543 0.821,-1.262 0.449,-0.715 0.352,-0.906 0.449,-0.895 0.273,-0.902 0.274,-0.902 0.175,-0.809 0.274,-1.797 0.176,-1.801 0.097,-2.074 v -0.988 -0.813 -0.718 l -0.097,-0.715 v -0.543 l -0.079,-0.543 -0.097,-0.449 -0.176,-0.45 -0.098,-0.359 -0.254,-0.539 -0.371,-0.992 -0.273,-0.988 -0.273,-0.899 -0.352,-1.082 -0.098,-0.539 -0.254,-0.449 -0.371,-0.992 -0.449,-0.899 -0.351,-0.543 -0.547,-0.715 -0.45,-0.726 -0.351,-0.446 -0.274,-0.269 -0.449,-0.18 -0.996,-0.453 -1.172,-0.359 -1.074,-0.27 -0.898,-0.09 -0.372,-0.089 h -0.273 l -0.352,-0.27 -0.097,-0.543 0.097,-0.809 0.176,-1.078 0.371,-1.347 0.254,-0.723 0.196,-0.719 0.273,-1.172 0.176,-0.449 0.078,-0.449 0.098,-0.363 0.175,-0.539 0.371,-1.168 0.352,-0.723 0.449,-0.898 0.352,-0.629 0.371,-0.543 0.176,-0.356 0.625,-0.992 0.371,-0.629 0.449,-0.723 0.527,-0.718 0.371,-0.543 0.45,-0.719 0.449,-0.629 0.273,-0.273 0.078,-0.27 0.547,-0.535 0.371,-0.274 0.176,-0.179 0.352,-0.27 0.371,-0.179 0.351,-0.09 0.899,-0.094 h 0.371 l 0.254,0.094 0.547,0.09 0.547,0.273 0.449,0.266 0.527,0.363 0.645,0.449 0.703,0.449 0.644,0.543 0.723,0.629 0.703,0.719 0.547,0.449 0.723,0.629 0.8,0.629 0.45,0.449 0.82,0.629 0.449,0.363 0.449,0.45 0.547,0.449 0.449,0.273 0.801,0.629 0.996,0.813 1.075,0.898 0.546,0.449 0.352,0.36 0.645,0.539 0.449,0.359 0.351,0.274 0.352,0.355 0.449,0.363 0.371,0.18 0.449,0.363 0.625,0.266 0.899,0.269 h 1.094 l 0.449,-0.085 0.351,-0.094 0.45,-0.27 0.449,-0.359 0.273,-0.356 0.352,-0.457 0.195,-0.269 0.078,-0.266 v -0.363 -0.359 l -0.078,-0.45 -0.273,-1.172 -0.547,-1.261 -0.274,-0.629 -0.273,-0.449 -0.449,-0.899 -0.352,-0.629 -0.625,-0.992 -0.547,-0.992 -0.547,-0.719 -0.8,-1.258 -0.352,-0.543 -0.469,-0.629 -0.625,-0.812 -0.527,-0.895 -0.547,-0.718 -0.351,-0.543 -1.094,-1.442 -1.074,-1.527 -1.075,-1.352 -0.898,-1.1676 -0.918,-0.9921 -0.449,-0.629 -0.703,-0.7187 -0.645,-0.7227 -0.449,-0.5429 -0.723,-0.8047 -0.703,-0.6289 -0.644,-0.6289 -0.625,-0.6328 -0.547,-0.4532 -0.528,-0.4492 -0.449,-0.2695 -0.547,-0.2656 -0.625,-0.2735 -0.625,-0.2695 -0.722,-0.2695 -0.547,-0.2735 -0.625,-0.1758 -0.371,-0.0937 h -0.45 l -0.449,-0.0859 h -0.351 -0.371 l -0.352,0.0859 h -0.098 l -0.254,0.0937 -0.449,0.0899 -0.547,0.1797 -0.625,0.2695 -0.273,0.0859 -0.449,0.1797 -0.723,0.2774 -0.82,0.4453 -0.899,0.4492 -0.351,0.1836 -0.547,0.2656 -0.528,0.3633 -0.898,0.4492 -1.895,0.8985 -1.718,0.8086 -0.625,0.3632 -0.449,0.1797 -0.625,0.1836 -0.372,0.086 -0.449,0.1796 -0.722,0.1797 h -0.352 l -0.449,-0.0898 -0.449,-0.1758 -0.274,-0.2734 -0.176,-0.1836 -0.371,-0.3555 -0.273,-0.3594 -0.176,-0.3633 -0.449,-0.5351 -0.352,-0.457 -0.449,-0.6289 -0.371,-0.7188 -0.3517,-0.5391 -0.5468,-0.8984 -0.625,-1.0781 -0.625,-1.0821 -0.4492,-0.7226 -0.6446,-1.0781 -0.3515,-0.7188 -0.3516,-0.6289 -0.2734,-0.4531 -0.625,-1.168 -0.5469,-0.9922 -0.5469,-0.9883 -0.2734,-0.6328 -0.3516,-0.7187 -0.3516,-0.8047 -0.2734,-0.4492 -0.3711,-0.7227 -0.3515,-0.8984 -0.1758,-0.5469 -0.0977,-0.3516 -0.1758,-0.5468 v -0.3594 -0.3633 -0.3515 l 0.2735,-0.4493 0.5273,-0.5468 0.3711,-0.3594 0.4492,-0.1758 0.9766,-0.4609 0.8203,-0.4493 0.4492,-0.2617 0.2735,-0.1875 0.5273,-0.3515 0.3711,-0.2735 0.5469,-0.4492 0.625,-0.625 0.7226,-0.6328 0.625,-0.6367 0.4492,-0.4492 0.8007,-0.8086 0.82,-0.8985 0.899,-0.9883 0.351,-0.4492 0.45,-0.5468 0.644,-0.625 1.973,-2.4297 2.168,-2.5196 0.722,-0.8125 0.528,-0.625 0.449,-0.5468 0.625,-0.711 0.449,-0.6367 0.996,-1.1719 0.547,-0.625 0.352,-0.5468 0.547,-0.625 0.625,-0.8985 0.449,-0.6328 0.449,-0.5391 0.274,-0.3593 0.449,-0.5391 0.273,-0.3594 0.625,-0.8984 0.625,-0.8125 0.547,-0.7227 0.449,-0.625 0.371,-0.6328 0.254,-0.3633 0.098,-0.1757 0.352,-0.4493 0.273,-0.4492 0.176,-0.5469 0.195,-0.4492 0.078,-0.2617 0.098,-0.5469 0.078,-0.3515 0.098,-0.6367 0.371,-1.7969 0.175,-0.8985 0.079,-0.6328 0.097,-1.1718 0.098,-0.5391 0.078,-0.6328 0.098,-0.8125 0.175,-1.1602 0.098,-0.9101 0.078,-1.5235 0.176,-1.6211 0.195,-1.7968 0.078,-0.7227 0.098,-0.8984 0.078,-1.1719 0.098,-1.1719 0.098,-0.8984 0.078,-0.7227 0.175,-0.9844 v -0.8125 l 0.098,-1.082 0.098,-1.4375 0.078,-0.9961 v -0.8008 l 0.098,-0.6328 0.175,-1.4375 0.098,-0.9062 0.176,-1.0742 0.078,-0.7227 0.098,-0.625 0.097,-0.4609 0.078,-0.625 V 9.90234 l 0.098,-0.63281 0.098,-0.8125 0.078,-0.80078 0.097,-0.45703 0.079,-0.8125 0.097,-0.35156 v -0.1836 l 0.176,-0.625 0.176,-0.8125 0.273,-0.99609 0.274,-1.07422 0.175,-0.53516 0.098,-0.36328 0.176,-0.35937 V 0.8125 l 0.098,-0.273437 V 0.449219 l 0.078,-0.175781 h -0.078 L 125.547,0.1875 h -0.176 -0.547 l -0.351,-0.0976562 h -0.547 -0.547 -0.625 L 122.129,0 h -0.82 -1.797 -1.875 -1.719 -1.523 -1.172 -0.45 l -0.449,0.0898438 h -0.644 -0.254 L 111.328,0.1875 111.23,0.449219 v 0.1875 l -0.078,0.359375 V 1.44531 l -0.175,0.625 -0.098,0.72266 -0.274,0.8125 -0.175,0.72266 -0.176,0.625 -0.274,0.89843 -0.175,0.72266 -0.098,0.53516 -0.176,0.8125 -0.176,0.89843 -0.097,0.63282 v 0.44921 l -0.098,0.62496 -0.176,1.1719 -0.175,1.3594 -0.098,0.5352 -0.078,0.7226 -0.098,0.8984 -0.273,3.1446 -0.078,0.9961 v 0.8125 l -0.098,0.625 v 0.7226 l -0.176,0.8086 -0.176,1.4375 -0.273,1.3477 -0.176,1.2578 -0.273,1.0859 -0.098,0.6328 -0.273,0.8985 -0.176,0.7148 -0.078,0.5469 v 0.3594 l -0.098,0.539 -0.176,1.0821 -0.273,1.3476 -0.098,0.625 -0.254,0.7227 -0.273,0.7226 -0.449,0.8125 -0.45,0.625 -0.371,0.6328 -0.625,0.9883 -0.449,0.7227 -0.371,0.4492 -0.254,0.4492 -0.195,0.1758 -0.254,0.3594 -0.371,0.3633 -0.528,0.5351 -0.468,0.4492 -0.4495,0.461 -0.2539,0.2617 -0.4493,0.3633 -0.8203,0.7226 -0.3515,0.3594 -0.5469,0.4492 -0.8984,0.7227 -0.9961,0.8008 -1.0743,0.9101 -1.1718,0.8086 -0.4492,0.3516 -0.3516,0.2734 -0.6445,0.4492 -0.8008,0.6367 -0.4492,0.3594 -0.625,0.4492 -0.5469,0.4493 -0.7227,0.539 -0.625,0.5352 -0.8203,0.6367 -1.5234,0.9844 -1.4453,0.8125 -1.25,0.4492 H 81.8945 L 80.8203,54.7266 79.7422,54.0938 78.8438,53.1953 78.3945,52.4727 77.7578,51.75 76.6797,50.1367 75.7813,48.7813 75.0586,47.707 74.5195,46.8945 74.25,46.4453 73.8008,45.8125 72.8984,44.375 71.9961,43.0195 71.0977,41.7578 70.2891,40.5977 69.9258,39.9609 69.4766,39.5117 68.5781,38.5273 67.8594,37.5313 67.3203,36.6328 66.6875,35.8203 66.1484,35.2852 65.6094,34.7461 64.8867,34.1992 64.4375,33.9375 63.9023,33.6641 62.8164,33.125 62.2813,32.9414 H 61.918 l -0.7188,-0.1758 -0.539,-0.0898 h -0.543 L 58.8555,32.4922 58.1406,32.4023 57.3281,32.3164 56.8789,32.2266 H 56.6094 56.4297 56.0703 55.5273 54.6289 54 53.1875 51.2109 L 50.3086,32.1289 H 49.6797 48.7773 L 48.418,32.043 H 48.2383 47.9688 47.7891 47.25 46.5273 44.0078 l -2.25,-0.0899 -1.0781,-0.0859 H 39.7813 L 38.1602,31.6797 36.8984,31.5039 35.8203,31.3281 34.5625,31.1445 33.8398,31.0547 33.0273,30.8711 31.2305,30.5195 30.4219,30.332 29.6953,30.2461 28.9805,30.0703 28.2578,29.9727 27.4453,29.8828 26.5469,29.707 25.5586,29.5234 24.5703,29.4336 23.4922,29.2578 22.3203,29.0742 19.8008,28.7109 19.0781,28.625 18.5391,28.5352 H 18.3594 18 L 17.2813,28.3594 16.1953,28.1758 15.5703,28 14.8477,27.9023 13.8555,27.7266 12.6914,27.4531 10.0781,27.0039 7.73828,26.4648 5.58203,26.0156 4.76953,25.8398 3.77734,25.5664 2.60547,25.207 1.89063,25.1172 1.34766,25.293 0.984375,25.6563 0.71875,26.2891 0.628906,27.1875 0.539063,28.625 v 1.082 l -0.089844,0.7227 v 1.3476 L 0.355469,32.9492 0.269531,33.75 0.179688,34.2969 0.0898438,34.5625 0,34.6602 h 0.179688 l 0.449218,0.1757 0.812504,0.1836 1.07812,0.3516 1.16797,0.3633 0.99219,0.2734 0.80859,0.1758 0.54297,0.1836 1.79688,0.5391 0.80859,0.1757 0.72266,0.2735 1.26172,0.3593 0.5352,0.1758 0.4492,0.1875 0.457,0.086 0.7148,0.2734 0.9922,0.2656 3.2383,1.0821 0.9024,0.3632 0.7187,0.2618 0.543,0.1875 1.3476,0.3593 0.8086,0.1758 1.0782,0.3633 0.9921,0.2734 0.8125,0.2618 1.3477,0.4492 1.4375,0.5468 1.4414,0.3633 0.8125,0.1758 1.1719,0.3594 0.8086,0.1758 0.6289,0.1875 0.4492,0.1757 0.5391,0.086 0.5429,0.1875 0.4492,0.0859 0.629,0.1758 0.8984,0.1875 0.8086,0.1758 0.6328,0.0859 0.3594,0.0977 0.2695,0.0898 h 0.2734 l 0.4493,0.086 h 0.7187 0.3594 l 0.543,0.0898 0.7187,0.0859 0.7227,0.0977 h 0.4492 0.1797 0.2695 0.5391 0.8125 0.625 l 0.7226,0.0898 1.6211,0.1758 1.7969,0.2735 1.8906,0.4492 1.8008,0.5351 0.6289,0.1875 0.7227,0.4493 0.8046,0.625 0.9922,0.7226 1.0782,0.9844 1.0859,1.1719 0.7187,0.8984 0.6289,0.7227 0.3594,0.6367 0.1836,0.4492 0.4492,1.4336 0.4453,1.1719 0.2696,0.9882 0.2734,0.7227 0.1758,0.3594 0.2734,0.6367 0.3594,0.625 0.2695,0.8086 0.2696,0.625 0.3633,0.9101 0.3593,1.0743 0.3594,1.082 0.2695,0.8125 0.0899,0.5351 0.1797,1.2618 v 0.6328 0.7148 l -0.086,0.7227 -0.0937,0.8984 -0.3594,1.8047 -0.0898,0.7227 -0.0938,0.625 v 1.1718 1.25 0.7227 0.8984 L 63,79.4727 63.2695,81 l 0.2696,1.1719 0.1836,0.5429 0.0859,0.3594 0.3633,0.8086 0.3594,0.9024 0.1796,0.539 0.1758,0.4492 0.1797,0.7227 -0.0859,0.7148 -0.3594,0.543 -0.2695,0.3633 -0.4493,0.3555 -0.8125,0.9023 -0.7226,0.7188 -0.6289,0.8125 -0.3594,0.539 -0.6328,0.7188 -1.3477,1.8007 -1.1718,1.711 -0.8086,1.6211 -0.6289,1.3476 -0.2696,1.2578 v 0.5427 0.45 0.722 l 0.0899,0.449 0.1797,0.629 0.1797,0.719 0.3593,0.809 0.7188,1.711 0.4531,0.902 0.5391,0.898 1.3515,1.891 1.5274,1.891 0.8125,0.898 0.5351,0.629 0.9063,0.992 0.9883,0.992 1.0781,0.989 0.4492,0.449 0.6328,0.449 0.8086,0.629 2.5195,1.98 0.8125,0.543 0.6289,0.539 0.5391,0.356 1.1719,0.906 1.0781,0.715 0.9922,0.723 0.8984,0.633 0.9024,0.535 0.8086,0.543 0.8125,0.449 0.4492,0.269 0.5312,0.274 1.4454,0.715 0.625,0.269 0.4492,0.18 0.8203,0.269 0.625,0.274 0.8008,0.363 2.2656,0.809 0.9766,0.449 0.7226,0.269 0.9961,0.36 0.625,0.269 0.8203,0.27 0.8008,0.363 0.4492,0.18 0.8203,0.269 0.4492,0.18 0.4493,0.266 0.4492,0.273 0.3515,0.09 0.4493,0.27 0.3711,0.179 0.2734,0.18 0.1758,0.094 0.1758,0.09 v 0.179 l 0.1757,0.266 0.0977,0.269 v 0.364 l 0.0781,0.449 v 0.539 l 0.0977,0.269 -0.0977,0.364 v 0.629 l -0.0781,0.543 -0.0977,0.355 -0.1757,0.363 -0.3711,0.895 -0.1758,0.633 -0.0781,0.629 -0.1954,0.629 -0.0781,0.722 -0.1758,0.813 -0.2734,0.718 -0.2734,0.719 -0.0977,0.36 -0.1758,0.359 -0.3515,1.078 -0.3711,1.356 -0.1758,1.347 0.0976,1.352 0.1758,1.261 0.3516,1.344 0.5469,1.356 0.7226,1.347 0.7227,1.172 0.8984,0.992 0.8985,0.809 0.8984,0.719 0.8008,0.539 0.7225,0.269 0.449,0.09 0.45,0.18 1.171,0.18 h 0.723 l 0.723,0.089 1.621,0.18"
         style="fill:#000000;fill-opacity:1;fill-rule:nonzero;stroke:none"
         id="path12" /></g></g></svg>
