<?xml version="1.0" encoding="UTF-8" standalone="no"?>
<!-- Created with Inkscape (http://www.inkscape.org/) -->

<svg
   version="1.1"
   id="svg2"
   xml:space="preserve"
   width="16.48"
   height="16.613333"
   viewBox="0 0 16.48 16.613333"
   sodipodi:docname="rastplats.svg"
   inkscape:version="1.1.1 (3bf5ae0d25, 2021-09-20)"
   xmlns:inkscape="http://www.inkscape.org/namespaces/inkscape"
   xmlns:sodipodi="http://sodipodi.sourceforge.net/DTD/sodipodi-0.dtd"
   xmlns="http://www.w3.org/2000/svg"
   xmlns:svg="http://www.w3.org/2000/svg"><sodipodi:namedview
     id="namedview7"
     pagecolor="#ffffff"
     bordercolor="#666666"
     borderopacity="1.0"
     inkscape:pageshadow="2"
     inkscape:pageopacity="0.0"
     inkscape:pagecheckerboard="0"
     showgrid="false"
     inkscape:zoom="52.548156"
     inkscape:cx="8.2305457"
     inkscape:cy="8.3161815"
     inkscape:window-width="2560"
     inkscape:window-height="1365"
     inkscape:window-x="0"
     inkscape:window-y="0"
     inkscape:window-maximized="1"
     inkscape:current-layer="g8" /><defs
     id="defs6" /><g
     id="g8"
     transform="matrix(1.3333333,0,0,-1.3333333,0,16.613333)"><g
       id="g10"
       transform="scale(0.1)"
       style="fill:#2f2f2f;fill-opacity:1.0"><path
         d="M 51.0313,26.1016 H 30.6016 V 10.168 H 79.3867 V 47.6055 L 45.3594,43.1055 75.957,64.6211 51.5703,63.4492 77.043,80.4609 59.4922,77.043 l 1.3476,1.5273 0.7227,0.9883 0.8125,1.082 0.7148,0.9883 0.7227,1.082 0.7188,1.0782 0.7226,1.0781 0.7188,1.1719 0.7226,1.082 0.7188,1.1641 0.7226,1.1718 0.625,1.1719 0.7188,1.082 0.6367,1.168 0.625,1.168 0.6367,1.082 0.625,1.168 0.5352,1.082 0.6367,1.1719 0.5351,1.0781 0.6368,1.2581 0.625,1.261 0.6328,1.262 0.625,1.258 0.539,1.258 0.6328,1.262 0.625,1.261 0.6368,1.258 0.625,1.258 0.6328,1.262 0.539,1.265 0.5469,1.168 0.4492,1.078 0.4453,1.078 0.4532,1.082 0.3593,0.899 0.3516,0.992 0.2734,0.899 1.2618,3.96 1.6211,-4.14 0.3593,-0.899 0.3594,-0.992 0.4531,-0.988 0.4493,-0.988 0.3593,-1.086 0.5352,-1.078 0.4492,-1.168 0.4531,-1.172 0.5469,-1.258 0.5352,-1.258 0.539,-1.262 0.5352,-1.171 0.5469,-1.262 0.539,-1.258 0.625,-1.258 0.5469,-1.262 0.625,-1.261 0.6328,-1.2581 0.5391,-1.0781 0.6328,-1.1719 0.5351,-1.082 0.625,-1.168 0.6368,-1.082 0.625,-1.168 0.6367,-1.168 0.625,-1.082 0.633,-1.1719 0.625,-1.1718 0.722,-1.1641 0.723,-1.082 0.723,-1.1719 0.625,-1.0781 0.808,-1.0782 0.727,-1.082 0.723,-1.082 0.711,-0.9883 0.812,-1.082 1.348,-1.4336 -18.6253,3.4179 26.5503,-17.0117 -24.3042,1.1719 30.6052,-21.5156 -34.0232,4.5 V 10.168 H 123.574 V 0 H 0 V 10.168 H 20.3438 V 26.1016 H 0 V 36.2695 H 51.0313 V 26.1016"
         style="fill:#2f2f2f;fill-opacity:1.0;fill-rule:nonzero;stroke:none"
         id="path12" /></g></g></svg>
