<?xml version="1.0" encoding="UTF-8" standalone="no"?>
<!-- Created with Inkscape (http://www.inkscape.org/) -->

<svg
   version="1.1"
   id="svg2"
   xml:space="preserve"
   width="8.3199997"
   height="8.3199997"
   viewBox="0 0 8.3199997 8.3199997"
   xmlns="http://www.w3.org/2000/svg"
   xmlns:svg="http://www.w3.org/2000/svg"><defs
     id="defs6" /><g
     id="g8"
     transform="matrix(1.3333333,0,0,-1.3333333,0,8.32)"><g
       id="g10"
       transform="scale(0.1)"><path
         d="m 31.1445,62.3633 h 0.086 l 3.332,-0.1797 3.3242,-0.543 3.2461,-0.8984 3.0664,-1.1719 2.9688,-1.6172 2.7734,-1.8008 2.6172,-2.164 2.2461,-2.4258 2.0703,-2.6992 1.7969,-2.793 1.3672,-3.0586 1.1718,-3.1484 0.7032,-3.2422 0.3711,-3.3281 0.0781,-2.0742 v -0.086 l -0.1758,-3.332 -0.5273,-3.3281 -0.918,-3.2422 -1.1524,-3.0664 -1.621,-2.9688 -1.8165,-2.793 L 54.0039,9.80469 51.5625,7.55859 48.8672,5.48828 46.0742,3.67188 43.0273,2.32422 39.8672,1.15234 36.6367,0.449219 33.3008,0.078125 31.2305,0 h -0.086 L 27.8125,0.175781 24.4805,0.703125 21.2383,1.60156 18.1836,2.77344 15.2109,4.39453 12.4219,6.21094 9.80859,8.35938 7.5625,10.8008 5.49219,13.4961 3.69141,16.2891 2.33984,19.3359 1.17188,22.4883 0.449219,25.7305 0.09375,29.0625 0,31.1328 v 0.086 l 0.179688,3.332 0.542968,3.332 0.898434,3.2422 1.17188,3.0547 1.61719,2.9726 1.80078,2.7891 2.16015,2.6133 2.42971,2.2461 2.6992,2.0703 2.7891,1.8008 3.0625,1.3476 3.1484,1.1719 3.2422,0.7188 3.3281,0.3593 2.0742,0.0938"
         style="fill:#000000;fill-opacity:1;fill-rule:nonzero;stroke:none"
         id="path12" /><path
         d="m 31.1445,51.0195 h 0.086 l 2.6992,-0.1797 2.6094,-0.539 2.5195,-0.9024 2.3477,-1.1679 2.1484,-1.5274 1.9922,-1.8008 1.6992,-2.0703 1.4453,-2.25 1.0742,-2.4336 0.8203,-2.5195 0.3516,-2.6992 0.0977,-1.7109 v -0.086 L 50.8594,28.4336 50.3125,25.8203 49.4141,23.3008 48.2422,20.957 46.7188,18.8086 44.9023,16.8164 42.832,15.1172 40.5859,13.6719 38.1602,12.5977 35.6406,11.7773 32.9375,11.4258 31.2305,11.3281 h -0.086 l -2.7031,0.1758 -2.6094,0.5469 -2.5195,0.8984 -2.3398,1.1719 -2.1641,1.5234 -1.9766,1.7969 -1.7109,2.0703 -1.4375,2.2656 -1.082,2.4219 -0.8086,2.5235 -0.3633,2.6953 -0.0859,1.7148 v 0.086 l 0.1757,2.7031 0.543,2.6094 0.8984,2.5195 1.1719,2.3398 1.5274,2.1602 1.8007,1.9805 2.0704,1.7109 2.25,1.4375 2.4296,1.082 2.5235,0.8086 2.6953,0.3633 1.7148,0.0859"
         style="fill:#ffffff;fill-opacity:1;fill-rule:nonzero;stroke:none"
         id="path14" /><path
         d="m 31.1445,39.6836 h 0.086 l 1.707,-0.1797 1.7148,-0.543 1.5313,-0.8125 1.2539,-1.1679 1.082,-1.3516 0.7227,-1.6211 0.3633,-1.707 0.0859,-1.082 v -0.086 l -0.1836,-1.7148 -0.539,-1.7071 -0.8086,-1.5312 -1.1719,-1.2578 -1.3477,-1.0781 -1.6211,-0.7227 -1.7109,-0.3633 -1.0781,-0.0859 h -0.086 l -1.7148,0.1797 -1.7109,0.5429 -1.5274,0.8047 -1.2578,1.1719 -1.082,1.3516 -0.7227,1.6171 -0.3594,1.7149 -0.0898,1.0781 v 0.086 l 0.1797,1.7109 0.5429,1.7148 0.8086,1.5274 1.1719,1.2578 1.3516,1.082 1.6172,0.7227 1.7109,0.3554 1.082,0.0938"
         style="fill:#000000;fill-opacity:1;fill-rule:nonzero;stroke:none"
         id="path16" /></g></g></svg>
