<?xml version="1.0" encoding="UTF-8" standalone="no"?>
<!-- Created with Inkscape (http://www.inkscape.org/) -->

<svg
   version="1.1"
   id="svg2"
   xml:space="preserve"
   width="19.639999"
   height="6.0266666"
   viewBox="0 0 19.639999 6.0266666"
   sodipodi:docname="sag.svg"
   inkscape:version="1.1.1 (3bf5ae0d25, 2021-09-20)"
   xmlns:inkscape="http://www.inkscape.org/namespaces/inkscape"
   xmlns:sodipodi="http://sodipodi.sourceforge.net/DTD/sodipodi-0.dtd"
   xmlns="http://www.w3.org/2000/svg"
   xmlns:svg="http://www.w3.org/2000/svg"><sodipodi:namedview
     id="namedview7"
     pagecolor="#ffffff"
     bordercolor="#666666"
     borderopacity="1.0"
     inkscape:pageshadow="2"
     inkscape:pageopacity="0.0"
     inkscape:pagecheckerboard="0"
     showgrid="false"
     inkscape:zoom="60.234218"
     inkscape:cx="9.8199997"
     inkscape:cy="3.0215384"
     inkscape:window-width="2560"
     inkscape:window-height="1365"
     inkscape:window-x="0"
     inkscape:window-y="0"
     inkscape:window-maximized="1"
     inkscape:current-layer="g10" /><defs
     id="defs6" /><g
     id="g8"
     transform="matrix(1.3333333,0,0,-1.3333333,0,6.0266667)"><g
       id="g10"
       transform="scale(0.1)"><path
         d="m 117.363,18.6289 1.172,2.7891 0.801,3.6914 H 137.07 V 20.8789 L 136.523,16.918 135.996,14.1211 135,10.5273 131.484,4.76563 127.793,0 l 5.508,3.59375 3.769,3.15625 3.418,3.3281 2.246,2.8828 1.719,2.7852 1.348,2.5234 0.996,3.1485 0.273,2.0703 0.176,2.3359 0.078,3.0625 -0.078,2.0703 H 33.75 l -0.2695,1.6211 -0.8086,2.3399 -1.1719,2.1562 -1.4375,2.0742 -1.7109,1.711 -1.9805,1.5273 -2.1563,1.2617 -2.3437,0.8086 -2.4297,0.5391 -2.4297,0.1797 -1.9765,-0.086 -2.4336,-0.4492 -2.336,-0.8125 L 8.10156,42.6563 6.03125,41.2148 4.32031,39.5078 2.79297,37.5313 1.53125,35.3672 0.722656,33.0273 0.179688,30.5977 0,28.168 0.09375,26.1875 0.542969,23.7617 1.35156,21.418 l 1.17188,-2.1602 1.4375,-2.0703 1.71484,-1.707 1.97656,-1.5352 2.15625,-1.2578 2.34371,-0.8125 2.4297,-0.5352 2.4297,-0.1757 1.9766,0.0859 2.4336,0.4492 2.3398,0.8125 2.1602,1.1602 2.0703,1.4453 1.7109,1.7109 1.5274,1.9805 1.2578,2.1602 0.8125,2.3359 0.4492,1.9844 H 80.2734 V 20.8789 L 79.7422,16.918 79.2031,14.1211 78.3945,10.8906 75.1523,5.12891 71.2773,0.363281 76.3242,3.33203 80.2734,6.75 l 3.4375,3.3281 2.2461,2.8828 1.6993,2.7852 1.1718,2.8828 1.1719,2.7891 0.5469,3.6914 18.2621,0.0859 v -4.3164 l -0.528,-3.9609 -0.547,-2.7969 -1.074,-3.418 -2.969,-5.74997 -4.1402,-4.777349 5.5662,3.332029 3.692,3.24219 3.418,3.3281 2.246,2.8711 1.718,2.7969 1.172,2.8828"
         style="fill:#2f2f2f;fill-opacity:1.0;fill-rule:nonzero;stroke:none"
         id="path12" /></g></g></svg>
