<?xml version="1.0" encoding="UTF-8" standalone="no"?>
<!-- Created with Inkscape (http://www.inkscape.org/) -->

<svg
   version="1.1"
   id="svg2"
   xml:space="preserve"
   width="16.653334"
   height="16.653334"
   viewBox="0 0 16.653334 16.653334"
   sodipodi:docname="sevardhet.svg"
   inkscape:version="1.1.1 (3bf5ae0d25, 2021-09-20)"
   xmlns:inkscape="http://www.inkscape.org/namespaces/inkscape"
   xmlns:sodipodi="http://sodipodi.sourceforge.net/DTD/sodipodi-0.dtd"
   xmlns="http://www.w3.org/2000/svg"
   xmlns:svg="http://www.w3.org/2000/svg"><sodipodi:namedview
     id="namedview12"
     pagecolor="#ffffff"
     bordercolor="#666666"
     borderopacity="1.0"
     inkscape:pageshadow="2"
     inkscape:pageopacity="0.0"
     inkscape:pagecheckerboard="0"
     showgrid="false"
     inkscape:zoom="52.421937"
     inkscape:cx="8.3266668"
     inkscape:cy="8.3171288"
     inkscape:window-width="2560"
     inkscape:window-height="1365"
     inkscape:window-x="0"
     inkscape:window-y="0"
     inkscape:window-maximized="1"
     inkscape:current-layer="g10" /><defs
     id="defs6" /><g
     id="g8"
     transform="matrix(1.3333333,0,0,-1.3333333,0,16.653333)"><g
       id="g10"
       transform="scale(0.1)"><path
         d="m 37.1328,70.8633 -0.0781,0.2109 -0.1992,0.2149 -0.3594,0.2148 -0.4336,0.2149 -0.5586,0.1367 -0.6406,0.2109 -0.707,0.1445 -0.9258,0.1368 -1.0586,0.0781 -1.1367,0.1367 -1.3477,0.1484 -1.5508,0.0625 -1.6328,0.0821 -1.9844,0.1328 -1.9218,0.1445 -1.6954,0.2852 -1.6992,0.2773 -1.6289,0.4297 -1.4219,0.4258 -1.3398,0.5 -1.2148,0.4922 -1.1211,0.4961 -1,0.4922 -0.7774,0.5781 -0.77732,0.4922 -0.64454,0.6289 -0.77734,0.7109 -0.85547,0.8555 -0.77344,0.8515 -0.85546,1.0625 -0.91016,1.1993 -1,1.4843 L 3.11328,86.0313 2.26953,87.6602 1.63281,89.3594 1.05469,91.0547 0.640625,92.832 0.347656,94.5313 0.144531,96.1641 0,97.7305 v 1.4843 0.9922 0.918 l 0.0664063,0.711 0.0781247,0.492 v 0.492 l 0.066407,0.285 0.066406,0.149 0.070312,0.144 0.144532,0.282 0.148437,0.347 0.136719,0.571 0.207031,0.57 0.214845,0.773 0.21875,0.786 0.55859,1.621 0.78907,1.632 0.78125,1.629 0.98437,1.7 0.77734,1.132 0.92188,1.071 1,1.136 1.20703,1.125 1.26953,1.071 1.35157,1.058 1.418,1.071 1.4843,0.843 1.4141,0.786 1.3555,0.628 1.3359,0.497 1.4141,0.429 1.6328,0.278 1.6992,0.214 1.9141,0.215 h 1.8437 l 1.9922,-0.066 1.7031,-0.149 1.6289,-0.132 1.418,-0.282 1.4141,-0.363 1.207,-0.348 1.1992,-0.507 0.9258,-0.344 0.7734,-0.363 0.711,-0.282 0.4297,-0.211 0.3437,-0.136 0.2149,-0.078 0.0703,-0.071 0.0781,-0.066 0.2148,-0.149 0.2774,-0.214 0.3515,-0.414 0.4922,-0.426 0.6407,-0.645 0.7148,-0.637 0.9219,-0.777 0.9843,-0.922 0.8555,-0.847 0.7774,-0.786 0.6445,-0.773 0.6289,-0.641 0.4258,-0.566 0.4297,-0.563 0.5625,-1 0.5742,-1.058 0.4258,-1.203 0.4922,-1.285 0.2851,-0.844 0.2813,-0.707 0.2109,-0.574 0.1445,-0.496 0.0703,-0.348 0.0664,-0.277 0.0782,-0.293 0.0703,-0.286 0.0664,-0.492 0.0664,-0.644 0.1445,-0.707 0.1485,-0.844 0.1328,-0.988 0.1484,-1.1371 0.2149,-1.2696 0.1328,-1.1367 0.2148,-0.9922 0.0781,-0.7851 0.0664,-0.711 0.0704,-0.496 V 94.1055 93.6914 93.0469 92.3398 L 53.7148,91.418 v -0.9258 -0.7734 -0.6407 -0.5 -0.3476 -0.293 -0.0664 l 0.0704,-0.0625 H 54 l 0.2773,-0.0859 0.4297,-0.0625 0.4922,-0.0664 h 0.5 l 0.5703,-0.0704 0.7071,-0.0781 h 0.8437 l 0.9922,-0.0664 h 1.2031 1.2852 1.414 1.2735 1.2812 0.9141 0.9219 0.7851 0.5664 l 0.4883,0.0664 0.3633,0.0781 0.2109,0.0704 1.5547,0.5585 0.1485,0.1485 0.1328,0.2851 0.082,0.4219 0.1328,0.5625 0.0781,0.707 v 0.8555 l 0.1407,0.9922 v 1.207 l 0.0664,1.2657 v 1.4179 1.8438 l 0.0781,1.6328 0.0703,1.4848 0.2149,1.421 0.125,1.2 0.2148,1.07 0.293,0.922 0.2851,0.777 0.711,1.414 0.7031,1.492 0.7812,1.493 0.9844,1.554 0.793,1.2 0.9101,1.207 0.918,1.07 1.0742,1.058 1.1328,1 1.4844,1.055 1.4805,0.992 1.5664,0.922 1.6992,0.856 1.3555,0.562 1.3359,0.492 1.5664,0.43 1.5508,0.281 1.6289,0.282 1.7109,0.144 1.6993,0.07 1.6992,-0.07 1.8481,-0.215 1.765,-0.277 1.778,-0.363 1.769,-0.493 1.695,-0.628 1.633,-0.715 1.633,-0.852 1.48,-0.855 1.352,-0.989 1.27,-0.921 1.128,-1.059 0.93,-0.992 1.418,-1.778 1.27,-1.91 1.14,-1.91 0.703,-1.207 0.496,-1.348 0.5,-1.339 0.418,-1.422 0.286,-1.559 0.293,-1.633 0.136,-1.699 v -1.8476 l -0.136,-1.8438 -0.215,-1.9765 -0.282,-1.6328 -0.292,-1.5508 -0.274,-1.3516 -0.351,-1.1367 -0.43,-1.0586 -0.363,-0.9219 -0.555,-0.8554 -0.5,-0.9883 -0.711,-0.9883 -0.703,-0.9922 -0.863,-1.1367 -0.918,-1.2031 -1.2,-1.3516 -1.347,-1.2695 -1.414,-1.1368 -1.496,-1.0703 -1.7,-0.8398 -1.55,-0.7891 -1.418,-0.6328 -1.415,-0.4922 -1.281,-0.4922 -1.211,-0.2929 -0.769,-0.1367 -0.996,-0.0704 -1.133,-0.1445 -1.203,-0.0703 h -1.3479 -1.4258 -1.6328 l -1.336,0.0703 H 93.1836 92.1953 91.2695 L 90.5,71.4336 h -0.6445 l -0.4219,-0.0781 -0.293,-0.0664 -0.3398,-0.211 -0.2149,-0.2812 -0.1484,-0.4258 -0.1367,-0.4297 -0.0703,-0.6289 v -0.4297 l -0.0782,-0.5742 v -0.6289 -0.8555 l 0.0782,-0.9219 v -1.1367 l 0.0703,-1.2031 v -1.3359 -1.5664 l 0.0703,-1.3477 0.0664,-1.1289 0.0781,-1.1328 0.0703,-0.9219 0.0664,-0.8555 0.1485,-0.5664 0.1367,-0.5664 0.1328,-0.4218 0.1485,-0.2813 0.1367,-0.0781 0.3633,-0.1367 0.496,-0.0782 0.5547,-0.0703 0.8633,-0.0664 h 0.918 l 1.0625,-0.0586 1.2812,-0.0781 2.3399,-0.0781 2.1914,-0.2735 2.3442,-0.2851 2.187,-0.4297 1.695,-0.4258 1.703,-0.4336 1.5,-0.5547 1.418,-0.6445 1.27,-0.6367 1.133,-0.711 1.062,-0.7148 1.067,-0.918 0.988,-0.9843 1.062,-1.1329 1.133,-1.2812 1.282,-1.5508 0.996,-1.5625 0.984,-1.6289 0.715,-1.6328 0.703,-1.6328 0.352,-0.9258 0.293,-0.8398 0.21,-0.711 0.2,-0.5703 0.144,-0.4961 0.149,-0.3516 0.066,-0.2851 v -0.0781 -0.125 -0.2852 l 0.066,-0.3594 v -0.5664 l 0.082,-0.6328 0.133,-0.7148 0.071,-0.918 v -1.0664 l -0.071,-1.1328 -0.133,-1.2774 -0.148,-1.4257 -0.215,-1.5508 -0.344,-1.836 -0.425,-1.7695 -0.649,-1.7109 -0.699,-1.5508 -0.781,-1.4961 -0.852,-1.3438 -0.781,-1.2812 L 118.633,9.00391 117.922,8.07422 117.207,7.375 116.289,6.44531 115.305,5.60547 114.094,4.74609 112.813,3.89453 111.609,3.26172 110.344,2.61719 108.984,1.98047 107.566,1.48438 105.938,0.925781 104.309,0.5 102.539,0.214844 100.691,0 H 98.7773 L 96.875,0.0664063 95.1758,0.214844 93.7617,0.351563 92.3359,0.566406 91.0547,0.859375 89.7852,1.13281 l -0.9961,0.28516 -1.1328,0.42578 -0.9844,0.35156 -0.9297,0.35547 -0.7695,0.34766 -0.5782,0.36328 -0.5,0.35156 -0.5547,0.42969 -0.7109,0.55469 -0.7734,0.71484 -0.8594,0.78125 -0.9844,0.92578 -1.2109,1.27344 -1.1328,1.26562 -0.9883,1.41801 -0.9961,1.5039 -0.9961,1.6289 -0.7109,1.3398 -0.5586,1.2774 -0.4961,1.2031 -0.4336,1.2109 -0.2813,1.0547 -0.2031,0.9844 -0.1484,1.0781 -0.0664,1.1289 -0.1407,1.3399 v 1.414 l -0.0781,1.5664 v 1.6953 1.211 1.1367 0.9844 l -0.0664,0.8594 -0.0664,0.7031 -0.1484,0.5664 -0.0664,0.4961 -0.1485,0.2929 -0.2148,0.1954 -0.2852,0.1484 -0.4844,0.1445 -0.6484,0.1367 -0.7031,0.1485 -0.9258,0.0664 -0.9922,0.0703 -1.1992,0.0781 -1.3516,0.0703 H 62.8516 61.3672 L 60.0977,36.6406 H 58.8125 57.8203 L 56.9766,36.5625 56.1914,36.4922 H 55.5625 L 55.0547,36.4258 54.7734,36.2773 54.4922,36.2109 54.3477,36.0625 54.2773,35.7227 54.1445,35.293 54.0664,34.7266 54,34.0234 53.9297,33.1641 53.8516,32.2461 53.7852,31.1797 53.7148,29.9805 V 28.6328 L 53.6484,26.6484 53.5703,24.875 53.4375,23.2422 53.293,21.7578 53.0742,20.4766 52.8594,19.2656 52.5781,18.2148 52.0859,16.8633 51.4453,15.4492 50.668,14.0313 49.8125,12.6055 48.6094,11.125 47.8984,10.0586 47.1914,9.14844 46.4844,8.35938 45.9844,7.64453 45.4258,7.01953 45,6.52344 44.6484,6.09375 44.0781,5.67578 43.4336,5.24219 42.7266,4.74609 41.8789,4.25 40.8164,3.69141 39.6875,3.11328 38.125,2.46875 36.4961,1.91406 34.8633,1.41797 33.0195,1.05469 31.1836,0.714844 29.6211,0.566406 h -1.6992 l -1.6992,0.078125 -1.7813,0.125 L 22.5977,1.13281 20.7656,1.5625 18.9883,2.05859 17.2227,2.68359 15.5898,3.39844 14.1055,4.1875 12.543,5.02734 11.1914,6.01563 9.70703,7.23438 8.29297,8.57422 6.9375,9.98828 5.81641,11.4063 4.74609,12.9688 4.10547,14.0313 3.53906,15.0195 3.04688,15.8672 2.55469,16.6484 2.19141,17.2969 1.97656,17.9297 1.76172,18.4258 1.63281,19.1406 1.41797,19.7656 1.34766,20.2734 v 0.4961 l -0.07813,0.2774 v 0.4961 l -0.07031,0.5664 -0.06641,0.7031 -0.07812,0.7891 -0.070315,0.9179 -0.128906,0.918 -0.085938,0.7813 -0.0625,0.5703 L 0.640625,27.3516 0.5625,27.707 0.492188,27.9883 v 0.1445 l 0.070312,0.3516 0.144531,0.4336 0.148438,0.5547 0.199221,0.7109 0.21484,0.8516 0.29297,0.9961 0.34766,1.0625 0.49609,1.4882 0.49219,1.3438 0.49609,1.2109 0.35938,1.0547 0.34765,0.9883 0.36328,0.7891 0.34766,0.7148 0.42578,0.7734 0.57813,0.7774 0.77734,0.8515 0.83984,0.9258 1.06641,0.918 1.14063,1.0547 1.41407,1.1445 1.4844,1.1328 1.6328,0.9258 1.6328,0.8398 1.6953,0.793 1.8477,0.625 2.2578,0.6445 2.2773,0.4883 2.3399,0.4297 2.3359,0.2149 2.4102,0.1367 1.2734,0.0781 h 1.1328 l 1.0586,0.0703 h 0.7852 l 0.7109,0.0664 0.4961,0.1446 0.3476,0.0703 0.2813,0.0586 0.0781,0.0781 v 0.1367 0.3711 0.418 0.6328 0.707 0.9219 1.0703 1.2734 1.3477 1.4844 1.5664 1.3398 1.1992 1.0703 0.9922 0.7774 0.6406 0.4961 0.3555 0.1367"
         style="fill:#2f2f2f;fill-opacity:1.0;fill-rule:nonzero;stroke:none"
         id="path12" /><path
         d="m 99.2773,38.7695 0.8597,-0.0781 5.461,-2.1289 0.273,-0.2148 0.567,-0.4219 2.695,-3.043 0.43,-0.6484 1.484,-3.6719 0.137,-1.0039 -0.352,-5.2461 -0.488,-1.1992 -3.203,-4.1719 -0.625,-0.5742 -3.262,-2.1289 -0.781,-0.2813 -3.4769,-0.6367 h -0.9219 l -4.1094,0.8516 -0.6328,0.2109 -4.3945,2.4805 -0.4219,0.4219 -0.4297,0.4961 -0.9843,1.914 -0.5,0.4336 -0.293,0.4844 -0.3516,0.7148 -0.6367,3.1914 v 0.4219 9.0703 l 0.2774,1.1328 1.0039,1.5664 0.8398,0.7696 0.9297,0.3633 10.6914,0.996 0.2148,-0.0703"
         style="fill:#ffffff;fill-opacity:1;fill-rule:nonzero;stroke:none"
         id="path14" /><path
         d="m 37.0547,38.8398 0.4297,-0.1484 0.5742,-0.2148 0.4141,-0.3516 0.4296,-0.4961 1.2852,-2.1914 0.1289,-0.4961 0.1484,-0.7148 -0.4921,-9.5 -0.1485,-0.5664 -1.5547,-4.6016 -0.5742,-0.8477 -0.2773,-0.3632 -5.3907,-3.4649 -0.9921,-0.3633 -4.8125,-0.625 h -0.2813 l -0.8516,0.2071 -5.1093,2.1289 -0.8438,0.4961 -2.6211,2.7539 -0.4297,0.7929 -1.5664,4.2461 -0.1328,0.918 0.1328,2.1211 0.0821,0.3633 0.7734,3.4726 0.3516,0.7813 2.7031,3.75 0.9844,0.8515 6.2343,2.5469 1,0.1485 10.4063,-0.6329"
         style="fill:#ffffff;fill-opacity:1;fill-rule:nonzero;stroke:none"
         id="path16" /><path
         d="m 68.5234,74.0586 0.7852,-0.1484 2.2617,-0.8555 0.2852,-0.2031 0.4179,-0.3555 0.6485,-0.9258 0.4961,-1.7656 0.0664,-0.5703 0.5703,-13.4688 -0.1484,-0.6289 -0.1446,-0.5781 -1.3398,-2.2539 -0.418,-0.4297 -0.5,-0.3516 -0.4961,-0.2148 -0.5781,-0.1445 -14.5234,-0.2188 -1.0508,0.2852 -1.5625,0.789 -0.5,0.4219 -0.3594,0.418 -0.2813,0.7148 -0.3515,1.7735 -0.0781,0.4179 v 14.3907 l 0.5078,1.414 1.4843,1.9141 0.6329,0.4961 0.6406,0.2148 0.5742,0.0781 0.0664,0.0664 12.8945,-0.2812"
         style="fill:#ffffff;fill-opacity:1;fill-rule:nonzero;stroke:none"
         id="path18" /><path
         d="m 101.27,110.129 1.203,-0.215 5.527,-3.055 0.777,-0.773 1.418,-2.195 0.215,-0.637 1.133,-1.703 0.215,-0.707 0.215,-0.574 v -4.8833 l -0.285,-0.9883 -1.993,-4.2539 -0.64,-0.789 -3.672,-2.8985 -1.074,-0.4961 -5.0317,-0.7773 h -0.3398 l -6.6641,-0.082 -0.5039,0.082 -3.539,0.7773 -0.5742,0.2774 -0.4883,0.3633 -0.3516,0.414 -0.293,0.6446 -0.5664,2.5546 -0.0664,0.5625 0.418,9.4927 0.2148,0.921 1.9141,3.829 0.7031,0.855 4.5508,3.328 1.1211,0.426 6.2425,0.562 0.215,-0.062"
         style="fill:#ffffff;fill-opacity:1;fill-rule:nonzero;stroke:none"
         id="path20" /><path
         d="m 29.2734,111.543 1.1211,-0.215 4.6836,-2.555 0.8555,-0.843 2.9687,-5.039 0.3594,-0.844 0.5625,-4.0392 V 97.5156 L 38.832,89.0781 38.4727,88.1523 38.125,87.7227 37.6328,87.3789 37.2031,87.0938 33.4414,85.9609 32.8125,85.8945 h -0.4258 l -9.9883,0.8438 -1.1367,0.4258 -4.8242,3.4765 -0.7109,0.9219 -2.1953,4.7461 -0.1329,1.3359 1.2032,6.1015 0.3476,0.852 2.7656,4.043 1.1368,0.839 4.8828,1.778 0.707,0.137 4.7539,0.214 0.0781,-0.066"
         style="fill:#ffffff;fill-opacity:1;fill-rule:nonzero;stroke:none"
         id="path22" /></g></g></svg>
