<?xml version="1.0" encoding="UTF-8" standalone="no"?>
<!-- Created with Inkscape (http://www.inkscape.org/) -->

<svg
   version="1.1"
   id="svg2"
   xml:space="preserve"
   width="7.5599999"
   height="7.5599999"
   viewBox="0 0 7.5599999 7.5599999"
   sodipodi:docname="sjukhus.svg"
   inkscape:version="1.1.1 (3bf5ae0d25, 2021-09-20)"
   xmlns:inkscape="http://www.inkscape.org/namespaces/inkscape"
   xmlns:sodipodi="http://sodipodi.sourceforge.net/DTD/sodipodi-0.dtd"
   xmlns="http://www.w3.org/2000/svg"
   xmlns:svg="http://www.w3.org/2000/svg"><sodipodi:namedview
     id="namedview9"
     pagecolor="#ffffff"
     bordercolor="#666666"
     borderopacity="1.0"
     inkscape:pageshadow="2"
     inkscape:pageopacity="0.0"
     inkscape:pagecheckerboard="0"
     showgrid="false"
     inkscape:zoom="115.47619"
     inkscape:cx="3.78"
     inkscape:cy="3.7756701"
     inkscape:window-width="2560"
     inkscape:window-height="1365"
     inkscape:window-x="0"
     inkscape:window-y="0"
     inkscape:window-maximized="1"
     inkscape:current-layer="g10" /><defs
     id="defs6" /><g
     id="g8"
     transform="matrix(1.3333333,0,0,-1.3333333,0,7.56)"><g
       id="g10"
       transform="scale(0.1)"><path
         d="M 28.3516,56.6875 26.7305,56.6367 24.4922,56.4297 22.2734,56.0586 20.0664,55.4727 17.9453,54.6992 15.875,53.7969 13.918,52.7188 12.0156,51.5039 10.207,50.1055 8.50781,48.6367 6.97266,46.9727 5.58203,45.207 4.27734,43.3711 3.14844,41.3789 2.21875,39.3125 1.44922,37.2148 0.820313,35.0352 0.371094,32.8516 0.0898438,30.582 0,28.3398 0.0585938,26.7344 0.257813,24.4609 0.621094,22.2734 1.21484,20.0586 1.98047,17.9297 2.89063,15.8789 3.96875,13.8867 5.1875,12.0117 6.58203,10.207 8.05859,8.52344 9.72266,6.96094 11.4766,5.58594 13.3203,4.27734 15.3125,3.17188 17.3828,2.1875 19.4727,1.44531 21.6563,0.792969 23.8398,0.339844 26.1133,0.078125 28.3516,0 l 1.6093,0.0195313 2.2696,0.2343747 2.1836,0.417969 2.207,0.546875 2.1289,0.76172 2.0625,0.87891 1.9922,1.07421 1.875,1.22266 1.8047,1.41797 1.6797,1.47266 1.5625,1.66796 1.3867,1.75786 1.3008,1.8671 1.1015,1.9454 0.9883,2.0586 0.7422,2.1289 0.6523,2.1562 0.4493,2.207 0.2617,2.2657 0.0781,2.2382 -0.0156,1.6211 -0.2266,2.2383 -0.4297,2.2071 -0.5351,2.2148 -0.7735,2.125 -0.8789,2.0703 -1.0742,1.957 -1.2226,1.9024 -1.4141,1.8086 -1.4727,1.6992 -1.6718,1.5312 -1.7579,1.3829 -1.8632,1.3046 -1.9336,1.1368 -2.0703,0.9336 -2.1289,0.7656 -2.1524,0.6328 -2.2148,0.4453 -2.2618,0.2852 -2.2382,0.0859"
         style="fill:#2f2f2f;fill-opacity:1.0;fill-rule:nonzero;stroke:none"
         id="path12" /><path
         d="M 28.7461,51.6172 28.4297,51.5625 H 28.3516 L 26.3398,51.5039 24.3477,51.2461 22.4219,50.8477 20.4648,50.1992 18.6172,49.4336 16.8398,48.5 15.1055,47.4766 13.4844,46.2656 12.0156,44.957 10.707,43.4531 9.41406,41.8398 8.33594,40.168 7.36719,38.4102 6.60156,36.5352 5.95313,34.6367 5.52344,32.707 5.21875,30.668 5.07422,28.7344 5.13281,28.4336 V 28.3398 L 5.1875,26.2969 5.44531,24.3438 5.83984,22.3906 6.48828,20.5156 7.25781,18.625 8.1875,16.8359 9.21484,15.0977 10.4297,13.543 l 1.3633,-1.5235 1.4492,-1.3086 1.6055,-1.30465 1.6796,-1.10547 1.754,-0.92578 1.8632,-0.77344 1.9063,-0.68359 1.9336,-0.39063 2.0351,-0.3125 1.9258,-0.13671 0.3164,0.05859 h 0.0899 l 2.0351,0.01953 1.9571,0.28125 1.9531,0.40234 1.875,0.625 1.8945,0.76172 1.7969,0.96485 1.7187,1.01953 1.5625,1.21876 1.5352,1.3672 1.2969,1.4336 1.2695,1.6211 1.1445,1.6992 0.9258,1.7031 0.7734,1.8906 0.6797,1.9063 0.3946,1.9219 0.3125,2.0117 0.1328,1.9648 -0.0469,0.3125 v 0.0781 l -0.0312,2.0157 -0.2813,1.9804 -0.3984,1.9375 -0.6172,1.9571 -0.7696,1.832 -0.9687,1.7852 -1.0234,1.7343 -1.211,1.6211 -1.3125,1.4727 -1.4922,1.2969 -1.6211,1.3007 -1.6406,1.0821 -1.7578,0.9648 -1.8945,0.7656 -1.9024,0.6563 -1.9258,0.4258 -2.0117,0.3008 -1.957,0.1484"
         style="fill:#ffffff;fill-opacity:1;fill-rule:nonzero;stroke:none"
         id="path14" /><path
         d="M 33.3125,46.7344 H 23.4141 V 33.2813 H 9.94531 V 23.3789 H 23.4141 V 9.95313 h 9.8984 V 23.3789 H 46.75 v 9.9024 H 33.3125 v 13.4531"
         style="fill:#2f2f2f;fill-opacity:1.0;fill-rule:nonzero;stroke:none"
         id="path16" /></g></g></svg>
