<?xml version="1.0" encoding="UTF-8" standalone="no"?>
<!-- Created with Inkscape (http://www.inkscape.org/) -->

<svg
   version="1.1"
   id="svg2"
   xml:space="preserve"
   width="6.8000002"
   height="6.8000002"
   viewBox="0 0 6.8000002 6.8000002"
   sodipodi:docname="skorsten.svg"
   inkscape:version="1.1.1 (3bf5ae0d25, 2021-09-20)"
   xmlns:inkscape="http://www.inkscape.org/namespaces/inkscape"
   xmlns:sodipodi="http://sodipodi.sourceforge.net/DTD/sodipodi-0.dtd"
   xmlns="http://www.w3.org/2000/svg"
   xmlns:svg="http://www.w3.org/2000/svg"><sodipodi:namedview
     id="namedview8"
     pagecolor="#ffffff"
     bordercolor="#666666"
     borderopacity="1.0"
     inkscape:pageshadow="2"
     inkscape:pageopacity="0.0"
     inkscape:pagecheckerboard="0"
     showgrid="false"
     inkscape:zoom="128.38235"
     inkscape:cx="3.4000001"
     inkscape:cy="3.3961055"
     inkscape:window-width="2560"
     inkscape:window-height="1365"
     inkscape:window-x="0"
     inkscape:window-y="0"
     inkscape:window-maximized="1"
     inkscape:current-layer="g10" /><defs
     id="defs6" /><g
     id="g8"
     transform="matrix(1.3333333,0,0,-1.3333333,0,6.8)"><g
       id="g10"
       transform="scale(0.1)"><path
         d="m 25.5195,51.0156 2.6836,-0.1367 2.6211,-0.4258 2.6172,-0.707 2.4922,-0.9219 2.4102,-1.2734 2.2617,-1.418 2.0508,-1.6992 1.914,-1.9141 1.6992,-2.125 1.4258,-2.2695 1.1914,-2.4102 0.9375,-2.4882 0.7031,-2.6211 0.4297,-2.6836 0.0586,-2.4102 -0.1367,-2.6992 -0.4297,-2.6172 -0.7031,-2.625 -0.918,-2.4726 L 47.5586,12.6875 46.1328,10.4102 44.4336,8.35938 42.5195,6.44531 40.3906,4.74609 38.1289,3.33203 35.7188,2.12109 33.2383,1.20313 30.6094,0.488281 27.9258,0.0703125 25.5117,0 22.8164,0.148438 20.1953,0.558594 17.5742,1.26953 15.0977,2.1875 12.6914,3.47656 10.4141,4.89453 8.35938,6.59375 6.44531,8.50781 4.74609,10.625 3.33203,12.8906 2.125,15.3125 1.20703,17.7852 0.492188,20.4102 0.0664063,23.1055 0,25.5117 l 0.144531,2.6875 0.417969,2.6211 0.70703,2.625 0.92188,2.4844 1.28515,2.4062 1.41797,2.2618 1.69922,2.0586 1.91406,1.914 2.12109,1.6992 2.2617,1.418 2.4219,1.1992 2.4766,0.9219 2.6172,0.7109 2.7031,0.4297 2.4101,0.0664"
         style="fill:#2f2f2f;fill-opacity:1.0;fill-rule:nonzero;stroke:none"
         id="path12" /><path
         d="m 25.5195,36.8516 c 6.2618,0 11.3399,-5.0743 11.3399,-11.3399 0,-6.2734 -5.0781,-11.3398 -11.3399,-11.3398 -6.2695,0 -11.3437,5.0664 -11.3437,11.3398 0,6.2656 5.0742,11.3399 11.3437,11.3399 v 0"
         style="fill:#ffffff;fill-opacity:1;fill-rule:nonzero;stroke:none"
         id="path14" /></g></g></svg>
