<?xml version="1.0" encoding="UTF-8" standalone="no"?>
<!-- Created with Inkscape (http://www.inkscape.org/) -->

<svg
   version="1.1"
   id="svg2"
   xml:space="preserve"
   width="26.440001"
   height="18.120001"
   viewBox="0 0 26.440001 18.120001"
   xmlns="http://www.w3.org/2000/svg"
   xmlns:svg="http://www.w3.org/2000/svg"><defs
     id="defs6" /><g
     id="g8"
     transform="matrix(1.3333333,0,0,-1.3333333,0,18.12)"><g
       id="g10"
       transform="scale(0.1)"><path
         d="m 120.754,109.422 -0.852,2.766 -5.246,1.699 -3.047,3.183 -0.925,6.953 0.148,0.137 -0.422,3.047 2.481,6.168 3.547,2.484 7.226,-0.429 1.348,-0.492 2.547,-2.411 0.918,-1.773 0.703,-0.5 0.144,-6.375 -0.215,-4.188 0.786,-2.476 3.835,-2.27 5.52,-5.097 5.313,-10.3519 0.144,-0.5625 1.055,-3.6875 3.34,-12.9727 0.285,-1.0586 -0.285,-0.5625 1.699,-11.2031 -0.149,-3.539 -2.183,-3.6836 0.496,-3.9063 31.25,0.1563 0.344,0.3398 4.832,-0.0664 2.468,-3.6133 -0.918,-10.9883 -0.418,-5.2421 0.567,-8.5743 0.422,-2.6875 1.484,-1.1992 6.238,-3.5469 2.411,-6.1718 0.636,-2.5469 L 197.285,7.87109 193.039,2.77344 186.809,0 107.781,0.996094 102.184,3.82813 98.7852,7.44141 96.5938,14.3164 93.332,15.6641 74.7656,18.2148 H 71.0078 L 56.6875,20.4766 54.8555,20.9102 53.0078,20.8398 51.4453,15.168 52.6445,13.9648 78.5898,7.08984 80.9961,7.80078 83.3398,5.24609 82.9102,1.27734 67.5977,1.5625 67.1055,2.05859 60.1602,2.27344 V 2.12891 H 59.1758 L 22.3203,1.98047 21.8906,2.34375 17.0078,2.05859 7.64453,4.96094 2.98047,9.98828 0,16.9414 l 0.984375,2.2695 0.777345,0.1446 4.25391,-0.9297 3.625,-5.9453 9.34767,-3.69144 3.9023,1.13282 0.2852,0.35152 12.9687,3.3282 7.9336,1.2226 1.6289,2.6172 -0.0664,3.3281 -0.4961,1.9141 -8.1562,1.6328 -22.5352,6.9414 -0.9218,2.9805 0.9882,2.6172 6.7422,11.2578 10.4883,12.5508 4.5273,4.2578 1.1407,0.9804 10.7656,8.293 18,9.5742 4.3984,13.4649 7.6485,14.3126 2.832,2.41 2.7695,-2.769 -2.1914,-7.372 -1.914,-11.3355 -0.8555,-3.2539 -2.4063,-7.5118 -0.4296,-3.9765 1.6328,-0.6289 5.8047,11.6211 4.6132,4.6679 4.4688,-1.0546 5.9453,3.4765 15.105,-2.3398 4.102,6.9415 0.563,2.336 z M 89.0781,81.5 l -0.6445,-0.2812 -1.7617,-4.25 -6.3828,-13.7461 -1.4844,-4.4063 5.5898,-8.8476 7.6602,-5.8868 10.4223,-5.457 6.793,-2.2695 1.707,0.9961 1.699,2.6289 0.429,1.8359 3.899,13.6719 -0.285,2.0586 -7.09,0.2148 -4.043,-2.9765 -1.988,-2.9102 0.148,-0.1484 -1.484,-2.3243 -0.785,-0.2148 -1.207,-2.9766 -2.6919,-2.1992 -7.3672,4.4649 0.2149,4.1132 3.4648,9.2071 0.293,0.5 1.0547,3.2578 0.5,-0.1445 1.4922,3.1992 3.0395,4.0351 10.199,0.6328 10.847,-0.5625 3.696,0.8555 1.265,3.3985 -0.632,3.6835 -0.286,3.3321 h -1.492 l -4.961,-3.9688 -4.89,0.9219 -9.844,2.1289 -0.426,0.4922 -2.406,0.1367 -4.1095,-2.1289 -5.3203,3.5469 -1.418,-0.2149 L 89.0781,81.5"
         style="fill:#000000;fill-opacity:1;fill-rule:nonzero;stroke:none"
         id="path12" /></g></g></svg>
