<?xml version="1.0" encoding="UTF-8" standalone="no"?>
<!-- Created with Inkscape (http://www.inkscape.org/) -->

<svg
   version="1.1"
   id="svg2"
   xml:space="preserve"
   width="28.719999"
   height="28.719999"
   viewBox="0 0 28.719999 28.719999"
   xmlns="http://www.w3.org/2000/svg"
   xmlns:svg="http://www.w3.org/2000/svg"><defs
     id="defs6" /><g
     id="g8"
     transform="matrix(1.3333333,0,0,-1.3333333,0,28.72)"><g
       id="g10"
       transform="scale(0.1)"><path
         d="m 113.105,215.285 h 0.5 l 4.879,-0.347 0.637,-0.079 4.817,-0.629 0.496,-0.078 4.824,-0.847 0.5,-0.145 4.676,-1.058 0.632,-0.149 4.68,-1.348 0.645,-0.214 4.597,-1.629 0.364,-0.141 4.531,-1.773 0.769,-0.348 4.477,-2.129 0.215,-0.062 4.312,-2.207 0.782,-0.418 4.183,-2.555 0.359,-0.215 4.102,-2.687 0.352,-0.293 3.972,-2.832 0.637,-0.5 3.762,-3.114 0.347,-0.281 3.618,-3.266 0.425,-0.421 3.41,-3.403 0.411,-0.422 3.261,-3.613 0.364,-0.43 3.113,-3.824 0.351,-0.426 2.911,-3.972 0.285,-0.492 2.625,-3.961 0.344,-0.508 2.488,-4.239 0.285,-0.507 2.266,-4.321 0.211,-0.496 2.05,-4.465 0.285,-0.562 1.844,-4.613 0.149,-0.418 1.632,-4.614 0.211,-0.562 1.34,-4.613 0.215,-0.84 0.984,-4.684 0.083,-0.422 0.835,-4.883 0.082,-0.429 0.633,-4.824 0.078,-0.633 0.352,-4.895 v -0.496 l 0.145,-4.961 v -0.707 l -0.145,-4.961 v -0.5 l -0.352,-4.8904 -0.078,-0.625 -0.633,-4.8242 -0.082,-0.5078 -0.835,-4.8047 -0.149,-0.5078 -1.055,-4.668 -0.144,-0.6445 -1.352,-4.668 -0.215,-0.6445 -1.628,-4.6094 -0.137,-0.3516 -1.778,-4.5312 -0.351,-0.7813 -2.129,-4.4531 -0.066,-0.2148 -2.2,-4.336 -0.421,-0.7812 -2.547,-4.1797 -0.215,-0.3516 -2.696,-4.1015 -0.292,-0.3711 -2.833,-3.9649 -0.5,-0.625 -3.113,-3.7695 -0.281,-0.3516 -3.266,-3.6133 -0.418,-0.4296 -3.398,-3.3985 -0.43,-0.4297 -3.613,-3.2617 -0.43,-0.3515 -3.816,-3.1055 -0.434,-0.3711 -3.972,-2.8906 -0.489,-0.293 -3.965,-2.6172 -0.507,-0.3516 -4.239,-2.4804 -0.507,-0.2735 -4.317,-2.2851 -0.496,-0.2149 -4.465,-2.05074 -0.566,-0.27344 -4.61,-1.85547 L 144.855,6.58203 140.246,4.96094 139.68,4.74609 135.066,3.39844 134.219,3.18359 129.543,2.1875 129.109,2.12891 124.23,1.26953 123.809,1.19141 118.977,0.546875 118.352,0.488281 113.457,0.136719 h -0.496 L 108,0 h -0.711 l -4.961,0.136719 h -0.492 L 96.9375,0.488281 96.3086,0.546875 91.4844,1.19141 90.9844,1.26953 86.1719,2.12891 85.6797,2.26563 81,3.32031 l -0.6445,0.15625 -4.668,1.32813 -0.6367,0.21484 -4.6172,1.64063 -0.3438,0.13672 -4.539,1.77734 -0.7852,0.35156 -4.4531,2.12892 -0.2148,0.0586 -4.3321,2.207 -0.7773,0.4297 -4.1719,2.5391 -0.3633,0.2148 -4.1054,2.6953 -0.3633,0.2735 -3.9688,2.832 -0.6289,0.5078 -3.7539,3.125 -0.3633,0.2734 -3.6132,3.2618 -0.4258,0.4296 -3.3946,3.3985 -0.4336,0.4297 -3.2578,3.6133 -0.3476,0.4101 -3.1172,3.8477 -0.3594,0.4101 -2.9062,3.9649 -0.2774,0.5078 -2.6211,3.9648 -0.3633,0.4883 -2.4687,4.2578 -0.2852,0.4883 -2.2734,4.3359 -0.2109,0.5078 -2.06254,4.4532 -0.28125,0.5664 -1.83984,4.6094 -0.13672,0.4296 -1.63281,4.5899 -0.21485,0.5664 -1.34765,4.6094 -0.21485,0.8593 -0.99218,4.668 L 2.125,86.3086 1.26953,91.1914 1.19922,91.6211 0.5625,96.4453 0.492188,97.0898 0.144531,101.973 v 0.5 L 0,107.434 v 0.707 l 0.144531,4.961 v 0.496 l 0.347657,4.879 0.070312,0.644 0.63672,4.817 0.07031,0.492 0.85547,4.828 0.14453,0.492 1.0625,4.684 0.14453,0.629 1.33594,4.679 0.21484,0.637 1.63282,4.605 0.14843,0.36 1.76172,4.535 0.35938,0.777 2.12891,4.465 0.0664,0.211 2.1953,4.32 0.4258,0.778 2.5547,4.183 0.2148,0.364 2.6875,4.105 0.2774,0.348 2.8398,3.972 0.4922,0.641 3.1289,3.762 0.2813,0.343 3.25,3.614 0.4296,0.426 3.4102,3.41 0.4141,0.414 3.6211,3.265 0.4179,0.356 3.836,3.121 0.414,0.348 3.9766,2.914 0.4922,0.277 3.9687,2.621 0.5,0.356 4.2539,2.484 0.4922,0.277 4.3203,2.278 0.5078,0.214 4.4532,2.043 0.5703,0.286 4.6055,1.839 0.4257,0.145 4.6055,1.633 0.5703,0.215 4.5977,1.339 0.8554,0.215 4.6836,0.989 0.4141,0.078 4.8906,0.847 0.4336,0.078 4.8125,0.629 0.6406,0.079 4.8941,0.351 h 0.497 l 4.961,0.145 h 0.707 l 4.96,-0.149"
         style="fill:#000000;fill-opacity:1;fill-rule:nonzero;stroke:none"
         id="path12" /><path
         d="m 112.746,203.945 4.891,-0.347 4.812,-0.645 4.817,-0.851 4.687,-1.063 4.68,-1.348 4.597,-1.628 4.532,-1.77 4.472,-2.125 4.329,-2.195 4.167,-2.555 4.122,-2.699 3.964,-2.832 3.75,-3.114 3.614,-3.253 3.41,-3.407 3.262,-3.617 3.113,-3.82 2.91,-3.977 2.617,-3.969 2.488,-4.253 2.258,-4.321 2.063,-4.461 1.844,-4.605 1.621,-4.61 1.347,-4.605 0.989,-4.676 0.859,-4.894 0.644,-4.813 0.34,-4.898 0.149,-4.946 -0.149,-4.96 -0.34,-4.895 -0.644,-4.8242 -0.859,-4.8243 -1.055,-4.6679 -1.352,-4.668 -1.629,-4.6289 -1.765,-4.5313 -2.129,-4.4531 -2.192,-4.3359 -2.554,-4.1797 -2.696,-4.1016 -2.843,-3.9648 -3.117,-3.7695 -3.25,-3.6133 -3.411,-3.3985 -3.609,-3.2617 -3.82,-3.1055 -3.973,-2.9101 -3.977,-2.6172 -4.25,-2.4805 -4.312,-2.2851 -4.477,-2.0508 -4.597,-1.8359 -4.61,-1.6407 -4.597,-1.3476 -4.692,-0.9766 -4.89,-0.8594 -4.817,-0.625 -4.89,-0.3711 -4.953,-0.1367 -4.957,0.1367 -4.895,0.3711 -4.8125,0.625 -4.8282,0.8594 -4.6796,1.0547 -4.668,1.3477 -4.6172,1.6211 -4.5312,1.7773 -4.4649,2.1289 -4.3203,2.207 -4.1875,2.5391 -4.1055,2.6953 -3.9687,2.832 -3.7617,3.125 -3.6094,3.2618 -3.3945,3.3984 -3.2618,3.6133 -3.1172,3.8281 -2.9062,3.9648 -2.6211,3.9649 -2.4844,4.2578 -2.2695,4.3359 -2.0508,4.4532 -1.8437,4.6093 -1.6289,4.5899 -1.3516,4.6289 -0.9922,4.668 -0.8437,4.8828 -0.6407,4.8242 -0.3632,4.8833 -0.129,4.964 0.129,4.961 0.3632,4.899 0.6407,4.812 0.8437,4.817 1.0703,4.679 1.336,4.68 1.6328,4.602 1.7773,4.535 2.1289,4.465 2.1914,4.328 2.5547,4.175 2.6875,4.118 2.836,3.961 3.1171,3.757 3.2618,3.61 3.3984,3.41 3.625,3.266 3.8203,3.113 3.9727,2.902 3.957,2.621 4.2539,2.485 4.332,2.261 4.4571,2.059 4.6093,1.848 4.6055,1.621 4.6094,1.347 4.6797,0.993 4.8828,0.851 4.8242,0.641 4.8825,0.351 4.961,0.149 4.965,-0.149"
         style="fill:#ffffff;fill-opacity:1;fill-rule:nonzero;stroke:none"
         id="path14" /><path
         d="m 125.078,165.469 -0.715,2.543 -4.175,1.562 -2.481,2.906 -0.773,6.379 0.136,0.145 -0.281,2.754 1.973,5.676 2.84,2.269 5.742,-0.363 1.133,-0.492 2.05,-2.192 0.711,-1.633 0.578,-0.429 0.071,-5.871 -0.149,-3.836 0.637,-2.262 3.055,-2.059 4.465,-4.683 4.316,-9.492 v -0.563 l 0.926,-3.328 2.617,-11.902 0.285,-1.004 -0.285,-0.492 1.418,-10.274 -0.149,-3.262 -1.765,-3.328 0.347,-3.617 25.161,0.141 0.214,0.359 3.973,-0.066 1.985,-3.332 -0.786,-10.067 -0.347,-4.816 0.496,-7.8712 0.285,-2.4805 1.199,-1.0547 5.028,-3.2617 1.917,-5.6641 0.497,-2.3437 -0.782,-5.7422 -3.398,-4.6875 -5.027,-2.5391 -63.364,0.918 -4.535,2.5586 -2.683,3.3203 -1.778,6.3086 -2.621,1.2109 -14.8867,2.3438 h -3.0507 l -11.4063,2.1289 -1.4844,0.332 -1.4843,-0.0586 -1.2852,-5.1758 0.9922,-1.1328 20.7656,-6.2304 1.9141,0.625 1.9101,-2.3243 -0.3437,-3.6914 -12.2617,0.2735 -0.3633,0.4297 -5.5899,0.2148 v -0.1367 h -0.7773 l -29.6328,-0.0781 -0.2852,0.2929 -3.8906,-0.2929 -7.5156,2.6953 -3.8203,4.6093 -2.3399,6.3868 0.7774,2.0312 0.6406,0.1563 3.4766,-0.8594 2.832,-5.4492 7.5039,-3.3399 3.1289,0.9961 0.1992,0.3516 10.4219,3.0469 6.375,1.0742 1.2852,2.4023 v 3.0469 l -0.4297,1.7773 -6.5235,1.4844 -18.0664,6.3867 -0.7773,2.7539 0.8476,2.4102 5.3828,10.2778 8.3711,11.55 3.6797,3.903 0.9258,0.843 8.5664,7.661 14.457,8.711 3.5469,12.332 6.1602,13.179 2.1992,2.196 2.2695,-2.54 -1.7656,-6.742 -1.5625,-10.418 -0.6406,-2.968 -1.9141,-6.875 -0.4297,-3.692 1.3516,-0.558 4.6133,10.617 3.7461,4.332 3.6254,-0.992 4.746,3.183 12.113,-2.125 3.262,6.379 0.422,2.129 2.058,6.094"
         style="fill:#000000;fill-opacity:1;fill-rule:nonzero;stroke:none"
         id="path16" /><path
         d="m 99.6406,139.887 -0.4961,-0.293 -1.4179,-3.891 -5.1094,-12.543 -1.1992,-4.039 4.4648,-8.144 6.0942,-5.391 8.429,-5.027 5.453,-2.0629 1.348,0.918 1.356,2.4099 0.343,1.703 3.125,12.543 -0.215,1.844 -5.671,0.215 -3.254,-2.766 -1.563,-2.625 0.149,-0.144 -1.286,-2.125 -0.628,-0.199 -0.926,-2.7 -2.121,-2.05 -5.953,4.105 0.136,3.758 2.832,8.426 0.215,0.496 0.856,2.98 0.343,-0.144 1.207,2.91 2.485,3.683 8.218,0.637 8.645,-0.558 2.977,0.773 0.996,3.117 -0.496,3.399 -0.207,3.046 h -1.211 l -3.965,-3.609 -3.973,0.856 -7.867,1.91 -0.277,0.496 -1.997,0.07 -3.328,-1.914 -4.175,3.262 -1.215,-0.215 -1.1214,-3.117"
         style="fill:#ffffff;fill-opacity:1;fill-rule:nonzero;stroke:none"
         id="path18" /></g></g></svg>
