<?xml version="1.0" encoding="UTF-8" standalone="no"?>
<!-- Created with Inkscape (http://www.inkscape.org/) -->

<svg
   version="1.1"
   id="svg2"
   xml:space="preserve"
   width="12.773333"
   height="11.346667"
   viewBox="0 0 12.773333 11.346667"
   xmlns="http://www.w3.org/2000/svg"
   xmlns:svg="http://www.w3.org/2000/svg"><defs
     id="defs6" /><g
     id="g8"
     transform="matrix(1.3333333,0,0,-1.3333333,0,11.346667)"><g
       id="g10"
       transform="scale(0.1)"><path
         d="M 0,0 47.9688,85.0586 95.8398,0 Z"
         style="fill:#000000;fill-opacity:1;fill-rule:nonzero;stroke:none"
         id="path12" /><path
         d="M 47.9688,67.8711 81.3672,8.47656 H 14.4883 Z"
         style="fill:#ffffff;fill-opacity:1;fill-rule:nonzero;stroke:none"
         id="path14" /><path
         d="m 47.9688,37.5391 1.7109,-0.1797 1.7109,-0.4492 1.5313,-0.8985 1.2539,-1.1679 1.082,-1.3477 0.7227,-1.6211 0.4492,-1.7187 V 29.082 l -0.0859,-1.7968 -0.5469,-1.6211 -0.8985,-1.543 -1.1718,-1.3477 -1.3477,-0.9765 -1.6211,-0.8203 -1.7109,-0.3516 -1.0781,-0.0977 -1.8008,0.1758 -1.6172,0.5469 -1.5313,0.8008 -1.3476,1.1719 -0.9922,1.4453 -0.8125,1.5234 -0.3594,1.7188 -0.0898,1.1718 0.1836,1.6993 0.539,1.7187 0.8047,1.4453 1.1758,1.3438 1.4375,1.0781 1.5312,0.7226 1.711,0.4493 h 1.168"
         style="fill:#000000;fill-opacity:1;fill-rule:nonzero;stroke:none"
         id="path16" /></g></g></svg>
