<?xml version="1.0" encoding="UTF-8" standalone="no"?>
<!-- Created with Inkscape (http://www.inkscape.org/) -->

<svg
   version="1.1"
   id="svg2"
   xml:space="preserve"
   width="15.093333"
   height="15.12"
   viewBox="0 0 15.093333 15.12"
   xmlns="http://www.w3.org/2000/svg"
   xmlns:svg="http://www.w3.org/2000/svg"><defs
     id="defs6" /><g
     id="g8"
     transform="matrix(1.3333333,0,0,-1.3333333,0,15.12)"><g
       id="g10"
       transform="scale(0.1)"><path
         d="M 56.6992,48.1445 64.9805,0 H 47.9688 Z"
         style="fill:#000000;fill-opacity:1;fill-rule:nonzero;stroke:none"
         id="path12" /><path
         d="M 51.5703,49.7656 29.4297,6.125 15.8398,16.3789 Z"
         style="fill:#000000;fill-opacity:1;fill-rule:nonzero;stroke:none"
         id="path14" /><path
         d="M 61.6484,49.8633 97.1094,16.2031 83.4297,6.02344 Z"
         style="fill:#000000;fill-opacity:1;fill-rule:nonzero;stroke:none"
         id="path16" /><path
         d="M 48.5117,54 5.13281,31.4063 0,47.6953 Z"
         style="fill:#000000;fill-opacity:1;fill-rule:nonzero;stroke:none"
         id="path18" /><path
         d="M 64.6211,54 113.137,47.1602 107.82,31.043 Z"
         style="fill:#000000;fill-opacity:1;fill-rule:nonzero;stroke:none"
         id="path20" /><path
         d="m 56.6094,60.9258 1.2617,-0.086 1.0781,-0.5429 0.8985,-0.8086 0.7226,-1.0781 0.2695,-1.168 v -0.543 L 60.6602,55.4375 60.2109,54.3594 59.3984,53.457 58.3203,52.7344 57.1484,52.4688 h -0.539 l -1.2578,0.1757 -1.0782,0.461 -0.9023,0.8047 -0.7188,1.082 -0.2695,1.1641 v 0.5429 l 0.0899,1.2617 0.539,1.0782 0.8047,0.9023 1.0859,0.7188 1.168,0.2656 h 0.5391"
         style="fill:#000000;fill-opacity:1;fill-rule:nonzero;stroke:none"
         id="path22" /><path
         d="M 108,81.8984 113.223,65.6992 64.707,59.2188 Z"
         style="fill:#000000;fill-opacity:1;fill-rule:nonzero;stroke:none"
         id="path24" /><path
         d="M 5.39844,82.3477 48.5117,59.2188 0.0898438,66.2422 Z"
         style="fill:#000000;fill-opacity:1;fill-rule:nonzero;stroke:none"
         id="path26" /><path
         d="M 83.6992,107.188 97.2969,97.0195 61.6484,63.4492 Z"
         style="fill:#000000;fill-opacity:1;fill-rule:nonzero;stroke:none"
         id="path28" /><path
         d="M 29.7891,107.281 51.4805,63.4492 16.1094,97.2891 Z"
         style="fill:#000000;fill-opacity:1;fill-rule:nonzero;stroke:none"
         id="path30" /><path
         d="M 65.0664,113.398 56.6094,65.25 48.0625,113.398 Z"
         style="fill:#000000;fill-opacity:1;fill-rule:nonzero;stroke:none"
         id="path32" /></g></g></svg>
