<?xml version="1.0" encoding="UTF-8" standalone="no"?>
<!-- Created with Inkscape (http://www.inkscape.org/) -->

<svg
   version="1.1"
   id="svg2"
   xml:space="preserve"
   width="6.4133334"
   height="14.013333"
   viewBox="0 0 6.4133334 14.013333"
   xmlns="http://www.w3.org/2000/svg"
   xmlns:svg="http://www.w3.org/2000/svg"><defs
     id="defs6" /><g
     id="g8"
     transform="matrix(1.3333333,0,0,-1.3333333,0,14.013333)"><g
       id="g10"
       transform="scale(0.1)"><path
         d="m 42.3047,105.117 5.7617,-0.09 v -4.5 L 27.9883,52.5586 48.0664,4.31641 V 0 H 42.3047 L 24.2109,43.6523 6.11719,0.0898438 H 0 V 3.69141 L 15.9297,41.6719 h -2.1602 l -2.5195,0.7187 -1.35156,0.8125 -0.98828,0.625 -2.07032,2.25 -0.53906,1.2617 -0.71875,1.0782 -0.63672,2.789 v 2.6993 l 0.63672,2.6992 0.71875,1.4414 0.62891,1.0781 1.97656,2.2539 1.26565,0.5391 0.9844,0.8125 2.6132,0.7148 h 2.1602 L 0,101.426 v 3.601 H 6.11719 L 24.2109,61.4688 42.3047,105.117"
         style="fill:#000000;fill-opacity:1;fill-rule:nonzero;stroke:none"
         id="path12" /></g></g></svg>
