<?xml version="1.0" encoding="UTF-8" standalone="no"?>
<!-- Created with Inkscape (http://www.inkscape.org/) -->

<svg
   version="1.1"
   id="svg2"
   xml:space="preserve"
   width="6.4133334"
   height="14.013333"
   viewBox="0 0 6.4133334 14.013333"
   sodipodi:docname="vaderkvarn.svg"
   inkscape:version="1.1.1 (3bf5ae0d25, 2021-09-20)"
   xmlns:inkscape="http://www.inkscape.org/namespaces/inkscape"
   xmlns:sodipodi="http://sodipodi.sourceforge.net/DTD/sodipodi-0.dtd"
   xmlns="http://www.w3.org/2000/svg"
   xmlns:svg="http://www.w3.org/2000/svg"><sodipodi:namedview
     id="namedview7"
     pagecolor="#ffffff"
     bordercolor="#666666"
     borderopacity="1.0"
     inkscape:pageshadow="2"
     inkscape:pageopacity="0.0"
     inkscape:pagecheckerboard="0"
     showgrid="false"
     inkscape:zoom="62.297812"
     inkscape:cx="3.2023597"
     inkscape:cy="7.0146926"
     inkscape:window-width="2560"
     inkscape:window-height="1365"
     inkscape:window-x="0"
     inkscape:window-y="0"
     inkscape:window-maximized="1"
     inkscape:current-layer="g10" /><defs
     id="defs6" /><g
     id="g8"
     transform="matrix(1.3333333,0,0,-1.3333333,0,14.013333)"><g
       id="g10"
       transform="scale(0.1)"><path
         d="m 42.3047,105.117 5.7617,-0.09 v -4.5 L 27.9883,52.5586 48.0664,4.31641 V 0 H 42.3047 L 24.2109,43.6523 6.11719,0.0898438 H 0 V 3.69141 L 15.9297,41.6719 h -2.1602 l -2.5195,0.7187 -1.35156,0.8125 -0.98828,0.625 -2.07032,2.25 -0.53906,1.2617 -0.71875,1.0782 -0.63672,2.789 v 2.6993 l 0.63672,2.6992 0.71875,1.4414 0.62891,1.0781 1.97656,2.2539 1.26565,0.5391 0.9844,0.8125 2.6132,0.7148 h 2.1602 L 0,101.426 v 3.601 H 6.11719 L 24.2109,61.4688 42.3047,105.117"
         style="fill:#2f2f2f;fill-opacity:1.0;fill-rule:nonzero;stroke:none"
         id="path12" /></g></g></svg>
