<?xml version="1.0" encoding="UTF-8" standalone="no"?>
<!-- Created with Inkscape (http://www.inkscape.org/) -->

<svg
   version="1.1"
   id="svg2"
   xml:space="preserve"
   width="8.6933336"
   height="8.6933336"
   viewBox="0 0 8.6933336 8.6933336"
   sodipodi:docname="vandplats.svg"
   inkscape:version="1.1.1 (3bf5ae0d25, 2021-09-20)"
   xmlns:inkscape="http://www.inkscape.org/namespaces/inkscape"
   xmlns:sodipodi="http://sodipodi.sourceforge.net/DTD/sodipodi-0.dtd"
   xmlns="http://www.w3.org/2000/svg"
   xmlns:svg="http://www.w3.org/2000/svg"><sodipodi:namedview
     id="namedview8"
     pagecolor="#ffffff"
     bordercolor="#666666"
     borderopacity="1.0"
     inkscape:pageshadow="2"
     inkscape:pageopacity="0.0"
     inkscape:pagecheckerboard="0"
     showgrid="false"
     inkscape:zoom="100.42178"
     inkscape:cx="4.3466668"
     inkscape:cy="4.3416878"
     inkscape:window-width="2560"
     inkscape:window-height="1365"
     inkscape:window-x="0"
     inkscape:window-y="0"
     inkscape:window-maximized="1"
     inkscape:current-layer="g10" /><defs
     id="defs6" /><g
     id="g8"
     transform="matrix(1.3333333,0,0,-1.3333333,0,8.6933333)"><g
       id="g10"
       transform="scale(0.1)"><path
         d="m 32.7344,65.1953 h -0.336 L 30.25,65.1367 H 29.9023 L 27.2109,64.7656 26.8398,64.6875 24.1758,64.125 23.8125,63.9805 21.3164,63.2148 20.9219,63.0664 18.4805,62.0195 18.2031,61.875 15.8164,60.5234 15.5898,60.3828 13.375,58.9609 12.8906,58.5898 10.832,56.8359 10.6875,56.6875 8.78516,54.8516 8.50781,54.5586 6.80859,52.5234 6.60156,52.1523 5.10547,49.9492 4.86719,49.7461 3.54688,47.418 3.48438,47.1367 2.34766,44.7852 2.03516,44.2227 1.26953,41.6719 V 41.4688 L 0.652344,38.832 0.5625,38.4063 0.199219,35.7773 0.144531,35.4922 0,32.7383 V 32.3672 L 0.0546875,30.2734 V 29.9023 L 0.425781,27.2109 0.507813,26.875 1.07813,24.1797 1.21484,23.8164 1.97656,21.3164 2.125,20.8867 3.17578,18.4844 3.32031,18.2031 4.67969,15.8203 4.8125,15.5938 6.23047,13.4063 6.60156,12.8906 8.35938,10.832 8.50781,10.6836 10.3477,8.78906 10.6289,8.50781 12.668,6.80469 13.0391,6.58203 15.2539,5.10547 15.4453,4.875 17.7734,3.54688 18.0586,3.45703 20.4063,2.35156 20.9805,2.07031 23.5195,1.26953 h 0.2071 L 26.3555,0.652344 26.7891,0.566406 29.418,0.207031 29.7109,0.144531 32.457,0 h 0.3711 l 2.0899,0.0898438 h 0.3711 l 2.6914,0.3398442 0.3515,0.058593 2.6836,0.558599 0.3711,0.16406 2.4922,0.76953 0.418,0.14844 2.414,1.04687 0.293,0.16406 2.3711,1.33594 0.2266,0.13672 2.1757,1.41797 0.5274,0.35156 2.0586,1.77735 0.1406,0.14843 1.9024,1.84379 0.2812,0.2812 1.7109,2.0742 0.2266,0.3321 1.4727,2.1836 0.2226,0.2265 1.3281,2.3242 0.0899,0.2813 1.1055,2.3555 0.2812,0.5742 0.8008,2.539 V 23.75 l 0.6172,2.6055 0.0859,0.4336 0.3711,2.6054 0.0586,0.2813 0.1367,2.7812 v 0.336 l -0.0781,2.164 v 0.336 l -0.3516,2.6836 -0.0586,0.3711 -0.5586,2.6718 -0.1718,0.3711 -0.7618,2.4883 -0.1484,0.4024 -1.0469,2.4296 -0.164,0.293 -1.3282,2.3711 -0.1445,0.2227 -1.418,2.2187 -0.3398,0.4844 -1.7891,2.0703 -0.1484,0.1367 -1.832,1.8985 -0.293,0.2812 -2.0742,1.7109 -0.332,0.1914 -2.1836,1.5079 -0.2266,0.2226 -2.3242,1.3281 -0.2813,0.0625 -2.3554,1.1289 -0.5664,0.3204 -2.5469,0.7617 h -0.2266 l -2.6055,0.6211 -0.4335,0.0898 -2.6094,0.3711 -0.2852,0.0547 -2.7773,0.1367"
         style="fill:#2f2f2f;fill-opacity:1.0;fill-rule:nonzero;stroke:none"
         id="path12" /><path
         d="M 32.7344,56.6875 H 32.25 L 30.8945,56.6094 H 30.6641 L 28.7109,56.4063 28.293,56.3281 26.3008,55.9219 26.0195,55.8438 24.3789,55.3594 23.7266,55.0781 22.1953,54.2813 22.0273,54.2227 20.1797,53.2031 20.0352,53.1445 18.5586,52.2109 18,51.8164 16.582,50.5469 16.4375,50.4531 15.0195,49.1328 14.7344,48.7578 13.5977,47.418 13.3203,47.0586 12.2734,45.4375 12.1836,45.293 11.1367,43.5156 10.9141,43.1641 10.207,41.6719 9.98047,41.1094 9.49609,39.3984 V 39.2617 L 8.98828,37.3281 8.87891,36.7617 8.65234,34.9492 V 34.8086 L 8.50781,32.7383 v -0.5078 l 0.07813,-1.336 v -0.1914 l 0.19922,-2.0156 0.09375,-0.4258 0.39062,-1.957 0.08203,-0.3086 0.48438,-1.6211 0.29296,-0.625 0.7852,-1.5937 0.0547,-0.125 1.0234,-1.8165 0.0586,-0.1484 0.9336,-1.5039 L 13.375,18 l 1.2813,-1.418 0.0781,-0.1484 1.3398,-1.4141 0.3633,-0.2851 1.3359,-1.1328 0.3711,-0.2813 1.6133,-1.0469 0.1445,-0.0859 1.7852,-1.0742 0.3398,-0.207 L 23.5234,10.207 24.0977,10 25.7969,9.49219 h 0.1445 L 27.8672,9.01172 28.4297,8.87891 30.25,8.65234 h 0.1367 L 32.457,8.50781 h 0.5078 l 1.336,0.07813 h 0.1914 l 2.0117,0.20312 0.4297,0.08985 1.9531,0.41797 0.3242,0.04687 1.6016,0.51953 0.6328,0.28122 1.582,0.7618 0.1368,0.0585 1.8242,1 0.1406,0.086 1.5039,0.9258 0.5625,0.4297 1.418,1.25 0.1484,0.0781 1.4141,1.3594 0.2851,0.3398 1.1329,1.3398 0.2812,0.3711 1.0469,1.6407 0.0859,0.1367 1.086,1.7656 0.1835,0.3438 0.711,1.4921 0.207,0.5782 0.5078,1.6953 v 0.1445 l 0.4805,1.9258 0.1445,0.5351 0.2266,1.8711 v 0.1485 l 0.1328,2.0351 v 0.4805 l -0.0781,1.3633 v 0.2265 l -0.2031,1.9571 -0.0782,0.4258 -0.4297,1.9804 -0.0586,0.2813 -0.5195,1.6445 -0.2695,0.6484 -0.7735,1.5352 -0.0468,0.1641 -1,1.8437 -0.086,0.1485 -0.9375,1.4765 -0.4179,0.5586 -1.2422,1.418 -0.086,0.1445 -1.3671,1.418 -0.3321,0.2812 -1.3398,1.1367 -0.3594,0.2813 -1.6406,1.0508 -0.1485,0.0859 -1.7578,1.043 -0.3515,0.2265 -1.4922,0.711 -0.5664,0.2265 -1.711,0.4844 h -0.1367 l -1.9297,0.5156 -0.5312,0.1133 -1.875,0.2227 h -0.1367 l -2.0508,0.1367"
         style="fill:#ffffff;fill-opacity:1;fill-rule:nonzero;stroke:none"
         id="path14" /></g></g></svg>
