<?xml version="1.0" encoding="UTF-8" standalone="no"?>
<!-- Created with Inkscape (http://www.inkscape.org/) -->

<svg
   version="1.1"
   id="svg2"
   xml:space="preserve"
   width="12.12"
   height="12.08"
   viewBox="0 0 12.12 12.08"
   sodipodi:docname="vandrarhem.svg"
   inkscape:version="1.1.1 (3bf5ae0d25, 2021-09-20)"
   xmlns:inkscape="http://www.inkscape.org/namespaces/inkscape"
   xmlns:sodipodi="http://sodipodi.sourceforge.net/DTD/sodipodi-0.dtd"
   xmlns="http://www.w3.org/2000/svg"
   xmlns:svg="http://www.w3.org/2000/svg"><sodipodi:namedview
     id="namedview8"
     pagecolor="#ffffff"
     bordercolor="#666666"
     borderopacity="1.0"
     inkscape:pageshadow="2"
     inkscape:pageopacity="0.0"
     inkscape:pagecheckerboard="0"
     showgrid="false"
     inkscape:zoom="72.268212"
     inkscape:cx="6.0538373"
     inkscape:cy="6.0469186"
     inkscape:window-width="2560"
     inkscape:window-height="1365"
     inkscape:window-x="0"
     inkscape:window-y="0"
     inkscape:window-maximized="1"
     inkscape:current-layer="g10" /><defs
     id="defs6" /><g
     id="g8"
     transform="matrix(1.3333333,0,0,-1.3333333,0,12.08)"><g
       id="g10"
       transform="scale(0.1)"><path
         d="m 36.0703,53.0117 v 0.2149 l -4.8828,0.9922 0.207,1.3476 29.4063,35 L 90.4883,55.2109 90.8594,53.8555 85.2539,53.082 84.8828,9.16016 h 5.9766 L 90.7031,0 H 0 v 9.0625 l 12.3984,0.09766 1.0704,0.89844 0.7734,10.918 -0.4961,2.207 -3.1836,-0.6445 -4.18359,-0.7032 -3.60938,-0.4296 -0.14844,-0.1368 -1.35156,0.625 -0.21094,1.3477 2.55469,2.832 2.69922,3.2617 2.83203,5.0391 1.41797,2.9766 0.9922,3.4687 -0.1484,1.6328 -6.01567,-2.1992 -1.07032,-0.2734 -0.55859,1.332 4.89062,7.582 3.24996,6.7383 1.7032,4.6836 2.2695,7.1524 1.7773,5.5937 1.4844,-5.6602 1.5508,-6.6718 1.3555,-4.668 2.7617,-6.8047 5.0312,-7.8672 v -1.4101 l -1.4179,0.0586 -6.375,1.9179 0.207,-3.539 2.2773,-5.6055 3.3282,-5.0977 1.9804,-2.4804 1.6954,-1.836 0.5781,-1.3476 -1.2149,-0.6445 -4.8164,0.3515 -6.4492,1.4258 -0.3555,-2.207 0.1446,-10.4883 0.4961,-1.32814 15.4414,0.11718 0.7148,43.73436"
         style="fill:#2f2f2f;fill-opacity:1.0;fill-rule:nonzero;stroke:none"
         id="path12" /><path
         d="M 53.7852,32.0313 H 67.4609 V 9.43359 H 53.7852 V 32.0313"
         style="fill:#ffffff;fill-opacity:1;fill-rule:nonzero;stroke:none"
         id="path14" /></g></g></svg>
