<?xml version="1.0" encoding="UTF-8" standalone="no"?>
<!-- Created with Inkscape (http://www.inkscape.org/) -->

<svg
   version="1.1"
   id="svg2"
   xml:space="preserve"
   width="13.586667"
   height="13.6"
   viewBox="0 0 13.586667 13.6"
   sodipodi:docname="vindkraft.svg"
   inkscape:version="1.1.1 (3bf5ae0d25, 2021-09-20)"
   xmlns:inkscape="http://www.inkscape.org/namespaces/inkscape"
   xmlns:sodipodi="http://sodipodi.sourceforge.net/DTD/sodipodi-0.dtd"
   xmlns="http://www.w3.org/2000/svg"
   xmlns:svg="http://www.w3.org/2000/svg"><sodipodi:namedview
     id="namedview8"
     pagecolor="#ffffff"
     bordercolor="#666666"
     borderopacity="1.0"
     inkscape:pageshadow="2"
     inkscape:pageopacity="0.0"
     inkscape:pagecheckerboard="0"
     showgrid="false"
     inkscape:zoom="64.191175"
     inkscape:cx="6.8000002"
     inkscape:cy="6.792211"
     inkscape:window-width="2560"
     inkscape:window-height="1365"
     inkscape:window-x="0"
     inkscape:window-y="0"
     inkscape:window-maximized="1"
     inkscape:current-layer="g10" /><defs
     id="defs6" /><g
     id="g8"
     transform="matrix(1.3333333,0,0,-1.3333333,0,13.6)"><g
       id="g10"
       transform="scale(0.1)"><path
         d="m 6.75,76.7734 1.70703,0.1797 1.89067,0.3555 h 4.0507 l 2.0704,-0.0859 1.9765,-0.2696 2.2539,-0.2734 2.4258,-0.3594 1.0859,-0.2695 2.1563,-0.5391 2.4336,-0.8086 1.7969,-0.6289 2.0703,-0.8125 1.9804,-0.8086 1.6211,-0.9922 1.711,-0.9921 1.6211,-1.0782 1.0781,-0.8984 1.0781,-1.0781 0.9922,-0.9922 0.7188,-1.1719 0.4492,-0.7187 0.0898,-1.2579 0.0899,-0.1836 0.4492,1.1719 1.2578,2.2461 1.7148,1.7149 1.5274,1.4414 2.2539,1.4414 2.1562,0.9843 2.25,0.629 2.5157,0.3632 2.3437,-0.0859 2.7031,-0.543 2.1602,-0.8984 2.1601,-1.1719 0.9844,-0.8125 -0.2617,0.543 -0.2734,1.0781 v 1.0781 1.4414 l 0.1757,1.3477 0.4571,1.6211 0.7148,1.5351 0.6328,1.6133 0.9883,1.7149 1.082,1.7109 1.0743,1.707 1.4453,1.711 1.3476,1.8008 1.5313,1.707 0.7148,0.7187 1.5313,1.7149 1.6211,1.4414 1.7968,1.4414 1.8086,1.3437 1.6094,1.1719 1.8985,0.8985 1.621,1.082 1.6211,0.6288 1.4336,0.543 1.4453,0.535 1.3477,0.274 h 1.3477 l 1.0859,-0.18 0.9844,-0.273 0.9965,-0.719 0.261,-0.18 0.45,-0.539 0.453,-0.9882 0.273,-1.0821 0.086,-1.0781 V 95.582 l -0.359,-1.3476 -0.453,-1.6211 -0.536,-1.5352 -0.6325,-1.6133 -1.0781,-1.7148 -1.082,-1.7109 -1.0742,-1.8868 -1.2618,-1.7109 -1.4414,-1.5273 -1.6211,-1.7149 -0.625,-0.8984 v -0.086 l -1.6211,-1.5351 -1.621,-1.5274 -1.7969,-1.5273 -1.711,-1.1719 -1.8086,-1.082 -1.707,-1.168 -1.5234,-0.8125 -1.7188,-0.7187 -1.5234,-0.7227 -1.5352,-0.2695 -1.4336,-0.2656 -1.082,0.0859 -1.1719,0.0938 -1.0742,0.0859 -0.1015,0.1836 0.7265,-0.8125 1.3477,-1.9805 0.9961,-2.2461 0.5351,-2.6133 0.2735,-2.25 -0.2735,-2.4257 -0.7226,-2.3438 -0.8086,-2.1601 -1.3477,-2.0704 -1.5351,-1.8007 -1.7071,-1.4375 -2.1601,-1.4375 -2.336,-0.9922 -0.6328,-0.3633 0.8985,-0.0859 0.9961,-0.2735 1.3476,-0.539 0.8984,-0.8086 1.2618,-0.8125 0.8086,-1.0821 1.2578,-1.3476 1.0859,-1.2617 1.0742,-1.7071 0.9961,-1.8867 0.8985,-1.8945 0.7148,-1.9805 1.082,-1.9727 0.6368,-2.2578 0.2617,-0.8086 v -0.0898 l 0.6328,-2.3438 0.4492,-2.1562 0.3633,-2.0703 0.2617,-2.336 0.3633,-1.8945 V 11.5234 9.62891 L 78.4766,7.74609 78.3906,6.21094 78.0273,4.58984 77.5781,3.33203 76.9414,2.16016 76.4063,1.44531 75.5078,0.722656 74.6953,0.1875 74.1602,0 H 73.1641 L 72.3555,0.0898438 71.457,0.363281 70.1055,0.8125 l -0.9844,0.63281 -1.2617,0.98828 -0.9961,1.17188 -0.9844,1.25781 -1.1719,1.6211 -0.9843,1.62109 -1.1719,1.61328 -0.6367,1.98045 -0.9844,1.9844 -0.9024,1.9805 -0.7187,2.2461 -0.1758,0.8984 -0.1015,0.1875 -0.625,2.0703 -0.4454,2.1563 -0.539,2.2461 -0.0977,2.2578 -0.2617,1.8828 v 1.9844 l 0.0859,1.8828 v 1.8086 l 0.1758,1.6211 0.6367,1.4335 0.4454,1.086 0.539,1.2578 0.6367,0.8008 0.711,0.6367 0.6367,0.4492 -2.4336,-0.1758 h -2.332 l -2.5274,0.4493 -2.25,0.8984 -2.0703,1.2578 -1.8906,1.5313 -1.707,1.7109 -1.1719,2.0703 -0.9922,2.1602 -0.7188,2.5195 -0.0859,2.4297 0.3555,2.5195 0.1797,0.4492 -0.086,-0.0859 L 42.207,59.582 41.3086,58.7695 40.2305,58.2344 38.7891,57.7852 37.2578,57.4219 35.5469,57.1484 33.75,56.8789 31.8555,56.793 h -2.2461 l -1.9805,0.0859 -2.0703,0.1836 -2.3398,0.3594 -2.25,0.3594 -0.9922,0.4531 v -0.0938 l -2.1602,0.543 -2.25,0.7187 -2.25,0.7188 -1.8906,0.8984 -1.97658,0.6328 -1.80469,1.1719 -1.4375,0.9844 L 4.58984,64.7109 3.33203,65.6133 2.33984,66.6914 1.34766,67.7695 0.71875,68.7617 0.175781,69.6602 0.0898438,70.832 0,71.8242 0.0898438,72.2695 0.355469,73.082 0.984375,73.9805 1.71094,74.5234 2.69922,75.332 3.77734,75.8711 5.30859,76.4102 6.75,76.7734"
         style="fill:#2f2f2f;fill-opacity:1;fill-rule:nonzero;stroke:none"
         id="path12" /><path
         d="m 59.7578,64.8945 1.1719,-0.2734 1.082,-0.3594 0.8985,-0.539 1.5234,-1.4414 0.6328,-1.0782 0.4531,-0.9922 L 65.793,59.2188 65.6914,58.1406 65.6055,56.8789 65.3438,55.6211 64.9805,54.6289 64.4336,53.8242 63.625,52.9219 62.6367,52.1094 61.7383,51.4805 60.4805,50.9453 59.582,50.668 58.4063,50.582 h -1.3438 l -1.1719,0.2696 -0.9062,0.2734 -0.8985,0.5352 -0.8984,0.8125 -0.8086,0.7226 -0.4492,0.8985 -0.4531,0.9882 -0.3594,1.2618 -0.0938,0.9921 0.2774,1.1641 0.1758,1.1719 0.4531,0.9922 0.7148,1.082 0.543,0.7148 0.9883,0.8125 0.9922,0.7227 1.1718,0.4492 h 0.086 l 0.9961,0.3555 1.0742,0.0937 h 1.2617"
         style="fill:#ffffff;fill-opacity:1;fill-rule:nonzero;stroke:none"
         id="path14" /></g></g></svg>
