<?xml version="1.0" encoding="UTF-8" standalone="no"?>
<!-- Created with Inkscape (http://www.inkscape.org/) -->

<svg
   version="1.1"
   id="svg2"
   xml:space="preserve"
   width="13.293333"
   height="13.293333"
   viewBox="0 0 13.293333 13.293333"
   sodipodi:docname="bradgard.svg"
   inkscape:version="1.2.2 (b0a8486541, 2022-12-01)"
   xmlns:inkscape="http://www.inkscape.org/namespaces/inkscape"
   xmlns:sodipodi="http://sodipodi.sourceforge.net/DTD/sodipodi-0.dtd"
   xmlns="http://www.w3.org/2000/svg"
   xmlns:svg="http://www.w3.org/2000/svg"><sodipodi:namedview
     id="namedview8"
     pagecolor="#ffffff"
     bordercolor="#666666"
     borderopacity="1.0"
     inkscape:pageshadow="2"
     inkscape:pageopacity="0.0"
     inkscape:pagecheckerboard="0"
     showgrid="false"
     inkscape:zoom="65.672017"
     inkscape:cx="6.2736005"
     inkscape:cy="6.6466666"
     inkscape:window-width="2560"
     inkscape:window-height="1364"
     inkscape:window-x="1920"
     inkscape:window-y="0"
     inkscape:window-maximized="1"
     inkscape:current-layer="g10"
     inkscape:showpageshadow="2"
     inkscape:deskcolor="#d1d1d1" /><defs
     id="defs6" /><g
     id="g8"
     transform="matrix(1.3333333,0,0,-1.3333333,0,13.293333)"><g
       id="g10"
       transform="scale(0.1)"><path
         id="path12"
         style="fill:#2f2f2f;fill-opacity:1;fill-rule:nonzero;stroke:none"
         d="M 21.503907 99.729297 L 21.503907 78.22539 L 0 78.22539 L 0 70.842577 L 21.503907 70.842577 L 21.503907 28.9041 L 0 28.9041 L 0 21.521287 L 21.503907 21.521287 L 21.503907 0.0027318751 L 28.886719 0.0027318751 L 28.886719 21.521287 L 70.825197 21.521287 L 70.825197 0.0027318751 L 78.20801 0.0027318751 L 78.20801 21.521287 L 99.726565 21.521287 L 99.726565 28.9041 L 78.20801 28.9041 L 78.20801 70.842577 L 99.726565 70.842577 L 99.726565 78.22539 L 78.20801 78.22539 L 78.20801 99.729297 L 70.825197 99.729297 L 70.825197 78.22539 L 28.886719 78.22539 L 28.886719 99.729297 L 21.503907 99.729297 z M 28.886719 70.842577 L 70.825197 70.842577 L 70.825197 28.9041 L 28.886719 28.9041 L 28.886719 70.842577 z " /></g></g></svg>
