<?xml version="1.0" encoding="UTF-8" standalone="no"?>
<!-- Created with Inkscape (http://www.inkscape.org/) -->

<svg
   version="1.1"
   id="svg2"
   xml:space="preserve"
   width="24.573334"
   height="15.493333"
   viewBox="0 0 24.573334 15.493333"
   sodipodi:docname="cykelled.svg"
   inkscape:version="1.2.2 (b0a8486541, 2022-12-01)"
   xmlns:inkscape="http://www.inkscape.org/namespaces/inkscape"
   xmlns:sodipodi="http://sodipodi.sourceforge.net/DTD/sodipodi-0.dtd"
   xmlns="http://www.w3.org/2000/svg"
   xmlns:svg="http://www.w3.org/2000/svg"><sodipodi:namedview
     id="namedview12"
     pagecolor="#ffffff"
     bordercolor="#666666"
     borderopacity="1.0"
     inkscape:pageshadow="2"
     inkscape:pageopacity="0.0"
     inkscape:pagecheckerboard="0"
     showgrid="false"
     inkscape:zoom="48.141616"
     inkscape:cx="11.798524"
     inkscape:cy="7.7583603"
     inkscape:window-width="2560"
     inkscape:window-height="1364"
     inkscape:window-x="1920"
     inkscape:window-y="0"
     inkscape:window-maximized="1"
     inkscape:current-layer="g10"
     inkscape:showpageshadow="2"
     inkscape:deskcolor="#d1d1d1" /><defs
     id="defs6" /><g
     id="g8"
     transform="matrix(1.3333333,0,0,-1.3333333,0,15.493333)"><g
       id="g10"
       transform="scale(0.1)"><path
         id="path12"
         style="fill:#2f2f2f;fill-opacity:1.0;fill-rule:nonzero;stroke:none"
         d="M 117.09961 116.18535 L 116.2793 116.02422 L 115.47364 115.65801 L 114.74121 115.11602 L 114.21387 114.38359 L 113.74512 113.66582 L 113.4961 112.87481 L 113.40821 111.9666 L 113.40821 111.43926 L 113.67188 110.51641 L 114.03809 109.69609 L 114.58008 109.08086 L 115.19532 108.45098 L 115.91309 108.08477 L 116.82129 107.83574 L 117.6416 107.74785 L 124.92188 107.74785 L 132.29004 102.78203 L 132.37793 102.70879 L 132.58301 102.6209 L 132.74414 102.41582 L 133.19825 102.34258 L 133.28614 102.24004 L 133.74024 102.07891 L 133.02246 101.7127 L 125.46387 99.178516 L 114.8291 99.178516 L 114.28711 99.178516 L 113.40821 99.017383 L 112.58789 98.636523 L 111.97266 98.123828 L 111.34278 97.376758 L 110.88867 96.658984 L 110.61035 95.838672 L 110.61035 94.959765 L 110.61035 94.417773 L 110.78614 93.50957 L 111.15235 92.791797 L 111.69434 92.074023 L 112.30957 91.44414 L 113.12989 91.092578 L 113.9502 90.828906 L 114.8291 90.711719 L 126.167 90.711719 L 126.44532 90.711719 L 126.6211 90.711719 L 126.70899 90.711719 L 127.61719 90.916797 L 127.61719 90.990039 L 130.41504 91.898242 L 130.41504 85.042773 L 64.965822 85.042773 L 65.1709 85.599414 L 65.244142 86.47832 L 65.244142 90.711719 L 66.591799 90.711719 L 67.23633 90.711719 L 68.027345 90.916797 L 68.847658 91.268359 L 69.550783 91.810351 L 70.092775 92.528125 L 70.546877 93.23125 L 70.839846 94.051562 L 70.913088 94.959765 L 70.839846 95.501758 L 70.634767 96.409961 L 70.297853 97.200976 L 69.755861 97.816211 L 69.11133 98.446094 L 68.305666 98.812305 L 67.485353 99.105273 L 66.591799 99.178516 L 55.971681 99.178516 L 48.164064 101.78594 L 47.622072 101.96172 L 46.713868 102.07891 L 45.893556 101.96172 L 44.985353 101.7127 L 44.282228 101.25859 L 43.652345 100.62871 L 43.110353 99.896289 L 42.744142 99.105273 L 42.583009 98.563281 L 42.583009 97.742969 L 42.656251 96.834766 L 42.934571 96.04375 L 43.374025 95.208789 L 43.901368 94.593555 L 44.648439 94.139453 L 45.439454 93.773242 L 53.994142 90.916797 L 54.257814 90.828906 L 54.448244 90.828906 L 54.536134 90.711719 L 55.356447 90.711719 L 55.444337 90.711719 L 56.689455 90.711719 L 56.689455 86.47832 L 56.689455 85.863086 L 56.982423 85.042773 L 57.333986 84.237109 L 57.773439 83.621875 L 57.685548 83.416796 L 57.509767 83.255664 L 57.436525 83.167773 L 57.436525 83.079882 L 57.333986 82.977343 L 57.333986 82.874804 L 45.351564 62.645312 L 44.44336 63.011523 L 42.202149 63.817187 L 39.858399 64.359179 L 37.456056 64.798632 L 35.009767 65.076952 L 32.563477 65.179491 L 32.314454 65.179491 L 29.882813 65.076952 L 27.436524 64.798632 L 25.107423 64.359179 L 22.749024 63.641405 L 20.434571 62.806444 L 18.28125 61.824999 L 16.098633 60.755663 L 14.033203 59.408007 L 12.158203 57.97246 L 10.341797 56.346483 L 8.6425783 54.632616 L 7.0312502 52.845507 L 5.5810548 50.853319 L 4.3066407 48.787889 L 3.2226563 46.634569 L 2.241211 44.4666 L 1.4501953 42.12285 L 0.82031252 39.7791 L 0.36621095 37.43535 L 0.087890627 35.003709 L 0 32.572069 L 0 32.235155 L 0.087890627 29.803514 L 0.45410157 27.445115 L 0.90820315 25.028123 L 1.5234375 22.684373 L 2.3437501 20.443162 L 3.310547 18.172654 L 4.5117189 16.107224 L 5.7421876 14.041795 L 7.2802736 12.049607 L 8.8183596 10.262498 L 10.517578 8.563279 L 12.421875 7.025193 L 14.399414 5.5896461 L 16.376954 4.3005835 L 18.530274 3.1580054 L 20.771485 2.1472632 L 23.041993 1.4441382 L 25.371094 0.81425533 L 27.802735 0.3748022 L 30.249024 0.08183344 L 32.563477 -0.0060571877 L 32.944337 -0.0060571877 L 35.375977 0.08183344 L 37.807618 0.3748022 L 40.13672 0.9167944 L 42.495118 1.5320288 L 44.82422 2.3523413 L 46.962892 3.3337866 L 49.145509 4.5056617 L 51.225587 5.7507789 L 53.085939 7.2009742 L 54.902345 8.8123024 L 56.601564 10.540818 L 58.212892 12.342576 L 59.663087 14.320115 L 60.922853 16.385545 L 62.021486 18.553514 L 63.002931 20.794725 L 63.808595 23.050584 L 64.42383 25.365037 L 64.89258 27.723436 L 64.965822 28.353319 L 95.126956 28.353319 L 95.214846 28.353319 L 97.80762 28.353319 L 98.012698 28.353319 L 98.100588 28.353319 L 98.36426 28.353319 L 98.657229 28.426561 L 98.818362 28.426561 L 99.008792 28.543748 L 99.272463 28.543748 L 99.433596 28.631639 L 99.638674 28.704881 L 99.799807 28.792772 L 99.975588 28.968553 L 100.25391 29.173631 L 100.42969 29.246873 L 100.62012 29.349412 L 100.70801 29.422654 L 100.70801 29.525194 L 100.7959 29.627733 L 101.07422 29.876756 L 101.33789 30.169725 L 101.41114 30.242967 L 101.61621 30.623826 L 101.7041 30.87285 L 101.79199 30.946092 L 101.79199 31.048631 L 101.87989 31.414842 L 101.95313 31.693162 L 101.95313 31.781053 L 102.04102 31.868944 L 102.04102 32.484178 L 102.04102 32.572069 L 102.04102 32.777147 L 102.04102 32.93828 L 102.04102 33.114061 L 101.95313 33.392381 L 101.95313 33.568162 L 101.87989 33.831834 L 101.87989 34.007616 L 101.79199 34.095506 L 130.8545 69.398241 L 132.58301 58.968554 L 131.22071 57.97246 L 129.33106 56.346483 L 127.61719 54.617968 L 126.0791 52.845507 L 124.64356 50.853319 L 123.38379 48.787889 L 122.22657 46.634569 L 121.31836 44.4666 L 120.49805 42.12285 L 119.86817 39.764452 L 119.41407 37.43535 L 119.16504 35.003709 L 119.07715 32.572069 L 119.07715 32.235155 L 119.16504 29.803514 L 119.50196 27.445115 L 119.95606 25.028123 L 120.58594 22.684373 L 121.40625 20.443162 L 122.3877 18.172654 L 123.55957 16.107224 L 124.83399 14.041795 L 126.28418 12.049607 L 127.89551 10.262498 L 129.59473 8.563279 L 131.49903 7.025193 L 133.37403 5.5896461 L 135.43946 4.3005835 L 137.62207 3.1580054 L 139.84864 2.1472632 L 142.1045 1.4441382 L 144.44825 0.81425533 L 146.87989 0.3748022 L 149.22364 0.08183344 L 151.65528 -0.0060571877 L 152.02149 -0.0060571877 L 154.42383 0.08183344 L 156.87012 0.3748022 L 159.21387 0.9167944 L 161.55762 1.5320288 L 163.81348 2.3523413 L 166.04004 3.3337866 L 168.20801 4.5056617 L 170.18555 5.7507789 L 172.17774 7.2009742 L 173.9502 8.8123024 L 175.69336 10.540818 L 177.30469 12.342576 L 178.75489 14.305467 L 180 16.385545 L 181.06934 18.553514 L 182.06543 20.794725 L 182.88575 23.035936 L 183.50098 25.365037 L 183.96973 27.723436 L 184.21875 30.169725 L 184.30665 32.572069 L 184.30665 32.93828 L 184.14551 35.36992 L 183.85254 37.816209 L 183.42774 40.130663 L 182.76856 42.489061 L 181.97754 44.730272 L 180.98145 46.971483 L 179.83887 49.036913 L 178.46192 51.116991 L 177.02637 53.079882 L 175.48829 54.910936 L 173.71582 56.610155 L 171.88477 58.148241 L 169.90723 59.583788 L 167.82715 60.946093 L 165.77637 62.015429 L 163.52051 63.011523 L 161.17676 63.817187 L 158.84766 64.34453 L 156.48926 64.798632 L 154.08692 65.076952 L 151.65528 65.164843 L 151.28907 65.164843 L 148.95996 65.076952 L 146.51368 64.798632 L 144.09668 64.34453 L 141.84082 63.641405 L 140.49317 63.187304 L 138.94043 72.620898 L 138.94043 77.952929 L 138.94043 81.014453 L 138.94043 81.102343 L 138.94043 94.959765 L 138.86719 95.135547 L 142.19239 96.834766 L 142.54395 97.025195 L 142.63184 97.025195 L 142.74903 97.113086 L 143.37891 97.655078 L 143.45215 97.742969 L 146.14746 100.42363 L 146.23536 100.54082 L 146.35254 100.62871 L 146.44043 100.7166 L 146.51368 100.87773 L 146.68946 101.1707 L 146.87989 101.34648 L 146.87989 101.41973 L 147.07032 101.6248 L 147.14356 101.96172 L 147.23145 102.1668 L 147.23145 102.24004 L 147.33399 102.41582 L 147.33399 102.50371 L 147.33399 102.70879 L 147.43653 102.86992 L 147.43653 103.32402 L 147.43653 103.41191 L 147.43653 103.48516 L 147.43653 103.86602 L 147.43653 104.14434 L 147.33399 104.32012 L 147.33399 104.39336 L 147.23145 104.68633 L 147.14356 105.02324 L 147.07032 105.11113 L 147.07032 105.22832 L 146.98243 105.38945 L 146.68946 105.75566 L 146.68946 105.84355 L 146.61621 106.00469 L 146.23536 106.38555 L 146.14746 106.47344 L 146.05957 106.63457 L 145.89844 106.63457 L 145.78125 106.83965 L 145.53223 107.01543 L 145.35645 107.08867 L 145.15137 107.20586 L 144.99024 107.29375 L 144.62403 107.45488 L 144.53614 107.45488 L 144.25782 107.54277 L 144.16993 107.63066 L 136.53809 110.1502 L 128.68653 115.36504 L 128.59864 115.48223 L 128.51075 115.48223 L 128.07129 115.81914 L 127.9834 115.81914 L 127.89551 115.81914 L 127.5293 116.02422 L 127.25098 116.11211 L 127.0752 116.11211 L 126.81153 116.18535 L 117.09961 116.18535 z M 69.550783 76.517382 L 125.625 76.517382 L 96.577151 41.214647 L 69.550783 76.517382 z M 61.450197 73.16289 L 89.17969 36.834764 L 64.89258 36.834764 L 64.804689 37.816209 L 64.350588 40.145311 L 63.720705 42.489061 L 62.900392 44.730272 L 61.904298 46.971483 L 60.747072 49.036913 L 59.384767 51.116991 L 57.963869 53.079882 L 56.440431 54.910936 L 54.711915 56.610155 L 52.836915 58.148241 L 52.631837 58.309374 L 61.450197 73.16289 z M 32.563477 56.698046 L 33.017579 56.683397 L 35.083009 56.610155 L 37.163087 56.243944 L 39.155274 55.81914 L 40.957032 55.15996 L 28.959962 34.754686 L 28.798829 34.388475 L 28.710938 34.300584 L 28.535157 33.831834 L 28.432618 33.480272 L 28.432618 33.392381 L 28.344727 32.572069 L 28.344727 32.308397 L 28.432618 32.030076 L 28.432618 31.868944 L 28.432618 31.693162 L 28.535157 31.414842 L 28.623048 31.15117 L 28.710938 30.946092 L 28.710938 30.87285 L 28.886719 30.623826 L 28.959962 30.4041 L 29.077149 30.242967 L 29.16504 30.052537 L 29.340821 29.876756 L 29.501954 29.715623 L 29.619141 29.525194 L 29.794923 29.422654 L 29.956055 29.349412 L 30.161134 29.08574 L 30.424805 28.968553 L 30.498048 28.880662 L 30.776368 28.704881 L 30.952149 28.704881 L 30.952149 28.631639 L 31.406251 28.543748 L 31.772462 28.426561 L 32.680665 28.353319 L 32.768556 28.353319 L 56.35254 28.353319 L 56.35254 28.089647 L 55.810548 26.024217 L 55.151369 24.046678 L 54.375001 22.142381 L 53.378908 20.355271 L 52.207033 18.553514 L 50.932618 16.927537 L 49.482423 15.389451 L 47.958986 14.041795 L 46.347657 12.782029 L 44.560548 11.624802 L 42.744142 10.716599 L 40.751954 9.8962868 L 38.774415 9.2810524 L 36.826173 8.8123024 L 34.746095 8.563279 L 32.563477 8.4753883 L 32.226563 8.4753883 L 30.161134 8.6365212 L 28.095704 8.900193 L 26.103516 9.3542946 L 24.111329 10.101365 L 22.22168 10.877732 L 20.34668 11.888474 L 18.618165 12.943162 L 17.006836 14.232224 L 15.483399 15.667771 L 14.033203 17.17656 L 12.773438 18.919725 L 11.704102 20.618943 L 10.708008 22.52324 L 9.8876956 24.383592 L 9.3457034 26.361131 L 8.8916018 28.426561 L 8.6425783 30.506639 L 8.5546877 32.572069 L 8.5546877 32.93828 L 8.6425783 35.003709 L 8.8916018 37.083787 L 9.433594 39.149217 L 10.092774 41.126756 L 10.883789 43.045702 L 11.879883 44.818163 L 13.03711 46.634569 L 14.311524 48.245897 L 15.761719 49.769335 L 17.285157 51.116991 L 18.911133 52.376757 L 20.683594 53.548632 L 22.514649 54.456835 L 24.492188 55.277147 L 26.44043 55.892382 L 28.432618 56.361132 L 30.498048 56.610155 L 32.563477 56.698046 z M 151.65528 56.683397 L 152.02149 56.683397 L 154.17481 56.610155 L 156.167 56.243944 L 158.23243 55.81914 L 160.20996 55.15996 L 162.08496 54.368944 L 163.97461 53.37285 L 165.68848 52.200975 L 167.29981 50.94121 L 168.82325 49.491014 L 170.27344 47.967577 L 171.54786 46.25371 L 172.63184 44.554491 L 173.62793 42.664842 L 174.33106 40.760545 L 174.94629 38.812303 L 175.41504 36.732225 L 175.69336 34.637498 L 175.78125 32.572069 L 175.78125 32.235155 L 175.69336 30.169725 L 175.32715 28.089647 L 174.8584 26.024217 L 174.24317 24.046678 L 173.42286 22.142381 L 172.42676 20.355271 L 171.26954 18.553514 L 170.02442 16.927537 L 168.58887 15.389451 L 167.05079 14.041795 L 165.42481 12.782029 L 163.6084 11.624802 L 161.7334 10.716599 L 159.8584 9.8962868 L 157.86621 9.2810524 L 155.78614 8.8123024 L 153.72071 8.563279 L 151.65528 8.4753883 L 151.28907 8.4753883 L 149.22364 8.6365212 L 147.14356 8.900193 L 145.15137 9.3542946 L 143.17383 10.101365 L 141.22559 10.877732 L 139.40918 11.888474 L 137.70996 12.943162 L 135.98145 14.232224 L 134.44336 15.667771 L 133.11035 17.17656 L 131.83594 18.919725 L 130.75196 20.618943 L 129.77051 22.508592 L 128.9795 24.383592 L 128.34961 26.361131 L 127.89551 28.426561 L 127.61719 30.506639 L 127.61719 32.572069 L 127.61719 32.93828 L 127.69043 35.003709 L 127.9834 37.083787 L 128.51075 39.149217 L 129.15528 41.126756 L 129.97559 43.045702 L 130.95703 44.818163 L 132.04102 46.634569 L 133.37403 48.245897 L 134.19434 49.1541 L 136.08399 37.816209 L 136.18653 37.523241 L 136.25977 36.995897 L 136.4209 36.615037 L 136.62598 36.175584 L 136.88965 35.736131 L 137.06543 35.457811 L 137.16797 35.457811 L 137.3291 35.296678 L 137.70996 34.915819 L 137.78321 34.842576 L 149.13575 26.361131 L 149.5752 26.024217 L 150.36621 25.658006 L 151.28907 25.482225 L 152.10938 25.584764 L 153.00293 25.745897 L 153.8086 26.024217 L 154.51172 26.566209 L 155.05371 27.181443 L 155.41993 27.650194 L 155.69825 28.426561 L 155.87403 29.349412 L 155.87403 30.242967 L 155.69825 31.048631 L 155.41993 31.868944 L 154.87793 32.572069 L 154.2627 33.114061 L 144.25782 40.687303 L 141.92871 54.617968 L 143.54004 55.277147 L 145.53223 55.892382 L 147.50977 56.346483 L 149.5752 56.610155 L 151.65528 56.683397 z M 48.325197 50.853319 L 49.775392 49.491014 L 51.225587 47.967577 L 52.470704 46.25371 L 53.554689 44.554491 L 54.536134 42.664842 L 55.239259 40.760545 L 55.898439 38.812303 L 56.35254 36.834764 L 40.048829 36.834764 L 48.325197 50.853319 z " /></g></g></svg>
