<?xml version="1.0" encoding="UTF-8" standalone="no"?>
<!-- Created with Inkscape (http://www.inkscape.org/) -->

<svg
   version="1.1"
   id="svg2"
   xml:space="preserve"
   width="15.12"
   height="14.4"
   viewBox="0 0 15.12 14.4"
   sodipodi:docname="fyr.svg"
   inkscape:version="1.2.2 (b0a8486541, 2022-12-01)"
   xmlns:inkscape="http://www.inkscape.org/namespaces/inkscape"
   xmlns:sodipodi="http://sodipodi.sourceforge.net/DTD/sodipodi-0.dtd"
   xmlns="http://www.w3.org/2000/svg"
   xmlns:svg="http://www.w3.org/2000/svg"><sodipodi:namedview
     id="namedview8"
     pagecolor="#ffffff"
     bordercolor="#666666"
     borderopacity="1.0"
     inkscape:pageshadow="2"
     inkscape:pageopacity="0.0"
     inkscape:pagecheckerboard="0"
     showgrid="false"
     inkscape:zoom="60.625002"
     inkscape:cx="7.1752575"
     inkscape:cy="7.1999998"
     inkscape:window-width="2560"
     inkscape:window-height="1364"
     inkscape:window-x="1920"
     inkscape:window-y="0"
     inkscape:window-maximized="1"
     inkscape:current-layer="g10"
     inkscape:showpageshadow="2"
     inkscape:deskcolor="#d1d1d1" /><defs
     id="defs6" /><g
     id="g8"
     transform="matrix(1.3333333,0,0,-1.3333333,0,14.4)"><g
       id="g10"
       transform="scale(0.1)"><path
         id="path12"
         style="fill:#2f2f2f;fill-opacity:1;fill-rule:nonzero;stroke:none"
         d="M 56.879884 108.01465 L 44.282228 68.405275 L 0 68.405275 L 35.273438 41.774415 L 21.958008 0.3779297 L 56.513673 25.939454 L 91.069338 -0.0029296876 L 77.768557 42.125978 L 80.288088 43.927735 L 113.39356 68.405275 L 69.477541 68.405275 L 56.879884 108.01465 z M 55.971681 66.969728 L 56.616212 66.969728 L 59.135744 66.793947 L 61.655275 66.251955 L 64.086916 65.446291 L 66.328127 64.186525 L 68.393556 62.648439 L 70.297853 60.846681 L 71.821291 58.869142 L 73.168947 56.627931 L 74.07715 54.19629 L 74.692385 51.76465 L 74.970705 49.157228 L 74.970705 48.527345 L 74.780275 45.993165 L 74.252932 43.473634 L 73.432619 41.056642 L 72.172853 38.815431 L 70.649416 36.647462 L 68.847658 34.845704 L 66.870119 33.219727 L 64.614259 31.959962 L 62.270509 31.051759 L 59.765626 30.436524 L 57.143556 30.158204 L 56.616212 30.158204 L 53.994142 30.333985 L 51.474611 30.875977 L 49.145509 31.681641 L 46.801759 32.956056 L 44.721681 34.479493 L 42.832032 36.19336 L 41.308595 38.25879 L 40.048829 40.41211 L 39.052735 42.8584 L 38.422853 45.275392 L 38.159181 47.897462 L 38.159181 48.527345 L 38.334962 51.134767 L 38.876954 53.654298 L 39.682618 55.998048 L 40.942384 58.32715 L 42.48047 60.407228 L 44.282228 62.282228 L 46.259767 63.820314 L 48.515626 65.08008 L 50.932618 66.076174 L 53.364259 66.706056 L 55.971681 66.969728 z " /></g></g></svg>
