<?xml version="1.0" encoding="UTF-8" standalone="no"?>
<!-- Created with Inkscape (http://www.inkscape.org/) -->

<svg
   version="1.1"
   id="svg2"
   xml:space="preserve"
   width="15.88"
   height="15.946667"
   viewBox="0 0 15.88 15.946667"
   sodipodi:docname="golfbana.svg"
   inkscape:version="1.2.2 (b0a8486541, 2022-12-01)"
   xmlns:inkscape="http://www.inkscape.org/namespaces/inkscape"
   xmlns:sodipodi="http://sodipodi.sourceforge.net/DTD/sodipodi-0.dtd"
   xmlns="http://www.w3.org/2000/svg"
   xmlns:svg="http://www.w3.org/2000/svg"><sodipodi:namedview
     id="namedview8"
     pagecolor="#ffffff"
     bordercolor="#666666"
     borderopacity="1.0"
     inkscape:pageshadow="2"
     inkscape:pageopacity="0.0"
     inkscape:pagecheckerboard="0"
     showgrid="false"
     inkscape:zoom="54.744983"
     inkscape:cx="7.4892708"
     inkscape:cy="7.9733334"
     inkscape:window-width="2560"
     inkscape:window-height="1364"
     inkscape:window-x="1920"
     inkscape:window-y="0"
     inkscape:window-maximized="1"
     inkscape:current-layer="g10"
     inkscape:showpageshadow="2"
     inkscape:deskcolor="#d1d1d1" /><defs
     id="defs6" /><g
     id="g8"
     transform="matrix(1.3333333,0,0,-1.3333333,0,15.946667)"><g
       id="g10"
       transform="scale(0.1)"><path
         id="path12"
         style="fill:#2f2f2f;fill-opacity:1.0;fill-rule:nonzero;stroke:none"
         d="M 71.718752 119.61465 L 56.440431 39.707425 L 52.646486 39.707425 L 51.225587 39.604886 L 46.713868 39.429105 L 42.29004 39.062894 L 37.983399 38.608793 L 33.85254 38.0668 L 29.794923 37.363675 L 25.825196 36.543363 L 22.148438 35.664457 L 18.706055 34.668363 L 15.483399 33.599027 L 12.495117 32.309964 L 9.8144534 31.079495 L 7.3681642 29.702542 L 5.3027345 28.266995 L 3.6035157 26.846097 L 2.1533204 25.395902 L 1.1572266 23.872464 L 0.45410157 22.261136 L 0.17578125 21.426175 L 0.087890627 20.72305 L 0 19.97598 L 0 19.360745 L 0.26367188 17.99844 L 0.90820315 16.372464 L 1.2451172 15.596097 L 1.8164063 14.849026 L 3.1494141 13.325589 L 4.8486329 11.90469 L 6.826172 10.454495 L 9.0966799 9.1068387 L 11.71875 7.7445339 L 14.575196 6.5873074 L 17.739258 5.4154323 L 21.152344 4.4193385 L 24.75586 3.4232448 L 28.637696 2.6029323 L 32.578126 1.8998072 L 36.708985 1.2699244 L 41.059571 0.81582283 L 43.286134 0.53750251 L 45.439454 0.44961189 L 49.951173 0.20058844 L 54.448244 0.11269782 L 56.528322 -0.0044896876 L 58.315431 -0.0044896876 L 60.117189 -0.0044896876 L 62.197267 0.11269782 L 66.591799 0.3763697 L 71.015627 0.65469002 L 73.242189 0.81582283 L 75.351564 1.1087916 L 79.570314 1.724026 L 81.635744 1.9876979 L 83.613283 2.4417994 L 87.480471 3.262112 L 89.370119 3.599026 L 91.157229 4.1410182 L 94.687502 5.1224636 L 96.386721 5.6791042 L 97.910159 6.3236355 L 99.433596 6.8656277 L 100.7959 7.4808621 L 102.2461 8.0228543 L 103.49121 8.7259793 L 104.76563 9.385159 L 105.9375 10.088284 L 107.00684 10.718167 L 108.00293 11.450589 L 108.91114 12.153714 L 109.70215 12.871487 L 110.52246 13.603909 L 111.15235 14.394925 L 111.78223 15.141995 L 112.22168 15.933011 L 112.96875 17.573636 L 113.21778 18.276761 L 113.30567 19.097073 L 113.42285 19.814847 L 113.30567 20.44473 L 113.21778 21.059964 L 113.042 21.792386 L 112.74903 22.583402 L 112.42676 23.403714 L 112.0459 24.121487 L 111.50391 24.9418 L 110.90332 25.644925 L 110.15625 26.465238 L 108.53028 27.915433 L 106.53809 29.365628 L 105.4834 29.995511 L 104.23828 30.698636 L 102.94922 31.31387 L 101.61621 31.97305 L 98.730471 33.218167 L 97.207034 33.76016 L 95.581057 34.302152 L 92.153323 35.386136 L 88.549807 36.279691 L 84.711916 37.187894 L 80.727541 37.905668 L 76.508791 38.433011 L 72.260744 38.975003 L 67.851564 39.341214 L 66.503908 39.429105 L 65.419924 39.516996 L 64.526369 39.604886 L 63.354494 39.604886 L 73.081057 91.899809 L 119.07715 102.06583 L 71.718752 119.61465 z M 52.470704 32.851956 L 55.166017 32.851956 L 53.378908 23.330472 L 53.291017 22.422269 L 53.554689 21.338284 L 54.169923 20.44473 L 54.990236 19.726956 L 56.07422 19.360745 L 56.982423 19.272855 L 58.051759 19.536526 L 58.959962 20.181058 L 59.677736 20.972073 L 60.043947 22.056058 L 62.109377 32.851956 L 63.01758 32.851956 L 67.23633 32.676175 L 71.293947 32.309964 L 75.351564 31.97305 L 79.204104 31.518949 L 82.89551 30.976956 L 86.411135 30.332425 L 89.633791 29.702542 L 92.695315 28.911527 L 95.507815 28.091214 L 98.027346 27.183011 L 100.25391 26.186917 L 102.17285 25.190823 L 103.78418 24.224027 L 105.01465 23.125394 L 105.9375 22.056058 L 106.46485 20.972073 L 106.53809 19.902737 L 106.53809 19.272855 L 106.21582 18.203519 L 105.4834 17.119534 L 104.39942 16.050198 L 103.05176 15.054104 L 101.25 13.97012 L 99.184573 13.076565 L 96.840823 12.065823 L 94.14551 11.245511 L 91.245119 10.454495 L 88.022463 9.7220731 L 84.711916 9.018948 L 81.02051 8.4623074 L 77.226564 7.9349636 L 73.359377 7.5687527 L 69.316408 7.2025417 L 65.1709 7.0267605 L 60.922853 6.8656277 L 56.689455 6.8656277 L 54.624025 6.8656277 L 50.405275 6.9388699 L 46.186525 7.1146511 L 42.128907 7.4076199 L 38.07129 7.7445339 L 34.218751 8.1986355 L 30.498048 8.7259793 L 26.997071 9.385159 L 23.745118 10.088284 L 20.683594 10.806057 L 17.827149 11.62637 L 15.307618 12.534573 L 13.154297 13.530667 L 11.25 14.512112 L 9.6386721 15.478909 L 8.364258 16.577542 L 7.4853517 17.661526 L 6.9140627 18.745511 L 6.826172 19.902737 L 6.826172 20.44473 L 7.2070314 21.514066 L 7.9101564 22.583402 L 8.9941408 23.667386 L 10.356446 24.780667 L 12.158203 25.747464 L 14.238282 26.728909 L 16.552735 27.637113 L 19.248047 28.530667 L 22.13379 29.248441 L 25.297852 30.068753 L 28.710938 30.698636 L 32.314454 31.240628 L 36.093751 31.78262 L 40.048829 32.134183 L 44.106446 32.515042 L 48.251954 32.778714 L 52.470704 32.851956 z " /></g></g></svg>
