<?xml version="1.0" encoding="UTF-8" standalone="no"?>
<!-- Created with Inkscape (http://www.inkscape.org/) -->

<svg
   version="1.1"
   id="svg2"
   xml:space="preserve"
   width="16.48"
   height="14.746667"
   viewBox="0 0 16.48 14.746667"
   sodipodi:docname="gruva.svg"
   inkscape:version="1.1.1 (3bf5ae0d25, 2021-09-20)"
   xmlns:inkscape="http://www.inkscape.org/namespaces/inkscape"
   xmlns:sodipodi="http://sodipodi.sourceforge.net/DTD/sodipodi-0.dtd"
   xmlns="http://www.w3.org/2000/svg"
   xmlns:svg="http://www.w3.org/2000/svg"><sodipodi:namedview
     id="namedview7"
     pagecolor="#ffffff"
     bordercolor="#666666"
     borderopacity="1.0"
     inkscape:pageshadow="2"
     inkscape:pageopacity="0.0"
     inkscape:pagecheckerboard="0"
     showgrid="false"
     inkscape:zoom="59.199818"
     inkscape:cx="8.2348226"
     inkscape:cy="7.3648875"
     inkscape:window-width="2560"
     inkscape:window-height="1365"
     inkscape:window-x="0"
     inkscape:window-y="0"
     inkscape:window-maximized="1"
     inkscape:current-layer="g8" /><defs
     id="defs6" /><g
     id="g8"
     transform="matrix(1.3333333,0,0,-1.3333333,0,14.746667)"><g
       id="g10"
       transform="scale(0.1)"
       style="fill:#2f2f2f;fill-opacity:1.0"><path
         d="m 123.594,62.082 v -1.5547 l -0.918,-4.6132 -1.641,-6.5196 -4.387,1.1328 1.77,7.2305 L 97.793,78.3789 67.4727,48.1133 110.48,5.10547 105.383,0 62.3594,42.9375 19.418,0 14.2422,5.10547 57.1875,48.1133 33.8789,71.4414 19.1367,56.7695 0,75.8945 34.4375,110.625 53.7891,91.2734 39.0469,76.5313 62.3594,53.293 92.6289,83.5547 71.3555,104.883 H 69.875 l -5.457,-0.856 -0.6407,4.536 5.6641,0.789 5.8242,0.707 1.9141,0.07 h 2.0586 l 2.1875,-0.285 2.3437,-0.571 2.4024,-0.71 2.4804,-0.989 2.5469,-1.136 2.5625,-1.34 2.5469,-1.629 2.5469,-1.699 2.5505,-1.8481 2.489,-2.0547 3.832,-3.6133 2.253,-2.3398 2.129,-2.4063 1.993,-2.5547 1.843,-2.4765 1.621,-2.5508 1.497,-2.5547 1.335,-2.5547 1.067,-2.543 0.848,-2.4179 0.707,-2.4063 0.425,-2.2617 0.149,-2.207 V 62.082"
         style="fill:#2f2f2f;fill-opacity:1.0;fill-rule:nonzero;stroke:none"
         id="path12" /></g></g></svg>
