<?xml version="1.0" encoding="UTF-8" standalone="no"?>
<!-- Created with Inkscape (http://www.inkscape.org/) -->

<svg
   version="1.1"
   id="svg2"
   xml:space="preserve"
   width="26.440001"
   height="15.16"
   viewBox="0 0 26.440001 15.16"
   sodipodi:docname="husvagnscamping.svg"
   inkscape:version="1.2.2 (b0a8486541, 2022-12-01)"
   xmlns:inkscape="http://www.inkscape.org/namespaces/inkscape"
   xmlns:sodipodi="http://sodipodi.sourceforge.net/DTD/sodipodi-0.dtd"
   xmlns="http://www.w3.org/2000/svg"
   xmlns:svg="http://www.w3.org/2000/svg"><sodipodi:namedview
     id="namedview10"
     pagecolor="#ffffff"
     bordercolor="#666666"
     borderopacity="1.0"
     inkscape:pageshadow="2"
     inkscape:pageopacity="0.0"
     inkscape:pagecheckerboard="0"
     showgrid="false"
     inkscape:zoom="44.742813"
     inkscape:cx="12.672426"
     inkscape:cy="7.5878108"
     inkscape:window-width="2560"
     inkscape:window-height="1364"
     inkscape:window-x="1920"
     inkscape:window-y="0"
     inkscape:window-maximized="1"
     inkscape:current-layer="g10"
     inkscape:showpageshadow="2"
     inkscape:deskcolor="#d1d1d1" /><defs
     id="defs6" /><g
     id="g8"
     transform="matrix(1.3333333,0,0,-1.3333333,0,15.16)"><g
       id="g10"
       transform="scale(0.1)"><path
         id="path12"
         style="fill:#2f2f2f;fill-opacity:1.0;fill-rule:nonzero;stroke:none"
         d="M 98.994143 113.67071 L 88.857424 113.02617 L 82.060549 112.96758 L 81.342775 113.18731 L 35.288087 108.35332 L 18.925782 104.88164 L 14.882813 102.97735 L 12.392578 101.0584 L 10.268555 95.887502 L 9.4921877 71.146291 L 9.9902346 47.694142 L 9.4921877 36.707813 L 7.2949221 33.660938 L 3.178711 31.405079 L 1.4208985 29.691212 L 1.4794922 26.849415 L 3.9697267 14.735157 L 4.1015626 11.98125 L 0.92285159 8.0115236 L 0.8496094 7.9529299 L 0.49804689 7.5867189 L 0 7.1619142 L 0 3.7634767 L 0.49804689 3.4705079 L 0.8496094 3.2654298 L 1.1279297 2.8259766 L 2.9736329 1.3464844 L 3.1201173 1.0535157 L 3.6914063 -0.001171875 L 194.51661 0.1453125 L 198.28125 0.1453125 L 198.28125 9.6375002 L 192.05567 9.8572268 L 191.98243 9.8572268 L 161.22071 10.135547 L 124.73145 10.135547 L 119.04785 10.355274 L 117.77344 11.556446 L 117.77344 13.314258 L 120.33692 16.243946 L 124.79004 25.443165 L 127.26563 26.439258 L 142.30957 27.010548 L 155.2002 27.36211 L 181.56739 27.655079 L 185.52247 29.691212 L 186.72364 30.189259 L 189.27247 34.158985 L 190.20997 37.982228 L 190.91309 48.690236 L 190.97168 52.440236 L 190.26856 91.053518 L 189.63868 95.741018 L 187.71973 100.56035 L 182.62207 104.39824 L 178.72559 105.73125 L 154.98047 110.05254 L 113.39356 112.96758 L 104.80957 113.39239 L 100.48828 113.45098 L 98.994143 113.67071 z M 152.28516 98.787893 L 152.65137 98.509573 L 155.55176 98.011526 L 159.65332 96.165823 L 161.792 93.543752 L 163.27149 89.99883 L 163.69629 83.055471 L 162.55372 78.587697 L 160.23926 75.614064 L 155.55176 74.266408 L 111.25489 73.768361 L 109.62891 73.914846 L 105.9375 74.837697 L 103.11035 77.240041 L 102.04102 79.02715 L 102.04102 79.437307 L 102.11426 87.230276 L 102.96387 93.616995 L 104.88282 95.462698 L 109.62891 97.308401 L 122.10938 98.289846 L 152.28516 98.787893 z M 52.148439 97.161916 L 54.565431 96.810354 L 56.894533 96.019338 L 58.183595 94.59844 L 59.516603 92.34258 L 60.380861 89.44219 L 60.937502 84.110158 L 60.805666 81.56133 L 60.01465 78.880666 L 58.88672 76.888478 L 57.187501 75.614064 L 54.272462 74.412892 L 53.994142 74.33965 L 44.926759 73.914846 L 41.030274 74.691213 L 39.75586 75.687307 L 38.056642 77.664846 L 37.265626 80.286916 L 37.13379 86.453908 L 37.265626 89.149221 L 37.836915 91.346487 L 37.836915 91.639455 L 40.180665 94.744924 L 41.879884 95.946096 L 42.729493 96.312307 L 52.148439 97.161916 z M 79.438479 26.571094 L 79.731447 26.571094 L 82.412111 24.241993 L 83.334963 20.199024 L 86.381838 15.013477 L 87.597658 12.406055 L 85.458987 10.355274 L 52.089845 9.8572268 L 35.009767 9.8572268 L 21.181641 10.135547 L 19.350586 11.688282 L 14.106446 23.524219 L 15.732422 25.238087 L 17.504883 25.648243 L 31.31836 26.219532 L 79.438479 26.571094 z " /></g></g></svg>
