<?xml version="1.0" encoding="UTF-8" standalone="no"?>
<!-- Created with Inkscape (http://www.inkscape.org/) -->

<svg
   version="1.1"
   id="svg2"
   xml:space="preserve"
   width="22.693333"
   height="12.106667"
   viewBox="0 0 22.693333 12.106667"
   sodipodi:docname="idrott_anlaggning.svg"
   inkscape:version="1.2.2 (b0a8486541, 2022-12-01)"
   xmlns:inkscape="http://www.inkscape.org/namespaces/inkscape"
   xmlns:sodipodi="http://sodipodi.sourceforge.net/DTD/sodipodi-0.dtd"
   xmlns="http://www.w3.org/2000/svg"
   xmlns:svg="http://www.w3.org/2000/svg"><sodipodi:namedview
     id="namedview10"
     pagecolor="#ffffff"
     bordercolor="#666666"
     borderopacity="1.0"
     inkscape:pageshadow="2"
     inkscape:pageopacity="0.0"
     inkscape:pagecheckerboard="0"
     showgrid="false"
     inkscape:zoom="52.129849"
     inkscape:cx="8.4020961"
     inkscape:cy="6.0713776"
     inkscape:window-width="2560"
     inkscape:window-height="1364"
     inkscape:window-x="1920"
     inkscape:window-y="0"
     inkscape:window-maximized="1"
     inkscape:current-layer="g10"
     inkscape:showpageshadow="2"
     inkscape:deskcolor="#d1d1d1" /><defs
     id="defs6" /><g
     id="g8"
     transform="matrix(1.3333333,0,0,-1.3333333,0,12.106667)"><g
       id="g10"
       transform="scale(0.1)"><path
         id="path12"
         style="fill:#2f2f2f;fill-opacity:1.0;fill-rule:nonzero;stroke:none"
         d="M 47.416993 90.814653 L 43.286134 90.65352 L 39.140626 89.994341 L 35.083009 89.115434 L 31.142579 87.928911 L 27.348633 86.302934 L 23.671876 84.530473 L 20.141602 82.377153 L 16.918946 79.945512 L 13.857422 77.235551 L 11.074219 74.349809 L 8.5546877 71.200395 L 6.2841798 67.860551 L 4.4238282 64.374223 L 2.7832032 60.770707 L 1.6113282 56.976762 L 0.70312502 53.197465 L 0.16113282 49.315629 L 0 45.389847 L 0 44.642777 L 0.26367188 40.702347 L 0.82031252 36.820511 L 1.8164063 33.041214 L 3.0615235 29.349808 L 4.7607423 25.746292 L 6.7529299 22.245316 L 8.9941408 18.978714 L 11.513672 15.843948 L 14.399414 13.060745 L 17.460938 10.365432 L 20.771485 8.0216824 L 24.28711 5.9562526 L 28.095704 4.1544948 L 31.860352 2.7189479 L 35.903321 1.517776 L 39.975587 0.6388697 L 44.106446 0.19941657 L 48.251954 -0.0056615626 L 121.94825 -0.0056615626 L 122.76856 -0.0056615626 L 126.91407 0.19941657 L 131.05957 0.81465096 L 135.10254 1.7375025 L 139.04297 2.8947291 L 142.83692 4.5060573 L 146.52832 6.3224636 L 150.04395 8.475784 L 153.26661 10.922073 L 156.32813 13.514847 L 159.09668 16.459183 L 161.61621 19.535355 L 163.90137 22.875198 L 165.76172 26.390823 L 167.3877 29.994339 L 168.57422 33.773636 L 169.45313 37.523636 L 170.02442 41.493363 L 170.2002 45.389847 L 170.2002 46.092972 L 169.90723 50.062699 L 169.37989 53.915238 L 168.38379 57.709184 L 167.12403 61.473832 L 165.42481 65.077348 L 163.46192 68.505082 L 161.17676 71.830278 L 158.65723 74.891801 L 155.78614 77.777544 L 152.73926 80.384965 L 149.41407 82.801958 L 145.89844 84.867387 L 142.08985 86.683794 L 138.3252 88.133989 L 134.28223 89.291216 L 130.20996 90.199419 L 126.09375 90.65352 L 121.94825 90.814653 L 47.416993 90.814653 z M 47.622072 85.145708 L 121.77246 85.145708 L 125.55176 84.984575 L 129.68262 84.530473 L 132.83203 83.783403 L 136.62598 82.714067 L 139.79004 81.542192 L 143.18848 79.945512 L 146.35254 78.041215 L 149.22364 75.975786 L 152.00684 73.529497 L 154.35059 71.200395 L 156.69434 68.314653 L 158.4961 65.707231 L 160.3711 62.396684 L 161.90918 59.24727 L 162.90528 56.273637 L 163.90137 52.58223 L 164.23829 49.784379 L 164.51661 45.829301 L 164.51661 45.55098 L 164.35547 41.786332 L 163.98926 38.79805 L 163.08106 35.194535 L 162.08496 32.074417 L 160.64942 28.910355 L 158.9502 25.746292 L 157.14844 23.05098 L 154.80469 20.179886 L 152.3584 17.660355 L 149.66309 15.316604 L 146.77735 13.148636 L 143.83301 11.361526 L 140.56641 9.7209012 L 136.97754 8.1828152 L 133.5791 7.1134792 L 129.96094 6.4103542 L 126.54785 5.8830105 L 122.56348 5.6632839 L 48.413087 5.6632839 L 44.648439 5.8830105 L 40.502931 6.3224636 L 37.353517 7.0255886 L 33.559571 8.109573 L 30.424805 9.281448 L 26.982423 10.922073 L 23.745118 12.870315 L 20.976563 14.759964 L 18.164063 17.279495 L 15.644532 19.725784 L 13.579102 22.347855 L 11.616211 25.116409 L 9.8144534 28.456253 L 8.2763674 31.605667 L 7.2949221 34.476761 L 6.2841798 38.182816 L 5.9472658 40.966019 L 5.6689455 44.935746 L 5.6689455 45.184769 L 5.8300783 49.066605 L 6.2109377 51.923051 L 7.1044924 55.526566 L 8.1152346 58.705277 L 9.5507815 61.854692 L 11.25 65.004106 L 13.242188 67.96309 L 15.219727 70.467973 L 17.739258 73.075395 L 20.522461 75.507036 L 23.408204 77.675004 L 26.35254 79.476762 L 29.619141 81.102739 L 33.222657 82.626176 L 36.621095 83.710161 L 40.209962 84.442583 L 43.652345 84.984575 L 47.622072 85.145708 z M 48.046876 73.807817 L 44.560548 73.646684 L 42.114259 73.265825 L 39.594728 72.738481 L 37.163087 71.991411 L 34.643556 70.922075 L 31.772462 69.501176 L 29.501954 68.138871 L 27.890626 66.864457 L 25.473633 64.711137 L 23.833008 63.099809 L 22.309571 61.195512 L 21.152344 59.33516 L 19.526368 56.43477 L 18.706055 54.64766 L 18.00293 52.465043 L 17.373047 49.974808 L 17.182618 48.158402 L 17.006836 45.27266 L 17.285157 41.786332 L 17.460938 40.424027 L 18.28125 37.435746 L 18.706055 36.117386 L 19.892579 33.773636 L 21.313477 31.078324 L 22.675782 29.159378 L 24.111329 27.26973 L 25.810548 25.643753 L 27.978516 23.666214 L 29.707032 22.494339 L 32.314454 20.970901 L 35.009767 19.652542 L 37.075196 18.905472 L 40.209962 18.011917 L 42.377931 17.455276 L 45.175782 17.206253 L 48.867189 17.030472 L 122.10938 17.030472 L 125.625 17.206253 L 128.07129 17.572464 L 130.59082 18.099808 L 133.02246 18.83223 L 135.542 19.901565 L 138.41309 21.351761 L 140.6836 22.67012 L 142.30957 23.944534 L 144.60938 25.936722 L 146.23536 27.635941 L 148.05176 29.906449 L 149.04786 31.429886 L 150.65918 34.30098 L 151.4795 36.117386 L 152.18262 38.270707 L 152.8125 40.790238 L 153.00293 42.65059 L 153.17871 45.46309 L 152.88575 48.978715 L 152.73926 50.311723 L 151.91895 53.373246 L 151.4795 54.823441 L 150.21973 57.342973 L 148.84278 59.672074 L 147.7002 61.40059 L 145.78125 63.715043 L 144.44825 65.077348 L 142.08985 67.069535 L 140.14161 68.505082 L 137.8711 69.83809 L 135.17578 71.200395 L 133.11035 71.90352 L 129.96094 72.811723 L 127.80762 73.353715 L 124.99512 73.632036 L 121.30371 73.807817 L 48.046876 73.807817 z M 48.251954 68.138871 L 121.15723 68.138871 L 124.55567 67.96309 L 126.91407 67.68477 L 128.51075 67.318559 L 131.58692 66.439653 L 132.90528 65.985551 L 135.10254 64.916215 L 137.05078 63.715043 L 138.61817 62.557817 L 140.6836 60.858598 L 141.48926 60.038285 L 143.18848 57.884965 L 144.00879 56.80098 L 145.25391 54.545121 L 146.23536 52.670121 L 146.44043 51.923051 L 147.23145 48.978715 L 147.23145 48.612504 L 147.49512 45.389847 L 147.34864 43.104691 L 147.14356 41.669144 L 146.67481 39.706253 L 146.23536 38.270707 L 145.62012 36.908402 L 144.08203 34.213089 L 143.37891 33.041214 L 142.01661 31.429886 L 140.75684 30.08223 L 138.50098 28.177933 L 137.70996 27.474808 L 135.64453 26.302933 L 133.28614 25.116409 L 130.95703 24.120316 L 129.4336 23.666214 L 126.98731 23.124222 L 125.28809 22.875198 L 121.94825 22.67012 L 49.04297 22.67012 L 45.644532 22.875198 L 43.286134 23.124222 L 41.674806 23.490433 L 38.613282 24.398636 L 37.250977 24.867386 L 35.083009 25.936722 L 32.563477 27.386917 L 31.582032 28.090042 L 29.619141 29.906449 L 28.344727 31.078324 L 27.275391 32.513871 L 26.191407 34.037308 L 24.916993 36.36641 L 23.950196 38.343949 L 23.745118 38.885941 L 22.954102 41.874222 L 22.954102 42.123246 L 22.675782 45.389847 L 22.851563 47.704301 L 23.056641 49.066605 L 23.496094 51.044144 L 23.950196 52.465043 L 24.580079 53.827348 L 26.103516 56.52266 L 26.894532 57.797074 L 28.183594 59.408402 L 29.25293 60.492387 L 31.684571 62.631059 L 32.563477 63.260942 L 34.541016 64.550004 L 36.914063 65.707231 L 39.228517 66.703324 L 40.751954 67.142778 L 43.198243 67.68477 L 44.897462 67.96309 L 48.251954 68.138871 z " /></g></g></svg>
