<?xml version="1.0" encoding="UTF-8" standalone="no"?>
<!-- Created with Inkscape (http://www.inkscape.org/) -->

<svg
   version="1.1"
   id="svg2"
   xml:space="preserve"
   width="8.3199997"
   height="8.3199997"
   viewBox="0 0 8.3199997 8.3199997"
   sodipodi:docname="riksrose.svg"
   inkscape:version="1.2.2 (b0a8486541, 2022-12-01)"
   xmlns:inkscape="http://www.inkscape.org/namespaces/inkscape"
   xmlns:sodipodi="http://sodipodi.sourceforge.net/DTD/sodipodi-0.dtd"
   xmlns="http://www.w3.org/2000/svg"
   xmlns:svg="http://www.w3.org/2000/svg"><sodipodi:namedview
     id="namedview9"
     pagecolor="#ffffff"
     bordercolor="#666666"
     borderopacity="1.0"
     inkscape:pageshadow="2"
     inkscape:pageopacity="0.0"
     inkscape:pagecheckerboard="0"
     showgrid="false"
     inkscape:zoom="104.92789"
     inkscape:cx="3.9360365"
     inkscape:cy="4.1599998"
     inkscape:window-width="2560"
     inkscape:window-height="1364"
     inkscape:window-x="1920"
     inkscape:window-y="0"
     inkscape:window-maximized="1"
     inkscape:current-layer="g10"
     inkscape:showpageshadow="2"
     inkscape:deskcolor="#d1d1d1" /><defs
     id="defs6" /><g
     id="g8"
     transform="matrix(1.3333333,0,0,-1.3333333,0,8.32)"><g
       id="g10"
       transform="scale(0.1)"><path
         id="path12"
         style="fill:#2f2f2f;fill-opacity:1.0;fill-rule:nonzero;stroke:none"
         d="M 31.142579 62.356056 L 29.077149 62.268166 L 25.737305 61.916603 L 22.500001 61.184181 L 19.350586 60.012306 L 16.289063 58.66465 L 13.50586 56.87754 L 10.795899 54.797462 L 8.364258 52.556251 L 6.2109377 49.934181 L 4.4091798 47.150978 L 2.7978516 44.177345 L 1.6259766 41.13047 L 0.71777346 37.878517 L 0.17578125 34.553321 L 0 31.213477 L 0 31.125587 L 0.087890627 29.060157 L 0.45410157 25.734962 L 1.171875 22.483008 L 2.3437501 19.333594 L 3.6914063 16.286719 L 5.4931642 13.488868 L 7.5585939 10.793555 L 9.8144534 8.3619143 L 12.421875 6.2085939 L 15.205079 4.3921876 L 18.178711 2.766211 L 21.240235 1.594336 L 24.47754 0.70078127 L 27.817384 0.1734375 L 31.142579 -0.0023437501 L 31.23047 -0.0023437501 L 33.295899 0.070898439 L 36.635743 0.45175782 L 39.873048 1.1548828 L 43.022462 2.3267579 L 46.069337 3.6744142 L 48.867189 5.4908204 L 51.562501 7.5562502 L 54.00879 9.7974612 L 56.147462 12.404883 L 57.963869 15.188086 L 59.589845 18.161719 L 60.747072 21.223243 L 61.655275 24.475196 L 62.182619 27.800391 L 62.3584 31.125587 L 62.3584 31.213477 L 62.285158 33.293556 L 61.918947 36.618751 L 61.215822 39.856056 L 60.043947 43.00547 L 58.666994 46.066993 L 56.879884 48.864845 L 54.799806 51.560158 L 52.558595 53.991798 L 49.936525 56.145119 L 47.16797 57.946876 L 44.194337 59.572853 L 41.132814 60.744728 L 37.88086 61.638283 L 34.555665 62.180275 L 31.23047 62.356056 L 31.142579 62.356056 z M 31.142579 51.018165 L 31.23047 51.018165 L 33.925782 50.842384 L 36.533204 50.300392 L 39.052735 49.392189 L 41.411134 48.234962 L 43.549806 46.696876 L 45.541993 44.895118 L 47.241212 42.829689 L 48.691407 40.588478 L 49.760743 38.142188 L 50.581056 35.622657 L 50.932618 32.927345 L 51.035158 31.213477 L 51.035158 31.125587 L 50.859376 28.430274 L 50.317384 25.822852 L 49.409181 23.303321 L 48.237306 20.959571 L 46.713868 18.80625 L 44.897462 16.814063 L 42.832032 15.114844 L 40.590821 13.664649 L 38.159181 12.595313 L 35.639649 11.775 L 32.944337 11.423438 L 31.23047 11.320899 L 31.142579 11.320899 L 28.447266 11.49668 L 25.825196 12.053321 L 23.305665 12.946875 L 20.976563 14.11875 L 18.808594 15.642188 L 16.831055 17.443946 L 15.117188 19.509375 L 13.681641 21.779883 L 12.597657 24.196876 L 11.791992 26.716407 L 11.425782 29.411719 L 11.337891 31.125587 L 11.337891 31.213477 L 11.513672 33.923438 L 12.055664 36.53086 L 12.963868 39.050392 L 14.135743 41.394142 L 15.65918 43.547462 L 17.460938 45.525001 L 19.526368 47.238868 L 21.782227 48.674415 L 24.213868 49.7584 L 26.733399 50.564064 L 29.428712 50.930275 L 31.142579 51.018165 z M 31.142579 39.680274 L 30.058595 39.592384 L 28.344727 39.240821 L 26.733399 38.508399 L 25.385743 37.424415 L 24.213868 36.164649 L 23.408204 34.641212 L 22.866212 32.927345 L 22.675782 31.213477 L 22.675782 31.125587 L 22.763672 30.056251 L 23.129883 28.342384 L 23.847657 26.716407 L 24.931641 25.368751 L 26.191407 24.196876 L 27.714844 23.391212 L 29.428712 22.849219 L 31.142579 22.673438 L 31.23047 22.673438 L 32.314454 22.761329 L 34.013673 23.12754 L 35.639649 23.845313 L 36.987306 24.914649 L 38.159181 26.174415 L 38.964845 27.712501 L 39.506837 29.411719 L 39.697267 31.125587 L 39.697267 31.213477 L 39.609376 32.297462 L 39.243165 34.011329 L 38.525392 35.622657 L 37.441407 36.984962 L 36.181642 38.142188 L 34.658204 38.962501 L 32.944337 39.504493 L 31.23047 39.680274 L 31.142579 39.680274 z " /></g></g></svg>
