<?xml version="1.0" encoding="UTF-8" standalone="no"?>
<!-- Created with Inkscape (http://www.inkscape.org/) -->

<svg
   version="1.1"
   id="svg2"
   xml:space="preserve"
   width="16.653334"
   height="16.653334"
   viewBox="0 0 16.653334 16.653334"
   sodipodi:docname="sevardhet.svg"
   inkscape:version="1.2.2 (b0a8486541, 2022-12-01)"
   xmlns:inkscape="http://www.inkscape.org/namespaces/inkscape"
   xmlns:sodipodi="http://sodipodi.sourceforge.net/DTD/sodipodi-0.dtd"
   xmlns="http://www.w3.org/2000/svg"
   xmlns:svg="http://www.w3.org/2000/svg"><sodipodi:namedview
     id="namedview12"
     pagecolor="#ffffff"
     bordercolor="#666666"
     borderopacity="1.0"
     inkscape:pageshadow="2"
     inkscape:pageopacity="0.0"
     inkscape:pagecheckerboard="0"
     showgrid="false"
     inkscape:zoom="52.421937"
     inkscape:cx="7.8783811"
     inkscape:cy="8.3266668"
     inkscape:window-width="2560"
     inkscape:window-height="1364"
     inkscape:window-x="1920"
     inkscape:window-y="0"
     inkscape:window-maximized="1"
     inkscape:current-layer="g10"
     inkscape:showpageshadow="2"
     inkscape:deskcolor="#d1d1d1" /><defs
     id="defs6" /><g
     id="g8"
     transform="matrix(1.3333333,0,0,-1.3333333,0,16.653333)"><g
       id="g10"
       transform="scale(0.1)"><path
         id="path12"
         style="fill:#2f2f2f;fill-opacity:1.0;fill-rule:nonzero;stroke:none"
         d="M 24.726563 124.85606 L 22.807618 124.65098 L 21.108399 124.43125 L 19.482422 124.15293 L 18.061524 123.72813 L 16.728516 123.23008 L 15.38086 122.6002 L 13.959961 121.80918 L 12.480469 120.97422 L 11.059571 119.90488 L 9.7119143 118.8502 L 8.4375002 117.76621 L 7.2363283 116.65293 L 6.2255861 115.51035 L 5.3027345 114.44102 L 4.5263673 113.31309 L 3.544922 111.61387 L 2.7685548 109.97324 L 1.9775391 108.34727 L 1.4208985 106.72129 L 1.2011719 105.94492 L 0.98144534 105.16855 L 0.77636721 104.59727 L 0.64453127 104.02598 L 0.49804689 103.67441 L 0.35156251 103.39609 L 0.27832032 103.24961 L 0.20507813 103.10313 L 0.14648438 102.8248 L 0.14648438 102.32676 L 0.073242189 101.82871 L 0 101.12559 L 0 100.20273 L 0 99.221289 L 0 97.727148 L 0.14648438 96.159766 L 0.35156251 94.533789 L 0.64453127 92.83457 L 1.0546875 91.047461 L 1.6259766 89.36289 L 2.2705079 87.663672 L 3.1201173 86.037695 L 4.1015626 84.39707 L 5.1123048 82.902929 L 6.020508 81.716406 L 6.8701174 80.64707 L 7.6464846 79.79746 L 8.496094 78.947851 L 9.2724612 78.230078 L 9.9169924 77.600195 L 10.69336 77.102148 L 11.469727 76.530859 L 12.480469 76.032812 L 13.59375 75.549413 L 14.809571 75.051367 L 16.157227 74.55332 L 17.578125 74.128515 L 19.204102 73.689062 L 20.903321 73.410742 L 22.60254 73.132421 L 24.521485 72.985937 L 26.499024 72.854101 L 28.139649 72.76621 L 29.692384 72.707617 L 31.04004 72.561132 L 32.16797 72.429296 L 33.237306 72.341406 L 34.160157 72.20957 L 34.863282 72.063085 L 35.507813 71.858007 L 36.064454 71.711523 L 36.489259 71.506445 L 36.85547 71.286718 L 37.060548 71.066991 L 37.13379 70.861913 L 37.13379 70.730077 L 37.13379 70.363866 L 37.13379 69.880468 L 37.13379 69.235937 L 37.13379 68.45957 L 37.13379 67.463476 L 37.13379 66.39414 L 37.13379 65.192968 L 37.13379 63.85996 L 37.13379 62.292577 L 37.13379 60.798437 L 37.13379 59.45078 L 37.13379 58.176366 L 37.13379 57.10703 L 37.13379 56.184179 L 37.13379 55.481054 L 37.13379 54.851171 L 37.13379 54.426366 L 37.13379 54.060155 L 37.13379 53.928319 L 37.060548 53.840429 L 36.767579 53.781835 L 36.430665 53.723241 L 35.932618 53.576757 L 35.214845 53.503514 L 34.438477 53.503514 L 33.369141 53.430272 L 32.241212 53.430272 L 30.966798 53.35703 L 28.564454 53.225194 L 26.220704 53.005468 L 23.876954 52.580663 L 21.606446 52.082616 L 19.350586 51.438085 L 17.504883 50.82285 L 15.805664 50.031835 L 14.165039 49.182225 L 12.539063 48.259374 L 11.059571 47.131444 L 9.6386721 45.988866 L 8.496094 44.934178 L 7.426758 44.011327 L 6.591797 43.088475 L 5.8154298 42.238866 L 5.2441408 41.462499 L 4.8193361 40.686131 L 4.4677735 39.968358 L 4.1015626 39.177342 L 3.7500001 38.195897 L 3.3984376 37.141209 L 2.9003907 35.925389 L 2.4023438 34.577733 L 1.9042969 33.098241 L 1.5673829 32.028905 L 1.2744141 31.032811 L 1.0546875 30.183201 L 0.8496094 29.465428 L 0.70312502 28.923436 L 0.55664064 28.483983 L 0.49804689 28.13242 L 0.49804689 27.985936 L 0.55664064 27.707615 L 0.64453127 27.356053 L 0.70312502 26.784764 L 0.77636721 26.213475 L 0.8496094 25.437108 L 0.98144534 24.514256 L 1.0546875 23.606053 L 1.1279297 22.815037 L 1.2011719 22.111912 L 1.2744141 21.540623 L 1.2744141 21.042576 L 1.3476563 20.764256 L 1.3476563 20.266209 L 1.4208985 19.768162 L 1.6259766 19.138279 L 1.7578125 18.420506 L 1.9775391 17.922459 L 2.1972657 17.292576 L 2.5488282 16.648045 L 3.0468751 15.871678 L 3.544922 15.022068 L 4.1015626 14.025974 L 4.7460939 12.971287 L 5.8154298 11.403904 L 6.9433595 9.9830056 L 8.2910158 8.5767555 L 9.7119143 7.2290992 L 11.191407 6.0132789 L 12.539063 5.0318336 L 14.106446 4.1822242 L 15.585938 3.3912085 L 17.226563 2.6880835 L 18.984375 2.0582007 L 20.771485 1.5601538 L 22.60254 1.1353491 L 24.448243 0.76913814 L 26.220704 0.6373022 L 27.919923 0.56406001 L 29.619141 0.56406001 L 31.186524 0.71054439 L 33.017579 1.0474585 L 34.863282 1.4136694 L 36.489259 1.9117163 L 38.129884 2.4683569 L 39.682618 3.1128882 L 40.810548 3.6841773 L 41.879884 4.2554664 L 42.729493 4.7388648 L 43.432618 5.2369117 L 44.07715 5.6763648 L 44.648439 6.0865211 L 45.000001 6.5259742 L 45.424806 7.0240211 L 45.981446 7.6392555 L 46.479493 8.357029 L 47.197267 9.1480446 L 47.900392 10.056248 L 48.603517 11.125584 L 49.819337 12.605076 L 50.668947 14.025974 L 51.445314 15.446873 L 52.089845 16.867771 L 52.573244 18.215428 L 52.866212 19.270115 L 53.07129 20.471287 L 53.291017 21.76035 L 53.437501 23.239842 L 53.569337 24.880467 L 53.642579 26.652928 L 53.715822 28.630467 L 53.715822 29.978123 L 53.789064 31.179295 L 53.847658 32.248631 L 53.935548 33.156834 L 53.994142 34.021092 L 54.067384 34.724217 L 54.140626 35.295506 L 54.272462 35.720311 L 54.345704 36.057225 L 54.492189 36.203709 L 54.770509 36.276952 L 55.04883 36.423436 L 55.561525 36.496678 L 56.191408 36.496678 L 56.982423 36.555272 L 57.817384 36.643162 L 58.813478 36.643162 L 60.102541 36.643162 L 61.362306 36.716405 L 62.856447 36.716405 L 64.262697 36.716405 L 65.625002 36.643162 L 66.826174 36.555272 L 67.807619 36.496678 L 68.745119 36.423436 L 69.448244 36.276952 L 70.092775 36.145116 L 70.576174 35.998631 L 70.854494 35.852147 L 71.074221 35.647069 L 71.220705 35.3541 L 71.293947 34.856053 L 71.440431 34.299412 L 71.499025 33.596287 L 71.572267 32.73203 L 71.572267 31.750584 L 71.572267 30.608006 L 71.572267 29.406834 L 71.572267 27.707615 L 71.64551 26.140233 L 71.64551 24.719334 L 71.791994 23.386326 L 71.850588 22.258396 L 71.997072 21.174412 L 72.20215 20.192967 L 72.495119 19.138279 L 72.919924 17.922459 L 73.417971 16.721287 L 73.974611 15.446873 L 74.692385 14.113865 L 75.688478 12.47324 L 76.684572 10.979099 L 77.666018 9.5582009 L 78.793947 8.2984352 L 80.009768 7.0240211 L 80.991213 6.0865211 L 81.855471 5.3101539 L 82.631838 4.5923804 L 83.334963 4.0357398 L 83.891604 3.6109351 L 84.389651 3.2593726 L 84.975588 2.8931616 L 85.737307 2.5562476 L 86.674807 2.1900366 L 87.656252 1.8384741 L 88.784182 1.4136694 L 89.780276 1.1353491 L 91.05469 0.85702877 L 92.329104 0.56406001 L 93.764651 0.34433345 L 95.170901 0.21249751 L 96.87012 0.066013127 L 98.774417 -0.0072290627 L 100.69336 -0.0072290627 L 102.53907 0.21249751 L 104.31153 0.50546626 L 105.9375 0.93027096 L 107.56348 1.4869116 L 108.98438 1.9849585 L 110.34668 2.6148413 L 111.60645 3.2593726 L 112.80762 3.8892554 L 114.09668 4.7388648 L 115.29785 5.6031226 L 116.29395 6.4380836 L 117.20215 7.3755836 L 117.91992 8.0787086 L 118.6377 9.0015602 L 119.34082 10.056248 L 120.11719 11.34531 L 120.9668 12.678318 L 121.74317 14.172459 L 122.44629 15.725193 L 123.09082 17.43906 L 123.53028 19.211521 L 123.86719 21.042576 L 124.08692 22.595311 L 124.2334 24.016209 L 124.36524 25.305272 L 124.43848 26.433201 L 124.43848 27.502537 L 124.36524 28.41074 L 124.2334 29.128514 L 124.14551 29.758397 L 124.14551 30.329686 L 124.08692 30.695897 L 124.08692 30.974217 L 124.08692 31.106053 L 124.08692 31.179295 L 124.01367 31.457615 L 123.86719 31.809178 L 123.72071 32.307225 L 123.53028 32.878514 L 123.31055 33.596287 L 123.01758 34.431248 L 122.66602 35.3541 L 121.96289 36.994725 L 121.24512 38.620702 L 120.26367 40.246678 L 119.26758 41.814061 L 117.99317 43.366795 L 116.85059 44.64121 L 115.7959 45.783788 L 114.79981 46.765233 L 113.74512 47.688085 L 112.67578 48.39121 L 111.54785 49.108983 L 110.27344 49.738866 L 108.85254 50.383397 L 107.3584 50.940038 L 105.65918 51.379491 L 103.95996 51.804296 L 101.7627 52.2291 L 99.418948 52.522069 L 97.236331 52.785741 L 94.89258 52.873632 L 93.618166 52.946874 L 92.54883 53.005468 L 91.625979 53.005468 L 90.776369 53.07871 L 90.219729 53.137304 L 89.721682 53.225194 L 89.355471 53.35703 L 89.223635 53.430272 L 89.077151 53.723241 L 88.930666 54.133397 L 88.79883 54.704686 L 88.652346 55.275975 L 88.579104 56.125585 L 88.52051 57.048436 L 88.432619 58.176366 L 88.374026 59.318944 L 88.300783 60.666601 L 88.300783 62.219335 L 88.300783 63.566991 L 88.227541 64.768163 L 88.227541 65.896093 L 88.154299 66.818944 L 88.154299 67.683202 L 88.154299 68.313085 L 88.227541 68.884374 L 88.227541 69.309179 L 88.300783 69.939062 L 88.432619 70.363866 L 88.579104 70.80332 L 88.79883 71.08164 L 89.135744 71.286718 L 89.428713 71.35996 L 89.853518 71.433202 L 90.498049 71.433202 L 91.274416 71.506445 L 92.197268 71.506445 L 93.178713 71.506445 L 94.394534 71.506445 L 95.727541 71.433202 L 97.368166 71.433202 L 98.789065 71.433202 L 100.13672 71.433202 L 101.33789 71.506445 L 102.46582 71.652929 L 103.46192 71.711523 L 104.23828 71.858007 L 105.4541 72.150976 L 106.72852 72.634374 L 108.14942 73.132421 L 109.57032 73.762304 L 111.1084 74.55332 L 112.80762 75.388281 L 114.30176 76.457617 L 115.72266 77.600195 L 117.07032 78.874609 L 118.27149 80.222265 L 119.19434 81.423437 L 120.04395 82.566015 L 120.74707 83.547461 L 121.46485 84.543554 L 121.96289 85.525 L 122.51953 86.389257 L 122.88575 87.312109 L 123.31055 88.366797 L 123.66211 89.509375 L 123.94043 90.857031 L 124.2334 92.409765 L 124.51172 94.035742 L 124.73145 96.013281 L 124.86328 97.858984 L 124.86328 99.704687 L 124.73145 101.40391 L 124.43848 103.04453 L 124.14551 104.59727 L 123.73535 106.01816 L 123.23731 107.36582 L 122.73926 108.71348 L 122.03614 109.91465 L 120.89356 111.81895 L 119.61914 113.73789 L 118.19825 115.51035 L 117.27539 116.50645 L 116.14746 117.56113 L 114.87305 118.48398 L 113.52539 119.48008 L 112.0459 120.32969 L 110.40528 121.1793 L 108.7793 121.89707 L 107.08008 122.52695 L 105.30762 123.01035 L 103.53516 123.37656 L 101.7627 123.65488 L 99.916995 123.87461 L 98.217776 123.94785 L 96.518557 123.87461 L 94.819338 123.72813 L 93.178713 123.44981 L 91.625979 123.15684 L 90.073244 122.73203 L 88.725588 122.24863 L 87.377932 121.67734 L 85.678713 120.82773 L 84.11133 119.90488 L 82.631838 118.90879 L 81.137697 117.8541 L 80.009768 116.85801 L 78.940432 115.80332 L 78.01758 114.73398 L 77.109377 113.51816 L 76.318361 112.31699 L 75.336916 110.76426 L 74.5459 109.27012 L 73.842775 107.77598 L 73.13965 106.36973 L 72.846682 105.59336 L 72.553713 104.67051 L 72.348635 103.60117 L 72.216799 102.4 L 71.997072 100.9791 L 71.938478 99.484961 L 71.850588 97.858984 L 71.850588 96.013281 L 71.850588 94.592383 L 71.791994 93.332617 L 71.791994 92.131445 L 71.64551 91.135351 L 71.64551 90.271094 L 71.572267 89.567968 L 71.440431 89.011328 L 71.352541 88.586523 L 71.220705 88.293554 L 71.074221 88.14707 L 69.521486 87.590429 L 69.30176 87.517187 L 68.950197 87.443945 L 68.45215 87.385351 L 67.89551 87.385351 L 67.104494 87.385351 L 66.181642 87.385351 L 65.273439 87.385351 L 63.984377 87.385351 L 62.709963 87.385351 L 61.303712 87.385351 L 60.01465 87.385351 L 58.813478 87.385351 L 57.817384 87.443945 L 56.982423 87.443945 L 56.26465 87.517187 L 55.693361 87.590429 L 55.195314 87.590429 L 54.711915 87.663672 L 54.272462 87.722265 L 53.994142 87.810156 L 53.789064 87.810156 L 53.715822 87.86875 L 53.715822 87.941992 L 53.715822 88.234961 L 53.715822 88.571875 L 53.715822 89.08457 L 53.715822 89.714453 L 53.715822 90.49082 L 53.715822 91.413672 L 53.789064 92.336523 L 53.789064 93.039648 L 53.789064 93.68418 L 53.789064 94.108984 L 53.789064 94.533789 L 53.715822 95.031836 L 53.642579 95.734961 L 53.569337 96.525976 L 53.349611 97.52207 L 53.217775 98.65 L 53.012697 99.924414 L 52.866212 101.05234 L 52.719728 102.04844 L 52.573244 102.89805 L 52.426759 103.60117 L 52.368165 104.2457 L 52.294923 104.7291 L 52.236329 105.02207 L 52.148439 105.31504 L 52.089845 105.59336 L 52.016603 105.94492 L 51.870118 106.42832 L 51.66504 107.01426 L 51.372072 107.71738 L 51.093751 108.55234 L 50.595704 109.84141 L 50.1709 111.04258 L 49.599611 112.11191 L 49.04297 113.10801 L 48.603517 113.66465 L 48.178712 114.23594 L 47.548829 114.88047 L 46.904298 115.64219 L 46.127931 116.4332 L 45.278321 117.28281 L 44.296876 118.20566 L 43.374025 118.98203 L 42.656251 119.61191 L 42.01172 120.25645 L 41.528321 120.68125 L 41.176759 121.10606 L 40.898439 121.31113 L 40.678712 121.47227 L 40.60547 121.53086 L 40.532228 121.6041 L 40.312501 121.67734 L 39.975587 121.80918 L 39.536134 122.02891 L 38.833009 122.30723 L 38.056642 122.67344 L 37.13379 123.01035 L 35.932618 123.52305 L 34.731446 123.87461 L 33.310548 124.24082 L 31.889649 124.51914 L 30.263673 124.65098 L 28.564454 124.79746 L 26.572266 124.85606 L 24.726563 124.85606 z M 29.194337 111.61387 L 29.267579 111.54063 L 30.395509 111.3209 L 35.083009 108.77207 L 35.932618 107.93711 L 38.906251 102.89805 L 39.257813 102.04844 L 39.829103 98.005469 L 39.829103 97.52207 L 38.833009 89.08457 L 38.466798 88.14707 L 38.129884 87.722265 L 37.631837 87.385351 L 37.207032 87.092382 L 33.442384 85.964453 L 32.812501 85.891211 L 32.387696 85.891211 L 22.397461 86.74082 L 21.254883 87.165625 L 16.435547 90.637304 L 15.732422 91.560156 L 13.535157 96.30625 L 13.403321 97.639258 L 14.604493 103.74766 L 14.956055 104.59727 L 17.709961 108.64023 L 18.85254 109.4752 L 23.730469 111.2623 L 24.448243 111.39414 L 29.194337 111.61387 z M 101.05957 110.19297 L 101.26465 110.13438 L 102.46582 109.91465 L 108.00293 106.85313 L 108.7793 106.09141 L 110.2002 103.89414 L 110.40528 103.24961 L 111.54785 101.55039 L 111.75293 100.84727 L 111.97266 100.27598 L 111.97266 95.383398 L 111.69434 94.401953 L 109.70215 90.139258 L 109.05762 89.348242 L 105.38086 86.4625 L 104.31153 85.964453 L 99.272463 85.188086 L 98.935549 85.188086 L 92.27051 85.100195 L 91.772463 85.188086 L 88.227541 85.964453 L 87.656252 86.242773 L 87.172854 86.594336 L 86.821291 87.01914 L 86.528322 87.663672 L 85.957033 90.2125 L 85.883791 90.783789 L 86.308596 100.27598 L 86.528322 101.18418 L 88.432619 105.02207 L 89.135744 105.87168 L 93.691409 109.19688 L 94.819338 109.62168 L 101.05957 110.19297 z M 55.634767 74.333593 L 68.525392 74.055273 L 69.30176 73.908788 L 71.572267 73.059179 L 71.850588 72.854101 L 72.275392 72.502538 L 72.919924 71.565038 L 73.417971 69.807226 L 73.491213 69.235937 L 74.047853 55.759374 L 73.901369 55.129491 L 73.754885 54.558202 L 72.421877 52.302343 L 71.997072 51.877538 L 71.499025 51.525975 L 71.000978 51.306249 L 70.429689 51.159764 L 55.913087 50.940038 L 54.8584 51.233007 L 53.291017 52.024022 L 52.79297 52.434178 L 52.426759 52.858983 L 52.148439 53.576757 L 51.796876 55.349218 L 51.723634 55.759374 L 51.723634 70.158788 L 52.236329 71.565038 L 53.715822 73.483984 L 54.345704 73.982031 L 54.990236 74.201757 L 55.561525 74.274999 L 55.634767 74.333593 z M 26.645508 39.470311 L 37.060548 38.840428 L 37.485352 38.693944 L 38.056642 38.474217 L 38.466798 38.122655 L 38.906251 37.624608 L 40.180665 35.441991 L 40.312501 34.943944 L 40.458985 34.22617 L 39.975587 24.719334 L 39.829103 24.162693 L 38.276368 19.563084 L 37.690431 18.713475 L 37.41211 18.347264 L 32.021485 14.875584 L 31.04004 14.524021 L 26.220704 13.894138 L 25.942383 13.894138 L 25.092774 14.099217 L 19.980469 16.22324 L 19.13086 16.721287 L 16.508789 19.475193 L 16.083985 20.266209 L 14.516602 24.514256 L 14.384766 25.437108 L 14.516602 27.561131 L 14.604493 27.927342 L 15.38086 31.399022 L 15.732422 32.175389 L 18.427735 35.925389 L 19.40918 36.774998 L 25.649415 39.323827 L 26.645508 39.470311 z M 99.067385 38.840428 L 99.272463 38.767186 L 100.13672 38.693944 L 105.60059 36.555272 L 105.86426 36.350194 L 106.43555 35.925389 L 109.13086 32.878514 L 109.57032 32.233983 L 111.04981 28.557225 L 111.18164 27.561131 L 110.83008 22.31699 L 110.34668 21.115818 L 107.13867 16.941014 L 106.50879 16.369724 L 103.25684 14.231053 L 102.46582 13.952732 L 98.994143 13.322849 L 98.071292 13.322849 L 93.969729 14.172459 L 93.325198 14.377537 L 88.930666 16.867771 L 88.52051 17.277928 L 88.081057 17.775975 L 87.099612 19.69492 L 86.601565 20.134373 L 86.308596 20.617771 L 85.957033 21.320896 L 85.327151 24.514256 L 85.327151 24.939061 L 85.327151 34.006444 L 85.590822 35.149022 L 86.601565 36.716405 L 87.436526 37.478123 L 88.374026 37.844334 L 99.067385 38.840428 z " /></g></g></svg>
