<?xml version="1.0" encoding="UTF-8" standalone="no"?>
<!-- Created with Inkscape (http://www.inkscape.org/) -->

<svg
   version="1.1"
   id="svg2"
   xml:space="preserve"
   width="26.48"
   height="22.68"
   viewBox="0 0 26.48 22.68"
   xmlns="http://www.w3.org/2000/svg"
   xmlns:svg="http://www.w3.org/2000/svg"><defs
     id="defs6" /><g
     id="g8"
     transform="matrix(1.3333333,0,0,-1.3333333,0,22.68)"><g
       id="g10"
       transform="scale(0.1)"><path
         d="M 7.4375,9.92188 114.59,9.49219 115.078,7.64453 113.301,2.68359 115.586,0 l 4.316,2.34375 5.039,6.80469 4.317,0.84375 8.144,-0.14063 0.157,-0.21093 24.726,-0.36329 13.887,0.78126 14.746,8.4375 5.098,7.8594 0.136,3.7617 -1.836,-0.0664 -4.394,-4.6797 -4.102,-2.5586 -7.031,-2.2539 -46.191,-0.6445 -0.43,1.914 9.355,16.3633 0.567,0.1484 6.23,10.9766 32.813,56.3436 17.422,30.824 -0.703,2.34 -1.973,0.707 -33.242,-7.929 -3.106,1.699 6.289,9.707 0.293,1.984 0.293,4.742 -1.074,4.539 -2.187,4.329 -13.907,10.418 -0.429,-0.079 -2.403,1.137 -0.84,-0.066 -3.339,-2.278 -0.997,-2.898 1.29,-1.633 7.363,-0.64 1.64,-1.551 0.704,-2.129 -1.133,-2.981 -10.567,-9.711 -7.285,1.207 -12.48,-1.632 -0.157,0.078 -6.875,-0.785 -32.0894,-2.329 -2.7695,-2.277 -3.3281,-5.105 -6.5235,-8 L 16.6484,94.3984 1.97656,85.7461 0.347656,86.8164 0,75.332 8.29297,81.3477 7.79688,81.9883 18.0664,89.1445 56.0586,110.98 h 6.4453 l 5.457,4.325 7.2188,7.152 4.832,5.453 5.9492,3.906 5.3868,0.844 9.6323,-0.496 0.079,-2.406 -1.8442,-3.762 -2.2773,-1.629 -17.918,-19.914 -2.4179,-10.9061 -5.6602,-7.4375 -9.8516,-10.4258 -23.0312,-24.668 -5.75,-6.2304 -7.4336,-7.3047 -6.9414,-5.5157 -5.6055,-4.6796 -0.9218,-1.6407 2.1289,-2.539 -1.9805,-2.3438 H 9.35156 L 0.28125,21.0469 V 9.64063 L 7.4375,9.92188"
         style="fill:#000000;fill-opacity:1;fill-rule:nonzero;stroke:none"
         id="path12" /><path
         d="m 123.594,20.6914 2.129,2.9102 14.16,24.2968 -0.137,0.4336 41.035,71.223 -0.136,0.066 2.675,4.75 -0.41,2.484 -19.57,-9.359 -17.207,4.746 h -3.399 l -26.015,-20.769 0.058,-0.133 -9.632,-7.7931 1.707,-7.9453 2.418,-2.9688 6.718,-12.1953 3.907,-6.9414 1.621,-3.1836 -6.094,-24.8047 -2.969,-11.2812 -0.078,0.082 -0.781,-3.332 5.176,-1.836 4.824,1.5508"
         style="fill:#ffffff;fill-opacity:1;fill-rule:nonzero;stroke:none"
         id="path14" /><path
         d="M 109.203,56.5547 106.938,63.0664 92.2695,78.8672 89.6484,78.9453 61.1523,54.1484 48.6094,44.1406 27.7109,28.7695 l -0.9921,-0.7109 -0.2149,0.2891 -5.8828,-4.3321 -1.0586,-2.4062 2.8359,-1.1328 h 1.4844 l 79.7932,0.1484 1.699,0.8477 0.715,2.9023 1.973,18.7109 1.14,13.4688"
         style="fill:#ffffff;fill-opacity:1;fill-rule:nonzero;stroke:none"
         id="path16" /></g></g></svg>
