<?xml version="1.0" encoding="UTF-8" standalone="no"?>
<!-- Created with Inkscape (http://www.inkscape.org/) -->

<svg
   version="1.1"
   id="svg2"
   xml:space="preserve"
   width="18.173332"
   height="18.106667"
   viewBox="0 0 18.173332 18.106667"
   sodipodi:docname="stugby.svg"
   inkscape:version="1.1.1 (3bf5ae0d25, 2021-09-20)"
   xmlns:inkscape="http://www.inkscape.org/namespaces/inkscape"
   xmlns:sodipodi="http://sodipodi.sourceforge.net/DTD/sodipodi-0.dtd"
   xmlns="http://www.w3.org/2000/svg"
   xmlns:svg="http://www.w3.org/2000/svg"><sodipodi:namedview
     id="namedview10"
     pagecolor="#ffffff"
     bordercolor="#666666"
     borderopacity="1.0"
     inkscape:pageshadow="2"
     inkscape:pageopacity="0.0"
     inkscape:pagecheckerboard="0"
     showgrid="false"
     inkscape:zoom="48.214286"
     inkscape:cx="9.0948148"
     inkscape:cy="9.0429629"
     inkscape:window-width="2560"
     inkscape:window-height="1365"
     inkscape:window-x="0"
     inkscape:window-y="0"
     inkscape:window-maximized="1"
     inkscape:current-layer="g10" /><defs
     id="defs6" /><g
     id="g8"
     transform="matrix(1.3333333,0,0,-1.3333333,0,18.106667)"><g
       id="g10"
       transform="scale(0.1)"><path
         d="m 40.1875,51.3867 1.4141,-0.5742 0.2851,-0.2852 24.3789,-25.2226 V 25.2266 L 66.4766,0.136719 13.0391,0 l 0.1445,24.3867 24.6641,25.9258 1.0546,1.0742 h 1.2852"
         style="fill:#2f2f2f;fill-opacity:1.0;fill-rule:nonzero;stroke:none"
         id="path12" /><path
         d="m 98.2227,135.5 37.7073,-38.6875 0.125,-0.0781 0.293,-1.4883 -0.078,-0.0664 -7.43,-7.3672 -0.149,-0.082 -0.136,0.082 -29.3362,29.9025 -0.1485,0.133 H 97.0898 L 96.7305,117.5 65.2734,86.6758 65.1289,86.6094 56.4766,95.1797 96.875,135.5 l 1.0625,0.352 0.2852,-0.352"
         style="fill:#2f2f2f;fill-opacity:1.0;fill-rule:nonzero;stroke:none"
         id="path14" /><path
         d="m 78.8086,39.1914 0.4297,-0.3516 -6.5977,-8.0078 -1.4922,-1.1328 -30.4023,30.5469 -0.2148,0.2031 -1.6915,-0.3398 -0.5,-0.5 L 8.01172,30.1875 7.51563,29.9727 0,37.207 l 0.707031,3.0469 0.070313,0.0703 38.769556,37.2071 0.4922,0.4921 h 0.707 l 0.2852,-0.2773 37.7773,-38.5547"
         style="fill:#2f2f2f;fill-opacity:1.0;fill-rule:nonzero;stroke:none"
         id="path16" /><path
         d="m 122.461,82.6367 0.273,-0.2148 0.079,-0.2813 0.5,-24.0234 v -0.4297 l -50.6724,-0.0703 -0.2929,0.0703 v 0.1445 l -0.6289,24.2305 23.457,23.6015 0.8398,0.922 1.2891,1.355 h 1.2695 l 0.1485,-0.148 23.7383,-25.1563"
         style="fill:#2f2f2f;fill-opacity:1.0;fill-rule:nonzero;stroke:none"
         id="path18" /></g></g></svg>
