<?xml version="1.0" encoding="UTF-8" standalone="no"?>
<!-- Created with Inkscape (http://www.inkscape.org/) -->

<svg
   version="1.1"
   id="svg2"
   xml:space="preserve"
   width="15.12"
   height="15.12"
   viewBox="0 0 15.12 15.12"
   sodipodi:docname="torn.svg"
   inkscape:version="1.1.1 (3bf5ae0d25, 2021-09-20)"
   xmlns:inkscape="http://www.inkscape.org/namespaces/inkscape"
   xmlns:sodipodi="http://sodipodi.sourceforge.net/DTD/sodipodi-0.dtd"
   xmlns="http://www.w3.org/2000/svg"
   xmlns:svg="http://www.w3.org/2000/svg"><sodipodi:namedview
     id="namedview7"
     pagecolor="#ffffff"
     bordercolor="#666666"
     borderopacity="1.0"
     inkscape:pageshadow="2"
     inkscape:pageopacity="0.0"
     inkscape:pagecheckerboard="0"
     showgrid="false"
     inkscape:zoom="57.738096"
     inkscape:cx="7.5599999"
     inkscape:cy="7.5513401"
     inkscape:window-width="2560"
     inkscape:window-height="1365"
     inkscape:window-x="0"
     inkscape:window-y="0"
     inkscape:window-maximized="1"
     inkscape:current-layer="g10" /><defs
     id="defs6" /><g
     id="g8"
     transform="matrix(1.3333333,0,0,-1.3333333,0,15.12)"><g
       id="g10"
       transform="scale(0.1)"><path
         d="M 51.0313,113.398 H 62.375 V 81.2695 l 2.0664,-0.3593 1.1641,-0.3633 0.9961,-0.2696 2.4297,-1.1679 2.4257,-1.5313 1.2578,-0.8984 1.086,-0.9922 1.9805,-1.9766 0.9882,-1.082 0.8086,-1.168 0.8125,-1.2617 0.7188,-1.1719 0.625,-1.2578 0.5469,-1.2617 0.3554,-0.9922 0.2696,-1.164 0.3632,-1.9844 H 113.398 V 51.0352 H 81.1836 L 80.8203,48.9648 80.5469,47.793 80.1875,46.7969 79.6484,45.5391 79.0234,44.3672 78.3008,43.1055 77.4883,41.9336 76.6797,40.6719 75.6836,39.5977 74.6953,38.5156 73.625,37.6172 72.5391,36.6289 71.3672,35.8203 70.1953,35.0078 68.9375,34.2891 67.7656,33.6641 66.5039,33.1172 65.5195,32.7539 64.3477,32.4922 62.3633,32.1289 V 0 h -11.332 v 32.2148 l -2.0704,0.3633 -1.1718,0.2735 -0.9922,0.3593 -1.2578,0.5391 -1.2618,0.625 -1.1718,0.7227 -1.2578,0.8125 -1.168,0.8086 -1.0781,0.9882 -2.0743,2.0664 -0.9023,1.086 -0.8984,1.1719 -1.5274,2.4296 -1.1719,2.4336 -0.2695,0.9844 -0.2734,1.1641 -0.3555,1.9922 H 0 v 11.332 h 32.1289 l 0.3555,2.0703 0.3633,1.1719 0.2656,0.9883 1.1758,2.5234 1.5273,2.4258 1.8906,2.25 1.9805,2.0742 2.25,1.8008 2.4258,1.5273 2.5273,1.1719 0.9844,0.2695 1.1719,0.2696 1.9765,0.3593 0.0079,32.1285"
         style="fill:#2f2f2f;fill-opacity:1.0;fill-rule:nonzero;stroke:none"
         id="path12" /></g></g></svg>
