<?xml version="1.0" encoding="UTF-8" standalone="no"?>
<!-- Created with Inkscape (http://www.inkscape.org/) -->

<svg
   version="1.1"
   id="svg2"
   xml:space="preserve"
   width="6.8000002"
   height="6.8000002"
   viewBox="0 0 6.8000002 6.8000002"
   xmlns="http://www.w3.org/2000/svg"
   xmlns:svg="http://www.w3.org/2000/svg"><defs
     id="defs6" /><g
     id="g8"
     transform="matrix(1.3333333,0,0,-1.3333333,0,6.8)"><g
       id="g10"
       transform="scale(0.1)"><path
         d="M 25.5703,51.0234 H 24.8281 L 21.7695,50.7656 18.8164,50.1133 15.9297,49.2148 13.2383,47.8711 10.6289,46.3438 8.27734,44.3672 6.20703,42.2031 4.30859,39.8516 2.77734,37.2422 1.61719,34.4648 0.707031,31.5703 0.167969,28.6016 0,25.543 V 25.4492 24.8359 L 0.257813,21.7734 0.90625,18.7969 1.80859,15.9258 3.14844,13.2148 4.67969,10.6055 6.65625,8.26953 8.81641,6.20313 11.168,4.29688 13.7773,2.77344 16.5469,1.60938 19.4492,0.703125 22.418,0.175781 25.4805,0 h 0.0898 0.6172 l 3.0625,0.253906 2.9805,0.65625 2.8515,0.867184 2.7266,1.36719 2.6016,1.52344 2.3437,1.99219 2.0703,2.14843 1.875,2.35551 1.543,2.6054 1.1719,2.7813 0.8984,2.8906 0.5273,2.9492 0.1758,3.0586 v 0.0938 0.6484 l -0.2539,3.0625 -0.6445,2.9492 -0.8789,2.8907 -1.3672,2.6914 -1.5234,2.6054 -1.9922,2.3555 -2.1485,2.0664 -2.3476,1.9023 -2.6094,1.5274 -2.7812,1.1601 -2.8907,0.9102 -2.9492,0.543 -3.0586,0.1679"
         style="fill:#000000;fill-opacity:1;fill-rule:nonzero;stroke:none"
         id="path12" /><path
         d="M 25.4805,42.5742 23.5,42.4609 21.0586,42.0352 18.707,41.2109 16.5469,40.0547 14.4883,38.6016 12.7773,36.9023 11.25,34.9258 9.97656,32.7461 9.17969,30.4141 8.64844,27.9727 8.44531,25.543 l 0.11328,-1.9571 0.42969,-2.4453 0.82031,-2.3437 1.16021,-2.1485 1.4492,-2.0781 1.6992,-1.7109 1.9805,-1.5196 2.1836,-1.2812 2.3281,-0.79297 2.4414,-0.53516 2.4297,-0.19531 1.957,0.10547 2.4414,0.42968 2.3516,0.82032 2.1484,1.16407 2.0703,1.4453 1.6992,1.6992 1.543,1.9805 1.2656,2.1601 0.7813,2.3516 0.5469,2.4414 0.1953,2.4102 -0.0977,1.9804 -0.4297,2.4375 -0.8203,2.3516 -1.168,2.1523 -1.4453,2.0704 -1.6992,1.707 -1.9805,1.5312 -2.1601,1.2735 -2.3516,0.7969 -2.4414,0.5312 -2.4062,0.1992"
         style="fill:#ffffff;fill-opacity:1;fill-rule:nonzero;stroke:none"
         id="path14" /><path
         d="m 25.5703,31.4961 1.6953,-0.2617 1.5352,-0.7305 1.2422,-1.1719 0.8984,-1.3593 0.4688,-1.6993 V 25.4531 L 31.1484,23.7539 30.4141,22.2227 29.25,20.9766 27.8867,20.0664 26.1875,19.6211 h -0.8203 l -1.6992,0.2539 -1.5274,0.7305 -1.25,1.1679 -0.9101,1.3594 -0.4532,1.7031 v 0.8164 l 0.2579,1.6993 0.7343,1.5312 1.168,1.25 1.3633,0.9141 1.6953,0.4492 h 0.8242"
         style="fill:#000000;fill-opacity:1;fill-rule:nonzero;stroke:none"
         id="path16" /></g></g></svg>
