<?xml version="1.0" encoding="UTF-8" standalone="no"?>
<!-- Created with Inkscape (http://www.inkscape.org/) -->

<svg
   version="1.1"
   id="svg2"
   xml:space="preserve"
   width="6.8000002"
   height="6.8000002"
   viewBox="0 0 6.8000002 6.8000002"
   sodipodi:docname="transformator.svg"
   inkscape:version="1.2.2 (b0a8486541, 2022-12-01)"
   xmlns:inkscape="http://www.inkscape.org/namespaces/inkscape"
   xmlns:sodipodi="http://sodipodi.sourceforge.net/DTD/sodipodi-0.dtd"
   xmlns="http://www.w3.org/2000/svg"
   xmlns:svg="http://www.w3.org/2000/svg"><sodipodi:namedview
     id="namedview9"
     pagecolor="#ffffff"
     bordercolor="#000000"
     borderopacity="0.25"
     inkscape:showpageshadow="2"
     inkscape:pageopacity="0.0"
     inkscape:pagecheckerboard="0"
     inkscape:deskcolor="#d1d1d1"
     showgrid="false"
     inkscape:zoom="147.05882"
     inkscape:cx="3.0532001"
     inkscape:cy="3.4034001"
     inkscape:window-width="2560"
     inkscape:window-height="1364"
     inkscape:window-x="1920"
     inkscape:window-y="0"
     inkscape:window-maximized="1"
     inkscape:current-layer="svg2" /><defs
     id="defs6" /><g
     id="g8"
     transform="matrix(1.3333333,0,0,-1.3333333,0,6.8)"><g
       id="g10"
       transform="scale(0.1)"><path
         id="path12"
         style="display:inline;fill:#000000;fill-opacity:1;fill-rule:nonzero;stroke:none"
         d="M 24.829102,51.029298 21.767579,50.765626 18.823243,50.106447 15.922852,49.212892 13.242188,47.865236 10.634766,46.341798 8.2763674,44.364259 6.2109377,42.19629 4.3066407,39.85254 2.7832032,37.245118 1.6113282,34.461915 0.70312502,31.576173 0.16113282,28.60254 0,25.541016 v -0.08789 -0.615235 L 0.26367188,21.776368 0.90820315,18.802735 1.8017579,15.931641 3.1494141,13.22168 4.6728517,10.59961 6.6503908,8.270508 8.8183596,6.2050783 11.16211,4.3007814 l 2.62207,-1.5234376 2.768555,-1.171875 2.90039,-0.90820316 2.958985,-0.52734376 3.061523,-0.17578126 h 0.10254 0.615234 l 3.061523,0.26367189 2.973633,0.6591797 2.856446,0.86425779 2.724609,1.3623048 2.607422,1.5234375 2.34375,1.9921876 2.06543,2.1533203 1.875,2.3583988 1.538086,2.592773 1.171875,2.783203 0.908203,2.900391 0.527344,2.944336 0.175781,3.061524 v 0.08789 0.644532 l -0.263672,3.061523 -0.644531,2.958984 -0.878906,2.885743 -1.362305,2.695312 -1.523438,2.607422 -1.992187,2.358399 -2.153321,2.065429 -2.34375,1.889649 -2.607422,1.538086 -2.783203,1.157227 -2.885742,0.908203 -2.958984,0.541992 -3.046875,0.175781 z m 0.644531,-8.452148 2.416993,-0.205079 2.43164,-0.527343 2.358399,-0.791016 2.15332,-1.274414 1.992188,-1.538086 1.699219,-1.699219 1.435546,-2.080078 1.171876,-2.15332 0.820312,-2.343751 0.424805,-2.446289 L 42.48047,25.541016 42.29004,23.138672 41.733399,20.692383 40.957032,18.333985 39.697267,16.180664 38.144532,14.203125 36.445313,12.503907 34.379884,11.053711 32.226563,9.8964846 29.882813,9.0761721 27.436524,8.636719 25.473633,8.5341799 23.056641,8.7246096 20.610352,9.2666018 18.28125,10.057617 l -2.182617,1.289063 -1.977539,1.508789 -1.699219,1.713867 -1.450195,2.080078 -1.1572266,2.153321 -0.8203126,2.34375 -0.4394531,2.446289 -0.1025391,1.948242 0.1904297,2.431641 0.5419922,2.446289 0.7910157,2.329102 1.2744138,2.182617 1.523438,1.977539 1.713867,1.699219 2.06543,1.450195 2.15332,1.157227 2.358399,0.820312 2.43164,0.424805 z M 24.741212,31.50293 23.056641,31.048829 21.694336,30.125977 20.522461,28.88086 19.79004,27.357423 19.526368,25.658204 v -0.820313 l 0.454101,-1.699219 0.908203,-1.362304 1.245118,-1.171875 1.538086,-0.732422 1.699218,-0.249024 h 0.820313 l 1.699219,0.439454 1.362304,0.908203 1.157227,1.245117 0.732422,1.538086 0.263672,1.699219 v 0.820312 l -0.46875,1.699219 -0.893555,1.362305 -1.245117,1.171875 -1.538086,0.732422 -1.68457,0.263671 z" /></g></g></svg>
