<?xml version="1.0" encoding="UTF-8" standalone="no"?>
<!-- Created with Inkscape (http://www.inkscape.org/) -->

<svg
   version="1.1"
   id="svg2"
   xml:space="preserve"
   width="12.773333"
   height="11.346667"
   viewBox="0 0 12.773333 11.346667"
   sodipodi:docname="triangelpunkt.svg"
   inkscape:version="1.2.2 (b0a8486541, 2022-12-01)"
   xmlns:inkscape="http://www.inkscape.org/namespaces/inkscape"
   xmlns:sodipodi="http://sodipodi.sourceforge.net/DTD/sodipodi-0.dtd"
   xmlns="http://www.w3.org/2000/svg"
   xmlns:svg="http://www.w3.org/2000/svg"><sodipodi:namedview
     id="namedview9"
     pagecolor="#ffffff"
     bordercolor="#000000"
     borderopacity="0.25"
     inkscape:showpageshadow="2"
     inkscape:pageopacity="0.0"
     inkscape:pagecheckerboard="0"
     inkscape:deskcolor="#d1d1d1"
     showgrid="false"
     inkscape:zoom="88.131605"
     inkscape:cx="5.8094937"
     inkscape:cy="5.679007"
     inkscape:window-width="2560"
     inkscape:window-height="1364"
     inkscape:window-x="1920"
     inkscape:window-y="0"
     inkscape:window-maximized="1"
     inkscape:current-layer="svg2" /><defs
     id="defs6" /><g
     id="g8"
     transform="matrix(1.3333333,0,0,-1.3333333,0,11.346667)"><g
       id="g10"
       transform="scale(0.1)"><path
         id="path12"
         style="fill:#000000;fill-opacity:1;fill-rule:nonzero;stroke:none"
         d="M 47.973634 85.056059 L 0 0.0072290627 L 95.844729 0.0072290627 L 47.973634 85.056059 z M 47.973634 67.873442 L 81.372072 8.4740261 L 14.487305 8.4740261 L 47.973634 67.873442 z M 46.801759 37.536527 L 45.087892 37.097074 L 43.564454 36.364652 L 42.114259 35.295316 L 40.942384 33.94766 L 40.13672 32.497464 L 39.594728 30.783597 L 39.418946 29.084378 L 39.506837 27.912503 L 39.873048 26.198636 L 40.678712 24.675198 L 41.674806 23.225003 L 43.022462 22.053128 L 44.5459 21.247464 L 46.171876 20.705472 L 47.973634 20.529691 L 49.04297 20.63223 L 50.756837 20.983792 L 52.382814 21.804105 L 53.73047 22.770902 L 54.902345 24.118558 L 55.7959 25.671292 L 56.337892 27.28262 L 56.425783 29.084378 L 56.425783 30.153714 L 55.98633 31.88223 L 55.253908 33.493558 L 54.169923 34.841214 L 52.924806 36.013089 L 51.38672 36.906644 L 49.672853 37.360746 L 47.973634 37.536527 L 46.801759 37.536527 z " /></g></g></svg>
