<?xml version="1.0" encoding="UTF-8" standalone="no"?>
<!-- Created with Inkscape (http://www.inkscape.org/) -->

<svg
   version="1.1"
   id="svg2"
   xml:space="preserve"
   width="8.4666672"
   height="12.093333"
   viewBox="0 0 8.4666672 12.093333"
   sodipodi:docname="tunnel.svg"
   inkscape:version="1.1.1 (3bf5ae0d25, 2021-09-20)"
   xmlns:inkscape="http://www.inkscape.org/namespaces/inkscape"
   xmlns:sodipodi="http://sodipodi.sourceforge.net/DTD/sodipodi-0.dtd"
   xmlns="http://www.w3.org/2000/svg"
   xmlns:svg="http://www.w3.org/2000/svg"><sodipodi:namedview
     id="namedview7"
     pagecolor="#ffffff"
     bordercolor="#666666"
     borderopacity="1.0"
     inkscape:pageshadow="2"
     inkscape:pageopacity="0.0"
     inkscape:pagecheckerboard="0"
     showgrid="false"
     inkscape:zoom="72.188534"
     inkscape:cx="4.231974"
     inkscape:cy="6.0397403"
     inkscape:window-width="2560"
     inkscape:window-height="1365"
     inkscape:window-x="0"
     inkscape:window-y="0"
     inkscape:window-maximized="1"
     inkscape:current-layer="g10" /><defs
     id="defs6" /><g
     id="g8"
     transform="matrix(1.3333333,0,0,-1.3333333,0,12.093333)"><g
       id="g10"
       transform="scale(0.1)"><path
         d="m 29.8828,90.7227 0.4492,-0.0938 h 0.6289 l 1.3477,-0.0859 1.2617,-0.1797 1.3516,-0.2695 1.3437,-0.2735 2.6172,-0.8047 1.3477,-0.6367 1.1718,-0.5351 2.5196,-1.3477 2.4219,-1.7148 1.1718,-0.8985 1.0938,-0.9922 1.0742,-1.0781 1.0742,-1.0781 2.168,-2.4336 0.8984,-1.2578 0.8985,-1.2617 1.7968,-2.7852 0.7227,-1.4414 0.8008,-1.5352 1.3672,-3.1484 0.625,-1.5273 0.5273,-1.711 0.9961,-3.3281 0.4492,-1.7109 0.3711,-1.7149 0.2539,-1.7969 0.3711,-1.707 0.1758,-1.8008 0.1758,-1.8047 v -1.707 l 0.0976,-1.4414 V 45.1797 43.5664 L 63.3555,41.7617 63.2773,39.9609 63.0039,38.1641 62.8281,36.4453 62.5547,34.6484 62.1836,32.9414 61.7344,31.1445 61.2852,29.5234 60.8359,27.8125 60.3086,26.1055 59.0391,22.8633 58.3164,21.3281 57.5938,19.8945 56.8906,18.3594 56.0703,17.0117 55.1719,15.5781 54.2734,14.2188 53.2773,12.9609 52.3008,11.6992 51.3047,10.5273 50.2305,9.45313 49.1367,8.37109 47.9648,7.38281 46.793,6.30078 45.7188,5.48828 44.4688,4.58984 43.1992,3.87891 42.0273,3.15625 40.6797,2.60938 39.4297,1.98438 38.1602,1.53516 36.8125,1.08594 35.4609,0.722656 34.1992,0.449219 32.7578,0.273438 31.5938,0.1875 30.5117,0.0898438 29.9727,0 H 29.1602 L 28.7109,0.0898438 H 28.082 L 25.3828,0.363281 24.1211,0.539063 22.6797,0.898438 20.1602,1.80859 18.8086,2.34375 17.5508,2.88281 15.1211,4.32813 13.8633,5.13672 12.6016,5.9375 10.3516,7.83203 8.1875,9.99219 6.11719,12.4219 5.13281,13.5938 4.23047,14.9414 2.51953,17.8242 1.71094,19.2578 0.992188,20.7031 0.269531,22.2383 0.179688,22.4141 V 22.5 H 10.3516 l 1.0781,-1.7969 0.6328,-0.9961 0.6289,-0.8984 0.5352,-0.7109 0.7226,-0.9102 0.8125,-0.8984 0.8985,-0.9844 0.8984,-0.7227 0.7227,-0.7226 0.8085,-0.7149 0.8125,-0.5468 0.8985,-0.5352 1.8008,-1.0742 0.8984,-0.3633 0.8125,-0.3594 0.8086,-0.27341 0.9922,-0.27344 0.7187,-0.17578 0.5391,-0.08984 0.4492,-0.08594 0.7188,-0.1875 h 0.9922 l 0.9921,-0.08594 0.7149,0.08594 h 0.6289 l 0.8125,0.08984 0.9922,0.09766 0.8086,0.17578 0.8125,0.27344 0.8047,0.26169 0.8164,0.2735 0.9961,0.4492 0.9765,0.539 0.8985,0.3594 0.8203,0.5469 0.7226,0.5391 0.8985,0.7226 0.8984,0.711 0.8008,0.7226 0.8203,0.8125 0.7227,0.8086 0.8984,0.9883 0.8008,0.9961 0.7226,0.9844 0.625,0.8984 0.7227,1.1719 0.7226,1.1718 0.625,1.2618 1.1719,2.4296 0.4492,1.2618 0.5469,1.3476 0.4492,1.3477 0.3516,1.4453 0.3711,1.4336 0.3515,1.4453 0.3711,1.4375 0.1758,1.5312 0.1758,1.6211 0.2734,1.4375 0.0977,1.3477 v 1.6211 0.9922 0.8945 0.8125 0.7227 0.8984 L 54.2734,49.1406 54,52.2891 l -0.2734,1.5351 -0.2735,1.4414 -0.2539,1.3477 -0.3711,1.4375 -0.8008,2.789 -0.8984,2.5196 -0.6445,1.2617 -0.5274,1.4375 -0.6445,1.2656 -0.7031,1.2617 -1.4453,2.1563 -0.625,0.9922 -0.7227,0.8984 -0.8203,0.8985 -0.7227,0.9921 -1.7968,1.7071 -0.8008,0.6328 -0.7227,0.7187 -0.8203,0.5391 -0.8984,0.543 -1.7969,1.0781 -0.8984,0.3594 -0.8008,0.3632 -0.8164,0.2696 -1.0821,0.2656 -0.9882,0.1836 -0.7227,0.2695 -0.7187,0.0899 h -0.9024 l -0.9844,0.0898 H 28.8008 L 28.168,81.543 H 27.3594 L 25.5625,81.1836 23.9414,80.7344 23.1289,80.3711 22.1406,79.9219 21.1523,79.3789 20.25,79.0234 19.4375,78.4844 18.6289,77.9414 17.7305,77.2227 16.918,76.5039 16.0195,75.7813 15.2969,75.0664 14.4922,74.1602 13.6836,73.2617 12.8711,72.1836 12.1484,71.2813 11.4297,70.293 10.707,69.1211 9.89844,67.8633 0,67.7734 l 0.269531,0.8125 0.265625,0.625 0.363282,0.8086 0.449222,0.9024 1.62109,2.8789 1.80078,2.7031 1.98047,2.5195 2.06641,2.3399 2.16409,2.0703 2.3398,1.7969 2.4336,1.6211 2.5195,1.3515 2.6055,1.0821 1.3516,0.3593 1.2617,0.3555 2.6992,0.543 1.168,0.0859 1.0781,0.0938 h 1.4453"
         style="fill:#2f2f2f;fill-opacity:1.0;fill-rule:nonzero;stroke:none"
         id="path12" /></g></g></svg>
