<?xml version="1.0" encoding="UTF-8" standalone="no"?>
<!-- Created with Inkscape (http://www.inkscape.org/) -->

<svg
   version="1.1"
   id="svg2"
   xml:space="preserve"
   width="19.946667"
   height="13.146667"
   viewBox="0 0 19.946667 13.146667"
   sodipodi:docname="vad.svg"
   inkscape:version="1.1.1 (3bf5ae0d25, 2021-09-20)"
   xmlns:inkscape="http://www.inkscape.org/namespaces/inkscape"
   xmlns:sodipodi="http://sodipodi.sourceforge.net/DTD/sodipodi-0.dtd"
   xmlns="http://www.w3.org/2000/svg"
   xmlns:svg="http://www.w3.org/2000/svg"><sodipodi:namedview
     id="namedview7"
     pagecolor="#ffffff"
     bordercolor="#666666"
     borderopacity="1.0"
     inkscape:pageshadow="2"
     inkscape:pageopacity="0.0"
     inkscape:pagecheckerboard="0"
     showgrid="false"
     inkscape:zoom="59.308155"
     inkscape:cx="9.9733334"
     inkscape:cy="6.5758242"
     inkscape:window-width="2560"
     inkscape:window-height="1365"
     inkscape:window-x="0"
     inkscape:window-y="0"
     inkscape:window-maximized="1"
     inkscape:current-layer="g10" /><defs
     id="defs6" /><g
     id="g8"
     transform="matrix(1.3333333,0,0,-1.3333333,0,13.146667)"><g
       id="g10"
       transform="scale(0.1)"><path
         d="m 13.2266,98.4609 61.5625,-38.4257 61.5589,38.4257 0.625,0.0938 h 0.371 l 0.449,-0.2734 11.523,-11.879 0.254,-0.4492 V 85.5898 85.2344 L 149.121,84.6055 92.2461,49.3242 149.121,13.957 149.57,13.3203 V 12.9609 12.6094 L 149.316,12.1484 137.793,0.363281 137.344,0.0976563 136.973,0 136.348,0.1875 74.7891,38.5273 13.2266,0.1875 12.5977,0 11.7891,0.363281 0.269531,12.1484 0,12.9609 v 0.3594 L 0.449219,13.957 57.418,49.3242 0.449219,84.6055 0,85.2344 v 0.3554 l 0.269531,0.8125 11.519569,11.879 0.8086,0.2734 0.6289,-0.0938"
         style="fill:#2f2f2f;fill-opacity:1.0;fill-rule:nonzero;stroke:none"
         id="path12" /></g></g></svg>
