<?xml version="1.0" encoding="UTF-8" standalone="no"?>
<!-- Created with Inkscape (http://www.inkscape.org/) -->

<svg
   version="1.1"
   id="svg2"
   xml:space="preserve"
   width="14.36"
   height="3.7733333"
   viewBox="0 0 14.36 3.7733333"
   sodipodi:docname="vagbom.svg"
   inkscape:version="1.1.1 (3bf5ae0d25, 2021-09-20)"
   xmlns:inkscape="http://www.inkscape.org/namespaces/inkscape"
   xmlns:sodipodi="http://sodipodi.sourceforge.net/DTD/sodipodi-0.dtd"
   xmlns="http://www.w3.org/2000/svg"
   xmlns:svg="http://www.w3.org/2000/svg"><sodipodi:namedview
     id="namedview7"
     pagecolor="#ffffff"
     bordercolor="#666666"
     borderopacity="1.0"
     inkscape:pageshadow="2"
     inkscape:pageopacity="0.0"
     inkscape:pagecheckerboard="0"
     showgrid="false"
     inkscape:zoom="82.381618"
     inkscape:cx="7.1799998"
     inkscape:cy="1.8814877"
     inkscape:window-width="2560"
     inkscape:window-height="1365"
     inkscape:window-x="0"
     inkscape:window-y="0"
     inkscape:window-maximized="1"
     inkscape:current-layer="g10" /><defs
     id="defs6" /><g
     id="g8"
     transform="matrix(1.3333333,0,0,-1.3333333,0,3.7733333)"><g
       id="g10"
       transform="scale(0.1)"><path
         d="m 107.715,14.1641 -0.149,-1.9844 -0.418,-1.9844 -0.632,-1.84374 -0.989,-1.76953 -1.218,-1.6289 L 102.891,3.53516 101.34,2.32422 99.5625,1.34766 97.7266,0.625 95.7305,0.136719 93.7617,0 H 93.5469 L 91.5625,0.136719 89.5703,0.546875 87.7266,1.19141 85.957,2.1875 l -1.6328,1.21094 -1.414,1.40625 -1.1993,1.5625 -0.9882,1.76953 -0.711,1.78125 H 27.7109 l -0.5664,-1.56641 -1,-1.76953 L 24.9414,4.95313 23.5234,3.53516 21.9727,2.32422 20.1953,1.34766 18.3516,0.625 16.3672,0.136719 14.3906,0 H 14.1758 L 12.1836,0.136719 10.207,0.546875 8.35938,1.19141 6.59375,2.1875 4.96094,3.39844 3.54688,4.80469 2.33984,6.36719 1.34766,8.13672 0.640625,9.98047 0.144531,11.9727 0,13.957 v 0.2071 L 0.144531,16.1484 0.5625,18.1406 1.19922,19.9727 2.19141,21.75 3.39844,23.3789 4.8125,24.8008 6.37891,26 l 1.76562,0.9922 1.84375,0.707 1.99222,0.5 1.9804,0.1406 h 0.2149 l 1.9765,-0.1406 1.9922,-0.4297 1.836,-0.6289 1.7773,-1.0039 1.6328,-1.2031 1.4141,-1.418 1.207,-1.5508 0.9922,-1.7773 0.707,-1.7695 h 52.3008 l 0.5625,1.5547 0.9883,1.7773 1.2031,1.6289 1.4141,1.4219 1.5742,1.1992 1.7734,0.9922 1.8282,0.707 1.9922,0.5 1.9843,0.1406 h 0.2149 l 1.9804,-0.1406 1.9844,-0.4297 1.836,-0.6289 1.7773,-1.0039 1.629,-1.2031 1.418,-1.418 1.211,-1.5508 0.984,-1.7773 0.715,-1.8477 0.484,-1.9765 0.149,-1.9844 v -0.2148"
         style="fill:#2f2f2f;fill-opacity:1.0;fill-rule:nonzero;stroke:none"
         id="path12" /></g></g></svg>
