<?xml version="1.0" encoding="UTF-8" standalone="no"?>
<!-- Created with Inkscape (http://www.inkscape.org/) -->

<svg
   version="1.1"
   id="svg2"
   xml:space="preserve"
   width="12.12"
   height="12.08"
   viewBox="0 0 12.12 12.08"
   sodipodi:docname="vandrarhem.svg"
   inkscape:version="1.2.2 (b0a8486541, 2022-12-01)"
   xmlns:inkscape="http://www.inkscape.org/namespaces/inkscape"
   xmlns:sodipodi="http://sodipodi.sourceforge.net/DTD/sodipodi-0.dtd"
   xmlns="http://www.w3.org/2000/svg"
   xmlns:svg="http://www.w3.org/2000/svg"><sodipodi:namedview
     id="namedview8"
     pagecolor="#ffffff"
     bordercolor="#666666"
     borderopacity="1.0"
     inkscape:pageshadow="2"
     inkscape:pageopacity="0.0"
     inkscape:pagecheckerboard="0"
     showgrid="false"
     inkscape:zoom="72.268212"
     inkscape:cx="5.7148224"
     inkscape:cy="6.0538373"
     inkscape:window-width="2560"
     inkscape:window-height="1364"
     inkscape:window-x="1920"
     inkscape:window-y="0"
     inkscape:window-maximized="1"
     inkscape:current-layer="g10"
     inkscape:showpageshadow="2"
     inkscape:deskcolor="#d1d1d1" /><defs
     id="defs6" /><g
     id="g8"
     transform="matrix(1.3333333,0,0,-1.3333333,0,12.08)"><g
       id="g10"
       transform="scale(0.1)"><path
         id="path12"
         style="fill:#2f2f2f;fill-opacity:1.0;fill-rule:nonzero;stroke:none"
         d="M 60.805666 90.570705 L 31.391602 55.560939 L 31.186524 54.213283 L 36.064454 53.231837 L 36.064454 53.012111 L 35.361329 9.2718752 L 19.907227 9.1546877 L 19.423829 10.487696 L 19.277344 20.975977 L 19.628907 23.187891 L 26.074219 21.752344 L 30.893555 21.400782 L 32.109376 22.045313 L 31.538087 23.392969 L 29.838868 25.238673 L 27.861329 27.714259 L 24.521485 32.811915 L 22.250977 38.422267 L 22.045899 41.95254 L 28.417969 40.033595 L 29.838868 39.975001 L 29.838868 41.395899 L 24.799805 49.262111 L 22.045899 56.058986 L 20.683594 60.731837 L 19.13086 67.396877 L 17.651368 73.065822 L 15.878907 67.470119 L 13.608399 60.321681 L 11.90918 55.634181 L 8.6572268 48.8959 L 3.7646485 41.308009 L 4.3212892 39.975001 L 5.3906251 40.253321 L 11.411133 42.450587 L 11.557617 40.82461 L 10.561524 37.352931 L 9.1406252 34.379298 L 6.3134767 29.340235 L 3.6181642 26.073633 L 1.0546875 23.246485 L 1.2744141 21.898829 L 2.6220704 21.268946 L 2.7685548 21.400782 L 6.3720705 21.840235 L 10.561524 22.54336 L 13.740235 23.187891 L 14.238282 20.975977 L 13.461914 10.062891 L 12.392578 9.1546877 L 0 9.0667971 L 0 -0.00058593751 L 90.703127 -0.00058593751 L 90.86426 9.1546877 L 84.887697 9.1546877 L 85.253908 53.085353 L 90.86426 53.86172 L 90.483401 55.209376 L 60.805666 90.570705 z M 53.789064 32.035548 L 67.456056 32.035548 L 67.456056 9.433008 L 53.789064 9.433008 L 53.789064 32.035548 z " /></g></g></svg>
