<?xml version="1.0" encoding="UTF-8" standalone="no"?>
<!-- Created with Inkscape (http://www.inkscape.org/) -->

<svg
   version="1.1"
   id="svg2"
   xml:space="preserve"
   width="13.586667"
   height="13.6"
   viewBox="0 0 13.586667 13.6"
   sodipodi:docname="vindkraft.svg"
   inkscape:version="1.2.2 (b0a8486541, 2022-12-01)"
   xmlns:inkscape="http://www.inkscape.org/namespaces/inkscape"
   xmlns:sodipodi="http://sodipodi.sourceforge.net/DTD/sodipodi-0.dtd"
   xmlns="http://www.w3.org/2000/svg"
   xmlns:svg="http://www.w3.org/2000/svg"><sodipodi:namedview
     id="namedview8"
     pagecolor="#ffffff"
     bordercolor="#666666"
     borderopacity="1.0"
     inkscape:pageshadow="2"
     inkscape:pageopacity="0.0"
     inkscape:pagecheckerboard="0"
     showgrid="false"
     inkscape:zoom="64.191175"
     inkscape:cx="6.4183278"
     inkscape:cy="6.8000002"
     inkscape:window-width="2560"
     inkscape:window-height="1364"
     inkscape:window-x="1920"
     inkscape:window-y="0"
     inkscape:window-maximized="1"
     inkscape:current-layer="g10"
     inkscape:showpageshadow="2"
     inkscape:deskcolor="#d1d1d1" /><defs
     id="defs6" /><g
     id="g8"
     transform="matrix(1.3333333,0,0,-1.3333333,0,13.6)"><g
       id="g10"
       transform="scale(0.1)"><path
         id="path12"
         style="fill:#2f2f2f;fill-opacity:1;fill-rule:nonzero;stroke:none"
         d="M 95.93262 101.97071 L 94.584963 101.69239 L 93.149416 101.16504 L 91.713869 100.62305 L 90.087893 99.993167 L 88.461916 98.909182 L 86.572268 98.015627 L 84.96094 96.843752 L 83.159182 95.496096 L 81.357424 94.060549 L 79.731447 92.610354 L 78.20801 90.896487 L 77.490236 90.178713 L 75.95215 88.479494 L 74.604494 86.677737 L 73.168947 84.963869 L 72.084963 83.250002 L 71.000978 81.536135 L 70.019533 79.822268 L 69.38965 78.210939 L 68.671877 76.672853 L 68.217775 75.061525 L 68.041994 73.713869 L 68.041994 72.263674 L 68.041994 71.194338 L 68.305666 70.110353 L 68.569338 69.568361 L 67.587892 70.388674 L 65.434572 71.560549 L 63.266603 72.454103 L 60.571291 72.996096 L 58.227541 73.083986 L 55.708009 72.717775 L 53.45215 72.087892 L 51.298829 71.106447 L 49.04297 69.6709 L 47.519532 68.220705 L 45.805665 66.506838 L 44.5459 64.265627 L 44.091798 63.093752 L 44.003907 63.269533 L 43.916017 64.529298 L 43.461915 65.247072 L 42.744142 66.418947 L 41.762696 67.415041 L 40.678712 68.499025 L 39.594728 69.39258 L 37.983399 70.461916 L 36.269532 71.45801 L 34.643556 72.454103 L 32.666016 73.259767 L 30.600587 74.08008 L 28.798829 74.709963 L 26.367188 75.515627 L 24.213868 76.057619 L 23.129883 76.321291 L 20.698243 76.672853 L 18.442383 76.951174 L 16.464844 77.229494 L 14.399414 77.302736 L 10.341797 77.302736 L 8.4521486 76.951174 L 6.7529299 76.775393 L 5.3027345 76.409182 L 3.779297 75.867189 L 2.6953126 75.325197 L 1.7138672 74.519533 L 0.98144534 73.977541 L 0.35156251 73.083986 L 0.087890627 72.263674 L 0 71.824221 L 0.087890627 70.828127 L 0.17578125 69.656252 L 0.71777346 68.762697 L 1.3476563 67.766603 L 2.3437501 66.697267 L 3.3251954 65.613283 L 4.5849611 64.70508 L 6.2109377 63.811525 L 7.6464846 62.83008 L 9.4482424 61.658205 L 11.425782 61.013673 L 13.31543 60.120119 L 15.571289 59.402345 L 17.8125 58.684572 L 19.980469 58.14258 L 19.980469 58.23047 L 20.961915 57.776369 L 23.217774 57.424806 L 25.561524 57.058595 L 27.626954 56.882814 L 29.604493 56.794923 L 31.860352 56.794923 L 33.750001 56.882814 L 35.551759 57.146486 L 37.250977 57.424806 L 38.789063 57.791017 L 40.22461 58.23047 L 41.308595 58.772462 L 42.202149 59.578126 L 43.198243 60.310548 L 43.286134 60.383791 L 43.110353 59.944337 L 42.744142 57.424806 L 42.832032 54.993165 L 43.549806 52.473634 L 44.5459 50.305665 L 45.717775 48.240236 L 47.431642 46.526368 L 49.32129 45.002931 L 51.38672 43.743165 L 53.642579 42.84961 L 56.162111 42.395509 L 58.491212 42.395509 L 60.922853 42.57129 L 60.29297 42.117189 L 59.575197 41.487306 L 58.945314 40.681642 L 58.403322 39.421876 L 57.963869 38.337892 L 57.319337 36.902345 L 57.143556 35.291017 L 57.143556 33.47461 L 57.055665 31.59961 L 57.055665 29.607423 L 57.319337 27.732423 L 57.421876 25.461915 L 57.963869 23.220704 L 58.403322 21.067383 L 59.033205 19.001954 L 59.135744 18.811524 L 59.311525 17.903321 L 60.029298 15.66211 L 60.922853 13.684571 L 61.918947 11.692383 L 62.54883 9.714844 L 63.720705 8.1035158 L 64.70215 6.4775392 L 65.874025 4.8662111 L 66.870119 3.6064454 L 67.866213 2.4345704 L 69.125978 1.4384766 L 70.107424 0.80859377 L 71.45508 0.36914063 L 72.348635 0.090820315 L 73.168947 0.0029296876 L 74.165041 0.0029296876 L 74.692385 0.19335938 L 75.512697 0.72070314 L 76.406252 1.4384766 L 76.948244 2.1562501 L 77.578127 3.3281251 L 78.032229 4.5878907 L 78.383791 6.2138673 L 78.471682 7.7519533 L 78.925783 9.6269534 L 78.925783 11.516602 L 78.925783 13.31836 L 78.559572 15.208008 L 78.2959 17.551758 L 77.944338 19.617188 L 77.490236 21.770508 L 76.860353 24.114258 L 76.860353 24.216797 L 76.596682 25.022462 L 75.95215 27.278321 L 74.868166 29.25586 L 74.165041 31.233399 L 73.256838 33.123048 L 72.260744 35.012696 L 71.191408 36.711915 L 70.107424 37.986329 L 68.847658 39.333985 L 68.041994 40.403321 L 66.782228 41.223634 L 65.874025 42.029298 L 64.526369 42.57129 L 63.530275 42.84961 L 62.63672 42.922853 L 63.266603 43.289064 L 65.610353 44.285157 L 67.763674 45.720704 L 69.477541 47.156251 L 71.000978 48.958009 L 72.348635 51.038087 L 73.168947 53.191408 L 73.886721 55.535158 L 74.165041 57.966798 L 73.886721 60.208009 L 73.344728 62.83008 L 72.348635 65.071291 L 71.000978 67.04883 L 70.458986 67.678713 L 71.45508 67.590822 L 72.626955 67.502931 L 73.710939 67.415041 L 75.146486 67.678713 L 76.684572 67.942385 L 78.20801 68.674806 L 79.921877 69.39258 L 81.445315 70.198244 L 83.159182 71.370119 L 84.96094 72.454103 L 86.674807 73.625978 L 88.461916 75.149416 L 90.087893 76.672853 L 91.713869 78.210939 L 91.713869 78.29883 L 92.329104 79.192385 L 93.95508 80.9209 L 95.405276 82.444338 L 96.665041 84.158205 L 97.734377 86.033205 L 98.818362 87.747073 L 99.887698 89.46094 L 100.53223 91.072268 L 101.05957 92.610354 L 101.51367 94.23633 L 101.87989 95.583987 L 101.87989 96.931643 L 101.79199 98.015627 L 101.51367 99.099612 L 101.05957 100.08106 L 100.62012 100.62305 L 100.35645 100.79883 L 99.360354 101.5166 L 98.36426 101.79492 L 97.280276 101.97071 L 95.93262 101.97071 z M 58.491212 64.895509 L 59.750978 64.895509 L 60.922853 64.617189 L 62.006837 64.265627 L 62.915041 63.723634 L 64.438478 62.288087 L 65.068361 61.204103 L 65.522463 60.208009 L 65.786134 59.211916 L 65.698244 58.14258 L 65.610353 56.882814 L 65.346681 55.623048 L 64.98047 54.626954 L 64.438478 53.82129 L 63.618166 52.927736 L 62.63672 52.107423 L 61.743166 51.47754 L 60.4834 50.950197 L 59.575197 50.671876 L 58.403322 50.583986 L 57.055665 50.583986 L 55.88379 50.847658 L 54.990236 51.125978 L 54.082033 51.653322 L 53.188478 52.473634 L 52.382814 53.191408 L 51.928712 54.099611 L 51.474611 55.081056 L 51.123048 56.340822 L 51.020509 57.336915 L 51.298829 58.494142 L 51.474611 59.666017 L 51.928712 60.662111 L 52.646486 61.746095 L 53.188478 62.463869 L 54.169923 63.269533 L 55.166017 64.001955 L 56.337892 64.441408 L 56.425783 64.441408 L 57.421876 64.807619 L 58.491212 64.895509 z " /></g></g></svg>
